<?xml version="1.0" standalone="no"?>
<!DOCTYPE svg PUBLIC "-//W3C//DTD SVG 1.1//EN" "http://www.w3.org/Graphics/SVG/1.1/DTD/svg11.dtd" >
<svg xmlns="http://www.w3.org/2000/svg">
<metadata>
Created by FontPrep 20130207 at Wed Apr 20 19:42:01 2016
 By Steve Graegert
Copyright (c) 2012 by Dieter Hofrichter. All rights reserved.
</metadata>
<defs>
<font id="07b2dda84d3e8dbf94b0b4b00764fe9a" horiz-adv-x='1024' >
  <font-face 
    font-family="Ashbury-ExtraLightItalic"
    font-weight="200"
    font-style="italic"
    font-stretch="normal"
    units-per-em="2048"
    panose-1="2 0 5 3 6 0 0 2 0 3"
    ascent="1536"
    descent="-512"
    x-height="944"
    cap-height="1358"
    bbox="-451 -620 2701 2056"
    underline-thickness="0"
    underline-position="0"
    slope="-12"
    unicode-range="U+0020-FB06"
  />
<missing-glyph horiz-adv-x="681" 
 />
    <glyph glyph-name="f_f" unicode="ff" horiz-adv-x="1294" 
d="M-256 -610q-84 0 -126 30t-42 64t20 58q20 22 49 22q28 0 42 -30q32 -68 125 -67t163 78q125 135 246 691t121 569q0 14 -14 14l-148 -2q-23 0 -22 17q0 39 30 45q109 16 136 26q26 11 48 63t60 188t80 208q43 72 113 127q139 113 303 113q98 0 140 -42t42 -75t-24 -53
t-60 -21t-48 44q-7 24 -17 38q-23 35 -103 35q-113 0 -205 -117q-45 -57 -69 -108t-65 -201q-42 -150 -42 -195q0 -14 19 -14h356q96 0 123 23q27 24 47 68t61 190q68 244 208 356t313 113q102 -1 146 -41t44 -76t-26 -60q-26 -23 -63 -22t-49 44q-6 23 -18 38
q-29 43 -95 43q-65 0 -125 -35t-97 -82q-88 -113 -142 -306t-55 -239q0 -14 19 -14l180 4q31 0 31 -29q0 -53 -54 -53l-184 2q-14 0 -18 -18q-16 -74 -53 -252t-76 -354t-99 -337t-100 -214q-39 -53 -102 -111q-111 -98 -283 -98q-78 0 -131 32q-53 33 -53 63t20 54t45 23
q26 0 46 -28t50 -47t97 -19q100 0 170 77q35 39 63 85q29 45 79 191t134 532t84 404q0 17 -14 17q-94 2 -215 2l-291 -2q-14 0 -18 -18q-105 -495 -111 -520q-84 -379 -160 -545t-166 -248q-111 -98 -270 -98z" />
    <glyph glyph-name="fi" unicode="fi" horiz-adv-x="1298" 
d="M1001 1645q107 1 167 -49t61 -126q0 -42 -22 -68t-62 -26q-70 0 -78 54q-2 8 -4 43t-10 49q-29 49 -113 49t-154 -35t-104 -82q-100 -129 -152 -314t-53 -231q0 -14 19 -14q372 -1 462 21q89 22 99 22q57 0 57 -67t-106 -363t-105 -397q0 -45 43 -45t93 34t82 81
q32 48 37 72q5 23 33 23t28 -31t-74 -122q-63 -74 -136 -112t-124 -38q-98 0 -99 90q2 71 92 343t91 350q1 33 -11 44t-44 13t-445 6q-14 0 -18 -18q-16 -74 -39 -185q-22 -111 -40 -191t-54 -244q-36 -165 -96 -335t-104 -238q-142 -218 -374 -218q-84 0 -126 30t-42 64
t20 58q20 22 49 22q28 0 42 -30q32 -68 125 -67t163 78q125 135 246 691t121 569q0 14 -14 14l-148 -2q-23 0 -22 17q0 39 30 45q109 16 136 26q26 11 48 63t64 208q64 227 208 348t357 121z" />
    <glyph glyph-name="fl" unicode="fl" horiz-adv-x="1267" 
d="M-256 -610q-84 0 -126 30t-42 64t20 58q20 22 49 22q28 0 42 -30q32 -68 125 -67t163 78q125 135 246 691t121 569q0 14 -14 14l-148 -2q-23 0 -22 17q0 39 30 45q109 16 136 26q26 11 48 63t64 208q61 223 214 346t388 123q96 0 162 -23q33 -8 41 -8t33 16t43 15
q18 1 18 -17t-44 -148t-110 -356q-67 -226 -121 -407t-104 -359t-51 -247q0 -45 43 -45t93 34t82 81q32 48 37 72q5 23 33 23t28 -31t-74 -122q-63 -74 -136 -112t-124 -38q-100 0 -101 90q2 73 138 523t211 719q27 98 26 161q0 104 -164 105q-113 0 -195 -37t-120 -88
q-104 -133 -154 -312t-51 -225q0 -14 19 -14l180 4q31 0 31 -29q0 -53 -54 -53l-184 2q-14 0 -18 -18q-16 -74 -39 -185q-22 -111 -40 -191t-32 -146q-84 -379 -160 -544t-166 -247q-111 -98 -270 -98z" />
    <glyph glyph-name="f_f_i" unicode="ffi" horiz-adv-x="1945" 
d="M-256 -610q-84 0 -126 30t-42 64t20 58q20 22 49 22q28 0 42 -30q32 -68 125 -67t163 78q125 135 246 691t121 569q0 14 -14 14l-148 -2q-23 0 -22 17q0 39 30 45q109 16 136 26q26 11 48 63t60 188t80 208q43 72 113 127q139 113 303 113q98 0 140 -42t42 -75t-24 -53
t-60 -21t-48 44q-7 24 -17 38q-23 35 -103 35q-113 0 -205 -117q-45 -57 -69 -108t-65 -201q-42 -150 -42 -195q0 -14 19 -14h356q96 0 123 23q27 24 47 68t61 190q63 227 207 348t359 121q107 1 167 -49t60 -126q0 -42 -22 -68t-62 -26q-70 0 -78 54q-2 8 -4 43t-10 49
q-29 49 -113 49q-83 0 -153 -35t-105 -82q-100 -129 -152 -314t-53 -231q0 -14 19 -14q380 -1 466 21q85 22 95 22q57 0 57 -67q1 -67 -105 -363t-106 -397q0 -45 43 -45t94 33q50 34 80 83q33 47 38 71q5 23 33 23t28 -31t-74 -122q-63 -74 -136 -112t-124 -38
q-98 0 -98 90q2 71 92 343t90 350q0 33 -11 44t-44 13t-445 6q-14 0 -18 -18q-16 -74 -53 -252t-76 -354t-99 -337t-100 -214q-39 -53 -102 -111q-111 -98 -283 -98q-78 0 -131 32q-53 33 -53 63t20 54t45 23q26 0 46 -28t50 -47t97 -19q100 0 170 77q35 39 63 85
q29 45 79 191t134 532t84 404q0 17 -14 17q-94 2 -215 2l-291 -2q-14 0 -18 -18q-105 -495 -111 -520q-84 -379 -160 -545t-166 -248q-111 -98 -270 -98z" />
    <glyph glyph-name="f_f_l" unicode="ffl" horiz-adv-x="1914" 
d="M-256 -610q-84 0 -126 30t-42 64t20 58q20 22 49 22q28 0 42 -30q32 -68 125 -67t163 78q125 135 246 691t121 569q0 14 -14 14l-148 -2q-23 0 -22 17q0 39 30 45q109 16 136 26q26 11 48 63t60 188t80 208q43 72 113 127q139 113 303 113q98 0 140 -42t42 -75t-24 -53
t-60 -21t-48 44q-7 24 -17 38q-23 35 -103 35q-113 0 -205 -117q-45 -57 -69 -108t-65 -201q-42 -150 -42 -195q0 -14 19 -14h356q96 0 123 23q27 24 47 68t61 190q61 223 214 346t389 123q96 0 161 -23q33 -8 35 -8l80 31q20 1 20 -15t-44 -148t-110 -358t-120 -407
t-106 -359q-50 -178 -50 -247q0 -45 43 -45t94 33q50 34 80 83q33 47 38 71q5 23 33 23t28 -31t-74 -122q-63 -74 -136 -112t-124 -38q-100 0 -100 90q2 73 137 523t211 719q27 98 26 161q0 104 -163 105q-113 0 -195 -37t-121 -88q-104 -133 -154 -312t-51 -225
q0 -14 19 -14l180 4q31 0 31 -29q0 -53 -54 -53l-184 2q-14 0 -18 -18q-16 -74 -53 -252t-76 -354t-99 -337t-100 -214q-39 -53 -102 -111q-111 -98 -283 -98q-78 0 -131 32q-53 33 -53 63t20 54t45 23q26 0 46 -28t50 -47t97 -19q100 0 170 77q35 39 63 85q29 45 79 191
t134 532t84 404q0 17 -14 17q-94 2 -215 2l-291 -2q-14 0 -18 -18q-105 -495 -111 -520q-84 -379 -160 -545t-166 -248q-111 -98 -270 -98z" />
    <glyph glyph-name="T_h" unicode="Th" horiz-adv-x="2312" 
d="M297 66q28 0 43 -3q92 0 122 40t60 176l201 880q14 53 14 75q-1 22 -23 32t-172 10t-205 -42q-56 -42 -93 -159q-12 -31 -43 -31t-31 29q0 8 22 73t52 175q8 37 39 37q2 0 80 -6t566 -6q487 0 593 5t141 70q23 45 41 92t56 47t38 -26q0 -28 -133 -445t-153 -473t-21 -63
q0 -6 7 -6t13 10q70 111 150 197q180 190 358 190q115 0 121 -96q0 -66 -106 -367t-107 -370q0 -45 43 -45t93 34t82 81q32 48 37 72q5 23 33 23t28 -32q1 -32 -67 -113q-68 -82 -140 -120t-127 -38q-98 0 -99 90q0 63 104 346t103 367q1 60 -73 60t-160 -62
q-135 -96 -258 -289q-86 -135 -133 -323q-10 -39 -11 -123q0 -49 -45 -49q-78 0 -77 47q0 26 126 436t163 548q36 138 36 171t-26 49q-55 35 -480 35q-173 0 -197 -11t-40 -83l-207 -901q-34 -159 -12 -183q12 -35 110 -35l47 3q23 0 23 -29q0 -39 -37 -39q-8 0 -82 6
t-148 6t-126 -3q-51 -3 -82 -6t-35 -3q-29 0 -29 34t33 34z" />
    <glyph glyph-name="Tcaron_h" unicode="&#x164;h" horiz-adv-x="2312" 
d="M592 1761q0 31 31 31q12 0 32 -16q68 -68 124 -116q55 -48 63 -48t28 10q143 106 188 138q44 32 58 32t24 -11t9 -21q1 -10 -21 -30t-260 -247q-25 -25 -44 -25t-36 23q-116 164 -156 217t-40 63zM297 66q28 0 43 -3q92 0 122 40t60 176l201 880q14 53 14 75
q-1 22 -23 32t-172 10t-205 -42q-56 -42 -93 -159q-12 -31 -43 -31t-31 29q0 8 22 73t52 175q8 37 39 37q2 0 80 -6t566 -6q487 0 593 5t141 70q23 45 41 92t56 47t38 -26q0 -28 -133 -445t-153 -473t-21 -63q0 -6 7 -6t13 10q70 111 150 197q180 190 358 190q115 0 121 -96
q0 -66 -106 -367t-107 -370q0 -45 43 -45t93 34t82 81q32 48 37 72q5 23 33 23t28 -32q1 -32 -67 -113q-68 -82 -140 -120t-127 -38q-98 0 -99 90q0 63 104 346t103 367q1 60 -73 60t-160 -62q-135 -96 -258 -289q-86 -135 -133 -323q-10 -39 -11 -123q0 -49 -45 -49
q-78 0 -77 47q0 26 126 436t163 548q36 138 36 171t-26 49q-55 35 -480 35q-173 0 -197 -11t-40 -83l-207 -901q-34 -159 -12 -183q12 -35 110 -35l47 3q23 0 23 -29q0 -39 -37 -39q-8 0 -82 6t-148 6t-126 -3q-51 -3 -82 -6t-35 -3q-29 0 -29 34t33 34z" />
    <glyph glyph-name="f_b" unicode="fb" horiz-adv-x="1718" 
d="M1524 713q0 127 -97 127q-119 0 -249 -131t-200 -275q-69 -144 -69 -254q0 -125 154 -125q225 0 375 297q86 173 86 361zM-256 -610q-84 0 -126 30t-42 64t20 58q20 22 49 22q28 0 42 -30q32 -68 125 -67t163 78q125 135 246 691t121 569q0 14 -14 14l-148 -2
q-23 0 -22 17q0 39 30 45q109 16 136 26q26 11 48 63t64 208q61 223 214 346t372 123q96 0 162 -23q33 -8 41 -8q9 0 29 16t42 15q22 0 23 -19q0 -16 -9 -42t-126 -409t-152 -480t-35 -103q-1 -6 9 -6t14 8q78 136 203 240t258 104q73 0 117 -46t44 -130q0 -236 -137 -467
q-90 -152 -220 -237t-265 -85q-88 1 -150 51t-61 134q0 84 38 220t139 477t130 445t29 166q0 104 -164 105q-201 0 -302 -129t-151 -308t-51 -225q0 -14 19 -14l180 4q31 0 31 -29q0 -53 -54 -53l-184 2q-14 0 -18 -18q-16 -74 -39 -185q-22 -111 -40 -191t-32 -146
q-84 -379 -160 -544t-166 -247q-111 -98 -270 -98z" />
    <glyph glyph-name="f_f_b" unicode="ffb" horiz-adv-x="2381" 
d="M2187 713q0 127 -96 127q-119 0 -250 -131t-200 -275t-68 -254q0 -125 153 -125q225 0 375 297q86 168 86 361zM-256 -610q-84 0 -126 30t-42 64t20 58q20 22 49 22q28 0 42 -30q32 -68 125 -67t163 78q125 135 246 691t121 569q0 14 -14 14l-148 -2q-23 0 -22 17
q0 39 30 45q109 16 136 26q26 11 48 63t60 188t80 208q43 72 113 127q139 113 303 113q92 0 137 -39t45 -75t-24 -56t-60 -21t-48 44q-7 24 -17 38q-23 35 -103 35q-113 0 -205 -117q-45 -57 -69 -108t-65 -201q-42 -150 -42 -195q0 -14 19 -14h356q96 0 123 23q27 24 47 68
t61 190q61 223 214 346t389 123q96 0 161 -23q33 -8 40 -8t34 16t41 15q20 0 20 -19q0 -12 -28 -95t-125 -411q-98 -328 -133 -425t-35 -103t9 -6t13 8q78 136 203 240t258 104q74 0 118 -46t44 -130q0 -242 -137 -467q-92 -150 -222 -236t-264 -86q-88 1 -149 51t-61 134
q-1 84 37 220t140 477q101 341 130 445t28 166q0 104 -163 105q-113 0 -195 -37t-121 -88q-104 -133 -154 -312t-51 -225q0 -14 19 -14l180 4q31 0 31 -29q0 -53 -54 -53l-184 2q-14 0 -18 -18q-16 -74 -53 -252t-76 -354t-99 -337t-100 -214q-39 -53 -102 -111
q-111 -98 -283 -98q-78 0 -131 32q-53 33 -53 63t20 54t45 23q26 0 46 -28t50 -47t97 -19q100 0 170 77q35 39 63 85q29 45 79 191t134 532t84 404q0 17 -14 17q-94 2 -215 2l-291 -2q-14 0 -18 -18q-105 -495 -111 -520q-84 -379 -160 -545t-166 -248q-111 -98 -270 -98z
" />
    <glyph glyph-name="f_f_h" unicode="ffh" horiz-adv-x="2459" 
d="M-256 -610q-84 0 -126 30t-42 64t20 58q20 22 49 22q28 0 42 -30q32 -68 125 -67t163 78q125 135 246 691t121 569q0 14 -14 14l-148 -2q-23 0 -22 17q0 39 30 45q109 16 136 26q26 11 48 63t60 188t80 208q43 72 113 127q139 113 303 113q98 0 140 -42t42 -75t-24 -53
t-60 -21t-48 44q-7 24 -17 38q-23 35 -103 35q-113 0 -205 -117q-45 -57 -69 -108t-65 -201q-42 -150 -42 -195q0 -14 19 -14h356q96 0 123 23q27 24 47 68t61 190q61 223 214 346t389 123q96 0 161 -23q33 -8 41 -8t33 16t43 15q18 1 18 -17t-7 -38t-154 -477
q-147 -458 -165 -506t-18 -54t8 -6t13 10q70 111 149 197q180 190 359 190q121 0 121 -96q0 -66 -106 -367t-107 -370q0 -45 43 -45t93 34t82 81q32 48 37 72q4 23 32 23t28 -33t-68 -113q-68 -81 -139 -119q-72 -38 -127 -38q-98 0 -98 90q0 63 104 346t103 367
q0 60 -74 60t-160 -62q-135 -96 -258 -289q-86 -135 -133 -323q-10 -39 -10 -123q0 -49 -45 -49q-78 0 -78 47q0 15 13 61q14 46 150 500t208 707q27 98 26 161q0 104 -159 105q-113 0 -195 -37t-121 -88q-104 -133 -154 -312t-51 -225q0 -14 19 -14l180 4q31 0 31 -29
q0 -53 -54 -53l-184 2q-14 0 -18 -18q-16 -74 -53 -252t-76 -354t-99 -337t-100 -214q-39 -53 -102 -111q-111 -98 -283 -98q-78 0 -131 32q-53 33 -53 63t20 54t45 23q26 0 46 -28t50 -47t97 -19q100 0 170 77q35 39 63 85q29 45 79 191t134 532t84 404q0 17 -14 17
q-94 2 -215 2l-291 -2q-14 0 -18 -18q-105 -495 -111 -520q-84 -379 -160 -545t-166 -248q-111 -98 -270 -98z" />
    <glyph glyph-name="f_f_j" unicode="ffj" horiz-adv-x="1888" 
d="M-256 -610q-84 0 -126 30t-42 64t20 58q20 22 49 22q28 0 42 -30q32 -68 125 -67t163 78q125 135 246 691t121 569q0 14 -14 14l-148 -2q-23 0 -22 17q0 39 30 45q109 16 136 26q26 11 48 63t60 188t80 208q43 72 113 127q139 113 303 113q98 0 140 -42t42 -75t-24 -53
t-60 -21t-48 44q-7 24 -17 38q-23 35 -103 35q-113 0 -205 -117q-45 -57 -69 -108t-65 -201q-42 -150 -42 -195q0 -14 19 -14h356q96 0 123 23q27 24 47 68t61 190q63 227 207 348t359 121q107 1 167 -49t60 -126q0 -42 -22 -68t-62 -26q-70 0 -78 54q-2 8 -4 43t-10 49
q-29 49 -113 49q-83 0 -153 -35t-105 -82q-100 -129 -152 -314t-53 -231q0 -14 19 -14q354 -1 444 21q91 22 111 22q38 0 38 -76q1 -76 -90 -465t-165 -556q-160 -361 -449 -361q-78 0 -109 28t-31 55q0 28 21 48q20 20 45 20q25 1 52 -35t83 -36t107 32t80 68
q72 90 148 324t127 491q53 258 53 286t-14 39t-48 13q-35 2 -430 6q-14 0 -18 -18q-16 -74 -53 -252t-76 -354t-99 -337t-100 -214q-39 -53 -102 -111q-111 -98 -283 -98q-78 0 -131 32q-53 33 -53 63t20 54t45 23q26 0 46 -28t50 -47t97 -19q100 0 170 77q35 39 63 85
q29 45 79 191t134 532t84 404q0 17 -14 17q-94 2 -215 2l-291 -2q-14 0 -18 -18q-105 -495 -111 -520q-84 -379 -160 -545t-166 -248q-111 -98 -270 -98z" />
    <glyph glyph-name="f_f_k" unicode="ffk" horiz-adv-x="2408" 
d="M2254 946q124 0 124 -78q0 -36 -25 -66t-57 -30t-45 28q-15 28 -59 28t-91 -21q-139 -63 -241 -182q-39 -45 -39 -67t22 -71q105 -223 167 -319t110 -96t90 30q81 60 94 150q4 31 31 31q35 0 35 -38q0 -37 -58 -117q-110 -153 -229 -153q-63 0 -115 69t-205 392
q-25 50 -47 64t-20 24q0 10 28 47q184 221 365 322q101 53 165 53zM-256 -610q-84 0 -126 30t-42 64t20 58q20 22 49 22q28 0 42 -30q32 -68 125 -67t163 78q125 135 246 691t121 569q0 14 -14 14l-148 -2q-23 0 -22 17q0 39 30 45q109 16 136 26q26 11 48 63t60 188t80 208
q43 72 113 127q139 113 303 113q98 0 140 -42t42 -75t-24 -53t-60 -21t-48 44q-7 24 -17 38q-23 35 -103 35q-113 0 -205 -117q-45 -57 -69 -108t-65 -201q-42 -150 -42 -195q0 -14 19 -14h356q96 0 123 23q27 24 47 68t61 190q61 223 214 346t389 123q96 0 161 -23
q33 -8 41 -8t33 16t43 15q18 1 18 -17t-66 -217t-126 -397q-260 -836 -260 -936l2 -39q0 -49 -47 -49q-74 0 -74 48t367 1267q27 88 26 161q0 104 -159 105q-113 0 -195 -37t-121 -88q-104 -133 -154 -312t-51 -225q0 -14 19 -14l180 4q31 0 31 -29q0 -53 -54 -53l-184 2
q-14 0 -18 -18q-16 -74 -53 -252t-76 -354t-99 -337t-100 -214q-39 -53 -102 -111q-111 -98 -283 -98q-78 0 -131 32q-53 33 -53 63t20 54t45 23q26 0 46 -28t50 -47t97 -19q100 0 170 77q35 39 63 85q29 45 79 191t134 532t84 404q0 17 -14 17q-94 2 -215 2l-291 -2
q-14 0 -18 -18q-105 -495 -111 -520q-84 -379 -160 -545t-166 -248q-111 -98 -270 -98z" />
    <glyph glyph-name="f_h" unicode="fh" horiz-adv-x="1812" 
d="M-256 -610q-84 0 -126 30t-42 64t20 58q20 22 49 22q28 0 42 -30q32 -68 125 -67t163 78q125 135 246 691t121 569q0 14 -14 14l-148 -2q-23 0 -22 17q0 39 30 45q109 16 136 26q26 11 48 63t64 208q61 223 214 346t388 123q96 0 162 -23q33 -8 41 -8t33 16t43 15
q18 1 18 -17t-7 -38t-154 -477q-147 -458 -165 -506t-18 -54t7 -6t14 10q70 111 149 197q180 190 359 190q121 0 120 -96q0 -66 -106 -367t-107 -370q0 -45 43 -45q44 0 94 34t82 81q32 48 36 72q4 23 33 23q28 0 28 -33q1 -33 -67 -113q-68 -81 -140 -119t-127 -38
q-98 0 -98 90q-1 63 103 346t104 367q0 60 -74 60t-160 -62q-135 -96 -258 -289q-86 -135 -133 -323q-10 -39 -10 -123q0 -49 -45 -49q-78 0 -78 47q0 15 13 61t149 500t186 630q49 175 49 238q0 104 -160 105q-113 0 -195 -37t-120 -88q-104 -133 -154 -312t-51 -225
q0 -14 19 -14l180 4q31 0 31 -29q0 -53 -54 -53l-184 2q-14 0 -18 -18q-16 -74 -39 -185q-22 -111 -40 -191t-32 -146q-84 -379 -160 -544t-166 -247q-111 -98 -270 -98z" />
    <glyph glyph-name="f_j" unicode="fj" horiz-adv-x="1241" 
d="M1001 1645q107 1 167 -49t61 -126q0 -42 -22 -68t-62 -26q-70 0 -78 54q-2 8 -4 43t-10 49q-29 49 -113 49t-154 -35t-104 -82q-100 -129 -152 -314t-53 -231q0 -14 19 -14q352 -1 444 21q91 22 110 22q38 0 39 -76t-92 -472t-167 -579q-151 -372 -435 -372
q-79 -1 -109 27t-30 56t20 48t46 20t52 -36t82 -35q98 0 177 100q133 172 276 858q51 256 51 284t-12 39q-14 11 -49 13t-430 6q-14 0 -18 -18q-16 -74 -39 -185q-22 -111 -40 -191t-54 -244q-36 -165 -96 -335t-104 -238q-142 -218 -374 -218q-84 0 -126 30t-42 64t20 58
q20 22 49 22q28 0 42 -30q32 -68 125 -67t163 78q125 135 246 691t121 569q0 14 -14 14l-148 -2q-23 0 -22 17q0 39 30 45q109 16 136 26q26 11 48 63t64 208q64 227 208 348t357 121z" />
    <glyph glyph-name="f_k" unicode="fk" horiz-adv-x="1761" 
d="M1606 946q124 0 125 -78q0 -36 -25 -66q-24 -30 -56 -30t-46 28t-58 28t-92 -21q-139 -63 -242 -182q-38 -45 -38 -67t22 -71q106 -223 168 -319t110 -96t89 30q81 60 94 150q4 31 31 31q34 0 34 -38q0 -37 -57 -117q-109 -153 -229 -153q-62 0 -114 69t-206 392
q-24 50 -46 64t-22 24t29 47q184 221 365 322q100 53 164 53zM-256 -610q-84 0 -126 30t-42 64t20 58q20 22 49 22q28 0 42 -30q32 -68 125 -67t163 78q125 135 246 691t121 569q0 14 -14 14l-148 -2q-23 0 -22 17q0 39 30 45q109 16 136 26q26 11 48 63t64 208
q61 223 214 346t388 123q96 0 162 -23q33 -8 41 -8t33 16t43 15q18 1 18 -17q1 -18 -65 -217t-127 -397q-260 -836 -260 -936l2 -39q0 -49 -47 -49q-74 0 -74 47t366 1268q27 88 27 161q0 104 -160 105q-113 0 -195 -37t-120 -88q-104 -133 -154 -312t-51 -225q0 -14 19 -14
l180 4q31 0 31 -29q0 -53 -54 -53l-184 2q-14 0 -18 -18q-16 -74 -39 -185q-22 -111 -40 -191t-32 -146q-84 -379 -160 -544t-166 -247q-111 -98 -270 -98z" />
    <glyph glyph-name="uni0162_h" unicode="&#x162;h" horiz-adv-x="2312" 
d="M647 -291q1 -113 -107 -181t-229 -69q-43 0 -43 38t58 38q90 0 149 37t59 92t-24 78q-25 23 -88 39q-29 6 -29 37t92 192l-192 -12q-29 0 -29 34t33 34q28 0 43 -3q92 0 122 40t60 176l201 880q14 53 14 75q-1 22 -23 32t-172 10t-205 -42q-56 -42 -93 -159
q-12 -31 -43 -31t-31 29q0 8 22 73t52 175q8 37 39 37q2 0 80 -6t566 -6q487 0 593 5t141 70q23 45 41 92t56 47t38 -26q0 -28 -133 -445t-153 -473t-21 -63q0 -6 7 -6t13 10q70 111 150 197q180 190 358 190q115 0 121 -96q0 -66 -106 -367t-107 -370q0 -45 43 -45t93 34
t82 81q32 48 37 72q5 23 33 23t28 -32q1 -32 -67 -113q-68 -82 -140 -120t-127 -38q-98 0 -99 90q0 63 104 346t103 367q1 60 -73 60t-160 -62q-135 -96 -258 -289q-86 -135 -133 -323q-10 -39 -11 -123q0 -49 -45 -49q-78 0 -77 47q0 26 126 436t163 548q36 138 36 171
t-26 49q-55 35 -480 35q-173 0 -197 -11t-40 -83l-207 -901q-34 -159 -12 -183q12 -35 110 -35l47 3q23 0 23 -29q0 -39 -37 -39l-220 12q-52 -95 -52 -116t20 -31q68 -23 100 -57t33 -97z" />
    <glyph glyph-name="uni021A_h" unicode="&#x21a;h" horiz-adv-x="2312" 
d="M616 -262q0 -100 -68 -185t-175 -143q-27 -14 -41 -14t-24 13t-9 27q0 14 20 23q178 92 179 213q0 47 -60 90q-28 14 -28 50t28 60t73 24t75 -48t30 -110zM297 66q28 0 43 -3q92 0 122 40t60 176l201 880q14 53 14 75q-1 22 -23 32t-172 10t-205 -42q-56 -42 -93 -159
q-12 -31 -43 -31t-31 29q0 8 22 73t52 175q8 37 39 37q2 0 80 -6t566 -6q487 0 593 5t141 70q23 45 41 92t56 47t38 -26q0 -28 -133 -445t-153 -473t-21 -63q0 -6 7 -6t13 10q70 111 150 197q180 190 358 190q115 0 121 -96q0 -66 -106 -367t-107 -370q0 -45 43 -45t93 34
t82 81q32 48 37 72q5 23 33 23t28 -32q1 -32 -67 -113q-68 -82 -140 -120t-127 -38q-98 0 -99 90q0 63 104 346t103 367q1 60 -73 60t-160 -62q-135 -96 -258 -289q-86 -135 -133 -323q-10 -39 -11 -123q0 -49 -45 -49q-78 0 -77 47q0 26 126 436t163 548q36 138 36 171
t-26 49q-55 35 -480 35q-173 0 -197 -11t-40 -83l-207 -901q-34 -159 -12 -183q12 -35 110 -35l47 3q23 0 23 -29q0 -39 -37 -39q-8 0 -82 6t-148 6t-126 -3q-51 -3 -82 -6t-35 -3q-29 0 -29 34t33 34z" />
    <glyph glyph-name=".notdef" horiz-adv-x="681" 
 />
    <glyph glyph-name=".null" horiz-adv-x="0" 
 />
    <glyph glyph-name="nonmarkingreturn" horiz-adv-x="681" 
 />
    <glyph glyph-name="space" unicode=" " horiz-adv-x="438" 
 />
    <glyph glyph-name="exclam" unicode="!" horiz-adv-x="647" 
d="M377 87q0 -44 -28 -74q-28 -29 -72 -29q-43 0 -67 24t-24 69q0 44 31 74q31 29 70 29t65 -24t25 -69zM303 422q0 10 34 157t77 406q43 260 49 293q20 100 91 100t71 -57q-1 -35 -11 -73t-96 -324t-112 -394t-32 -124q-7 -17 -34 -17q-37 0 -37 33z" />
    <glyph glyph-name="quotedbl" unicode="&#x22;" horiz-adv-x="561" 
d="M508 932q-14 0 -20 5q-5 5 -5 22t8 69q9 52 19 134t15 130q5 49 7 60q16 70 78 70t62 -54q0 -26 -30 -109t-99 -296q-10 -31 -35 -31zM242 932q-14 0 -20 5q-5 5 -5 22t8 69q9 52 19 134t15 130q5 49 7 60q16 70 78 70t62 -54q-1 -24 -25 -94t-52 -154t-53 -157
q-10 -31 -34 -31z" />
    <glyph glyph-name="numbersign" unicode="#" horiz-adv-x="1112" 
d="M465 518q0 -18 20 -18h179q23 0 30 20l74 219q10 31 10 35q0 20 -20 21h-176q-23 0 -31 -21l-80 -229q-6 -18 -6 -27zM217 4q0 2 8 35l109 315q2 8 2 17q0 18 -21 18h-137q-25 0 -24 21q0 25 16 63q14 27 39 27h153q23 0 31 20l78 232q6 18 6 24q0 18 -20 19h-160
q-27 0 -27 18t14 54t40 36h178q25 0 30 21l111 321q10 31 43 31t33 -19q0 -6 -6 -24l-103 -293q-4 -12 -4 -16q0 -20 21 -21h176q25 0 31 21l110 321q10 31 42 31t32 -21q0 -6 -6 -24l-101 -291q-4 -12 -4 -16q0 -20 21 -21h125q27 0 26 -22q0 -25 -12 -56t-37 -30h-149
q-25 0 -31 -21l-78 -231q-6 -18 -6 -25q0 -18 20 -18h152q27 0 27 -19q1 -19 -13 -55q-14 -37 -39 -37h-172q-23 0 -30 -20l-123 -357q-8 -26 -40 -26t-32 20q0 4 8 33l107 307q6 18 6 27q0 16 -21 16h-176q-23 0 -30 -20l-121 -357q-10 -26 -41 -26t-31 18z" />
    <glyph glyph-name="dollar" unicode="$" horiz-adv-x="1001" 
d="M649 1190q0 12 -20 12q-102 0 -170 -66t-68 -169q0 -133 127 -215q16 -8 24 -8t11 20l94 403q2 11 2 23zM477 86q-1 -12 13 -12t45 6q92 25 150 86t58 164q0 150 -125 225q-10 8 -22 8t-16 -20l-101 -437q-2 -8 -2 -20zM373 -203q-35 0 -35 25q0 6 6 31l27 120q4 17 4 23
t-17 8q-145 8 -221 75t-76 157t84 92q66 0 66 -76q0 -57 14 -86q13 -28 55 -56t89 -30q29 0 34 31l105 458q4 20 4 35t-14 23q-117 71 -169 147t-53 174q0 142 112 232t269 102q16 2 21 23l35 143q6 39 42 39t36 -21q0 -10 -5 -30l-26 -111q-6 -18 -6 -33q0 -10 20 -14
q122 -12 186 -66t64 -122q0 -41 -20 -68t-54 -27q-74 0 -73 80q0 51 -21 78q-39 49 -106 49q-18 0 -25 -26l-104 -453q-8 -33 14 -43q231 -133 231 -302t-112 -268t-275 -110q-25 0 -33 -35l-30 -131q-8 -37 -43 -37z" />
    <glyph glyph-name="percent" unicode="%" horiz-adv-x="1585" 
d="M1458 543q0 195 -145 194q-57 -1 -94 -23t-82 -78t-79 -172t-34 -218q0 -188 158 -189q104 0 180 123q44 72 70 176t26 187zM1550 548q0 -102 -34 -220t-93 -193q-100 -137 -234 -137q-253 0 -253 270q0 123 43 234t111 184q98 109 218 109t181 -72q61 -73 61 -175z
M404 -4q-32 0 -31 20q0 12 16 35l795 1182q20 33 51 33t31 -23q0 -14 -13 -29l-800 -1189q-17 -29 -49 -29zM641 1047q0 195 -145 194q-56 -1 -94 -23t-82 -78t-79 -172q-34 -116 -34 -218q0 -188 158 -189q104 0 180 123q43 72 69 176t27 187zM733 1052q0 -102 -35 -220
t-92 -193q-100 -137 -234 -137q-252 0 -253 270q0 123 43 234t110 184q98 108 218 108t182 -72q61 -72 61 -174z" />
    <glyph glyph-name="ampersand" unicode="&#x26;" horiz-adv-x="1552" 
d="M567 748q-115 0 -215 -104t-100 -248t84 -240t272 -95q188 0 314 109q8 8 8 17t-4 16q-199 268 -312 510q-16 35 -47 35zM545 -27q-186 0 -301 110t-115 284q0 324 406 448q20 8 20 25q-1 2 -21 63t-20 141q2 154 102 238t271 84q121 0 187 -45t67 -109q0 -84 -74 -84
q-66 0 -74 74q-14 94 -141 92q-98 0 -158 -55t-61 -173q1 -118 105 -339t282 -451q6 -8 16 -8t23 13q68 67 115 159t48 156t-18 95q-19 32 -18 61q0 72 80 71t79 -121t-78 -258t-167 -227q-8 -8 -8 -18t8 -23q80 -100 184 -100q80 0 139 100q8 12 23 12q31 0 31 -24
q0 -6 -25 -52t-84 -90q-83 -62 -188 -39q-75 13 -172 121q-18 18 -35 5q-176 -136 -428 -136z" />
    <glyph glyph-name="quotesingle" unicode="'" horiz-adv-x="294" 
d="M242 932q-14 0 -20 5q-5 5 -5 22t8 69q9 52 19 134t15 130q5 49 7 60q16 70 78 70t62 -54q-1 -24 -25 -94t-52 -154t-53 -157q-10 -31 -34 -31z" />
    <glyph glyph-name="parenleft" unicode="(" horiz-adv-x="638" 
d="M221 424q0 -195 50 -374t143 -298q10 -14 10 -24t-11 -22t-29 -13q-18 0 -34 16q-112 113 -180 311t-68 408q0 324 177 624q176 300 479 494q43 24 60 4q9 -10 9 -28t-18 -29q-268 -183 -428 -461t-160 -608z" />
    <glyph glyph-name="parenright" unicode=")" horiz-adv-x="638" 
d="M-116 -307q-31 0 -31 38q0 18 18 29q266 182 428 464t162 605q0 193 -48 374t-143 298q-10 11 -10 23t11 24q28 31 63 -4q114 -110 180 -314t66 -405q0 -315 -178 -620t-480 -498q-25 -14 -38 -14z" />
    <glyph glyph-name="asterisk" unicode="*" horiz-adv-x="714" 
d="M399 830q-1 22 41 106t42 102q0 19 -8 19q-7 0 -16 -6t-118 -88q-32 -25 -58 -25t-44 19t-19 49q0 55 57 61q36 6 93 6q96 7 96 21q0 8 -10 14q-59 37 -142 70q-55 24 -55 56t20 54t42 23q47 0 82 -68q23 -45 71 -102q10 -10 16 -11q10 0 11 13l-8 186q0 59 64 59t62 -49
q0 -30 -42 -109t-41 -93q0 -15 6 -19q10 0 22 8t123 88q26 20 54 20t43 -18q15 -20 15 -44q1 -46 -53 -58q-16 -4 -104 -12t-88 -23q0 -19 84 -55q84 -35 100 -50q37 -35 -2 -82q-18 -24 -46 -24t-45 22t-31 41q-14 18 -19 32q-52 83 -68 86q-10 0 -10 -21l14 -182
q0 -63 -61 -64q-27 0 -49 14q-22 12 -21 34z" />
    <glyph glyph-name="plus" unicode="+" horiz-adv-x="1314" 
d="M211 500q-20 0 -21 18q0 8 3 21l8 41q8 27 35 26h403l100 432q6 27 31 27h59q25 0 25 -18q0 -10 -6 -31l-94 -410h401q25 0 25 -18q0 -2 -4 -27l-9 -37q-8 -25 -34 -24h-406l-92 -428q-10 -33 -37 -33h-55q-25 0 -25 22l98 439h-405z" />
    <glyph glyph-name="comma" unicode="," horiz-adv-x="436" 
d="M-73 -385q-29 1 -29 35q0 14 22 28q209 121 209 256q0 59 -70 103q-33 23 -33 59t27 61t78 25t86 -51t35 -119q0 -111 -77 -209t-198 -168q-37 -20 -50 -20z" />
    <glyph glyph-name="hyphen" unicode="-" horiz-adv-x="567" 
d="M451 434h-353q-31 0 -30 23q0 25 11 57t42 31h354q33 0 33 -25q0 -86 -57 -86z" />
    <glyph glyph-name="period" unicode="." horiz-adv-x="440" 
d="M240 87q0 -44 -29 -74q-29 -29 -72 -29t-67 24t-23 69q0 44 31 74q31 29 70 29q38 0 64 -24t26 -69z" />
    <glyph glyph-name="slash" unicode="/" horiz-adv-x="804" 
d="M-46 -152q-36 0 -36 25q0 18 16 41l992 1536q20 39 59 39t39 -27q0 -12 -18 -41l-992 -1538q-24 -35 -60 -35z" />
    <glyph glyph-name="zero" unicode="0" horiz-adv-x="1071" 
d="M922 885q0 340 -242 340q-164 0 -281 -166q-92 -133 -141 -313t-49 -338t61 -255t195 -98q174 0 293 193q164 264 164 637zM1049 864q1 -188 -55 -369t-163 -321q-154 -199 -355 -199t-294 121q-92 122 -92 316t60 380t178 326q154 182 352 182t284 -123q85 -125 85 -313
z" />
    <glyph glyph-name="one" unicode="1" horiz-adv-x="1071" 
d="M657 -2q-4 0 -67 6t-135 6t-124 -3t-85 -6t-39 -3q-27 0 -27 27q0 41 35 41q29 0 47 -3q78 0 107 39q27 39 55 158l151 655q29 131 29 181q0 43 -53 43q-25 0 -59 -4t-37 -5q-23 0 -23 30t31 36q123 25 254 102q23 12 41 13q20 0 20 -25q0 -14 -30 -118t-62 -253
l-149 -651q-21 -82 -21 -141t109 -60l49 3q25 0 24 -29q0 -39 -41 -39z" />
    <glyph glyph-name="two" unicode="2" horiz-adv-x="1071" 
d="M34 -2q-16 0 -22 6t-6 24t43 46q308 188 468 325t236 252q107 165 107 316q0 102 -64 170q-64 67 -184 67t-202 -69q-59 -53 -86 -127q-10 -31 -43 -31t-33 31q0 18 22 63q46 88 146 159q100 70 246 70t237 -84q90 -84 90 -221q-1 -186 -109 -342t-285 -293t-249 -183
t-72 -54q0 -12 23 -12q184 -5 307 -5t189 28t90 116q10 29 38 29t27 -25q0 -8 -22 -84t-27 -150q-4 -25 -39 -24l-414 10q-204 0 -300 -4t-112 -4z" />
    <glyph glyph-name="three" unicode="3" horiz-adv-x="1071" 
d="M911 455q0 -227 -214 -367t-492 -139q-115 0 -115 65q0 33 22 55q22 21 43 21t72 -18t97 -19q206 0 332 90t126 267q0 108 -68 184t-177 76q-55 0 -117 -16t-68 -15q-31 0 -30 41q0 37 74 43t159 45q244 115 244 274q0 76 -47 124t-144 48q-143 0 -215 -116
q-35 -56 -65 -56t-31 33q0 20 25 55q45 70 137 120t214 50q123 0 187 -66t64 -168t-69 -176t-204 -134q-16 -8 -16 -18t12 -9q123 -11 193 -87t71 -187z" />
    <glyph glyph-name="four" unicode="4" horiz-adv-x="1071" 
d="M856 1087q0 9 -10 9t-25 -19q-493 -508 -539 -558t-46 -58q0 -16 24 -17h404q29 0 37 8t14 27q93 416 117 508t24 100zM640 -53q-42 0 -42 26q0 6 6 37l66 279q4 16 4 30q0 20 -31 21h-530q-53 0 -54 35q0 20 33 53q686 705 823 850q33 35 60 35q33 0 33 -31l-183 -793
q-4 -16 -4 -24q0 -14 27 -14h119q41 0 41 -27q0 -20 -10 -51t-60 -31h-119q-16 0 -23 -8t-12 -31l-69 -305q-5 -31 -19 -41t-56 -10z" />
    <glyph glyph-name="five" unicode="5" horiz-adv-x="1071" 
d="M412 871q0 -26 26 -27q231 -35 341 -121t110 -227q0 -232 -207 -390t-508 -157q-53 0 -88 17t-35 50q-1 33 17 55q18 21 40 21t48 -11q24 -11 46 -19t89 -9q211 1 338 103t127 288q0 246 -400 299q-51 8 -51 41q0 16 5 32t153 421q14 39 41 39l61 -2h113q209 0 265 4
t58 4q23 0 23 -24t-18 -60q-18 -35 -45 -35h-55l-244 2q-76 0 -115 -2t-51 -39q-84 -227 -84 -253z" />
    <glyph glyph-name="six" unicode="6" horiz-adv-x="1071" 
d="M862 492q0 116 -66 186t-176 70t-194 -54t-130 -147q-46 -92 -46 -209t68 -201t204 -84q138 0 239 119t101 320zM991 510q0 -217 -130 -377t-355 -160q-166 -1 -268 101t-102 282t49 352q51 172 141 309q90 138 227 223t297 85q102 0 166 -27q64 -26 63 -68t-23 -64
t-58 -22t-50 36q-29 66 -133 65q-170 0 -298 -143t-200 -344q-27 -74 -27 -87q1 -30 29 3q123 162 345 162q139 0 233 -90t94 -236z" />
    <glyph glyph-name="seven" unicode="7" horiz-adv-x="1071" 
d="M1112 1253q0 -10 -27 -53q-434 -662 -729 -1206q-30 -49 -74 -49t-44 41q0 23 36 84q377 657 678 1060q8 12 9 21q-1 12 -51 15t-218 3t-228 -3q-58 -3 -87 -18t-51 -52t-58 -125q-12 -25 -41 -25t-28 29q0 4 84 264q12 39 63 39l395 -8l346 4q25 0 25 -21z" />
    <glyph glyph-name="eight" unicode="8" horiz-adv-x="1071" 
d="M647 715q12 0 25 4q246 98 246 299q0 86 -54 141t-164 55t-182 -68t-72 -179q0 -147 177 -246q12 -6 24 -6zM546 627q-15 0 -28 -6q-137 -51 -209 -122q-71 -71 -71 -187t70 -185q70 -70 199 -70q128 0 213 75t85 200q0 178 -232 289q-12 6 -27 6zM934 342
q0 -162 -125 -263t-311 -101t-286 92q-99 94 -99 223q0 270 340 371q27 8 26 20q0 8 -18 18q-139 96 -139 253t111 247t271 90t249 -72t89 -196q0 -225 -292 -344q-18 -8 -19 -18q0 -10 10 -17q97 -57 145 -138t48 -165z" />
    <glyph glyph-name="nine" unicode="9" horiz-adv-x="1071" 
d="M297 807q0 -115 68 -181t177 -65q109 -1 194 59q175 122 175 355q1 117 -67 193t-206 77q-138 -1 -240 -119q-101 -118 -101 -319zM168 788q0 217 130 377t355 160q171 0 271 -96q100 -95 100 -277t-47 -353q-104 -380 -355 -540q-136 -86 -300 -86q-106 0 -177 28
q-70 28 -69 81q0 36 22 58t55 22q32 0 58 -43q39 -66 158 -66q299 0 479 498q36 100 19 100q-7 0 -21 -16q-56 -74 -148 -118t-216 -44t-220 85q-94 85 -94 230z" />
    <glyph glyph-name="colon" unicode=":" horiz-adv-x="485" 
d="M397 818q-1 -44 -29 -74t-71 -30t-67 26q-24 24 -24 68t32 74t70 30t64 -25q25 -25 25 -69zM281 87q0 -44 -29 -74q-29 -29 -72 -29q-42 0 -66 24t-24 69q0 44 31 74q31 29 70 29t65 -24t25 -69z" />
    <glyph glyph-name="semicolon" unicode=";" horiz-adv-x="485" 
d="M-20 -387q-30 1 -29 35q0 14 22 28q84 49 147 117q62 68 62 133t-69 109q-33 23 -33 59t26 61q27 25 78 25t86 -51t35 -119q0 -111 -77 -209t-197 -168q-37 -20 -51 -20zM397 818q-1 -44 -29 -74t-71 -30t-67 26q-24 24 -24 68t32 74t70 30t64 -25q25 -25 25 -69z" />
    <glyph glyph-name="less" unicode="&#x3c;" horiz-adv-x="1314" 
d="M248 488q0 17 2 26l12 53q6 23 27 33l862 387q25 12 38 12t13 -12t-6 -35l-12 -47q-6 -23 -27 -31l-780 -346l624 -338q19 -7 7 -57l-9 -33q-8 -23 -24 -22q-4 0 -23 6l-692 383q-12 4 -12 21z" />
    <glyph glyph-name="equal" unicode="=" horiz-adv-x="1314" 
d="M1090 326h-920q-25 0 -25 16q0 4 5 25l8 39q6 27 35 26h921q20 0 21 -18q0 -6 -2 -19l-11 -45q-5 -24 -32 -24zM1167 655h-919q-25 0 -25 19q0 4 4 24l9 37q6 29 32 29h922q23 0 22 -19q0 -8 -2 -18l-10 -45q-6 -27 -33 -27z" />
    <glyph glyph-name="greater" unicode="&#x3e;" horiz-adv-x="1314" 
d="M194 78q-24 0 -8 41l13 55q6 18 26 29l779 346l-623 338q-12 8 -12 18t6 35l8 39q6 23 25 22q6 0 20 -8l694 -381q14 -8 14 -18t-3 -27l-15 -59q-4 -20 -26 -31l-861 -387q-25 -12 -37 -12z" />
    <glyph glyph-name="question" unicode="?" horiz-adv-x="884" 
d="M453 87q0 -44 -28 -74q-28 -29 -72 -29q-43 0 -67 24t-24 69q0 44 31 74q31 29 70 29t65 -24t25 -69zM385 356q-47 0 -47 114t61 190t215 149q227 111 228 307q0 78 -51 131t-142 53q-201 0 -227 -147q-2 -10 -4 -40t-8 -42q-20 -39 -74 -39q-63 0 -64 72q0 102 104 188
t290 86q135 0 222 -74t87 -178q0 -135 -71 -221t-257 -178q-73 -37 -111 -59t-79 -68q-41 -45 -41 -94l8 -103q0 -47 -39 -47z" />
    <glyph glyph-name="at" unicode="@" horiz-adv-x="1699" 
d="M1139 739q-1 74 -141 74t-253 -131q-75 -84 -117 -195t-42 -188q0 -109 94 -109t198 96t182 218q79 124 79 235zM838 -276q-301 0 -491 175q-189 175 -189 463q0 377 254 634t610 257q266 0 422 -133t156 -379q0 -247 -148 -443q-147 -196 -330 -196q-96 0 -96 93
q0 53 26 130t27 83q0 6 -9 6t-19 -13q-209 -301 -404 -301q-86 0 -134 50t-48 124q0 197 163 403t408 206q43 -1 90 -15t70 -14t43 41q4 8 5 9l7 14t32 12t26 -18q-1 -18 -41 -132t-90 -290t-50 -238t48 -64q121 0 221 168t100 377t-125 329t-352 120q-307 0 -528 -238
t-222 -571q0 -256 164 -413t446 -157t453 154q37 29 58 29q37 0 36 -31q0 -23 -18 -43q-79 -88 -233 -138t-338 -50z" />
    <glyph glyph-name="A" unicode="A" horiz-adv-x="1394" 
d="M522 628q0 -20 66 -20h270q66 0 66 35q0 6 -4 39l-68 453q-2 20 -12 20q-4 0 -23 -27l-270 -446q-25 -43 -25 -54zM993 147q0 45 -12 134l-31 190q-6 41 -16 52t-41 12h-393q-41 0 -70 -50l-121 -202q-84 -141 -84 -177q0 -43 101 -43q10 0 26 3h17q27 0 26 -25
q0 -43 -35 -43l-254 8l-165 -8q-29 0 -29 29q0 39 37 39q16 0 37 -3q51 0 92 43t123 175q262 424 575 942q37 57 47 96q12 29 37 39l60 18q18 0 18 -24q0 -84 160 -1071q18 -125 47 -179q23 -39 82 -39l37 3q25 0 24 -29q0 -39 -39 -39l-194 8l-258 -8q-31 0 -31 34t36 34
t50 -3q141 0 141 84z" />
    <glyph glyph-name="B" unicode="B" horiz-adv-x="1239" 
d="M336 165q0 -53 58 -69t212 -16q383 0 383 336q0 256 -409 256q-68 0 -103 -4t-45 -45l-76 -322q-20 -84 -20 -136zM469 770q1 -18 19 -22t92 -5q74 1 154 15q323 59 323 317q0 205 -305 205q-98 0 -134 -4t-47 -51l-96 -412q-6 -25 -6 -43zM27 -2q-27 0 -27 34t31 34
q18 0 39 -3q78 0 110 41t64 187l178 772q25 109 24 164q0 66 -102 65l-51 -2q-27 0 -27 27q0 41 37 41q6 0 80 -6t168 -6l248 8q205 0 298 -72t93 -188q0 -285 -346 -371q-10 -4 -10 -10t10 -8q135 -19 208 -93t72 -178q0 -223 -163 -330q-164 -106 -412 -106l-297 10
q-119 0 -170 -5q-52 -5 -55 -5z" />
    <glyph glyph-name="C" unicode="C" horiz-adv-x="1404" 
d="M1330 983q-40 0 -40 33q0 127 -39 186q-63 94 -301 94q-164 0 -294 -62q-244 -116 -333 -406q-42 -132 -42 -277q0 -227 121 -362q122 -134 343 -134q264 0 378 146q17 23 27 36q9 13 30 48q20 35 26 45q12 28 42 28t30 -26q0 -16 -27 -95t-55 -121t-92 -69
q-164 -72 -389 -72q-285 0 -425 160t-140 406q0 375 235 605q236 230 606 230q180 0 340 -53q49 -16 49 -57l-10 -250q0 -33 -40 -33z" />
    <glyph glyph-name="D" unicode="D" horiz-adv-x="1533" 
d="M336 173q0 -36 19 -51q46 -36 319 -36q328 0 502 192t174 521q0 92 -30 184t-81 141q-160 152 -500 152q-100 0 -134 -20t-52 -105l-197 -854q-20 -88 -20 -124zM0 32q0 34 31 34q18 0 39 -3q86 0 114 42t60 186l178 772q25 109 24 164q0 66 -118 65l-35 -2q-27 0 -27 27
q0 41 37 41q6 0 59 -5t170 -5l240 6q313 0 483 -103q105 -63 167 -176t63 -248q0 -421 -238 -625t-655 -204l-338 8l-227 -8q-27 0 -27 34z" />
    <glyph glyph-name="E" unicode="E" horiz-adv-x="1173" 
d="M1137 1354q32 0 32 -30q0 -18 -3 -43q-3 -26 -9 -85t-12 -111q-2 -31 -37 -31t-35 27q0 111 -29 152q-33 41 -204 41t-222 -4q-39 0 -49 -53l-94 -408q-6 -31 -6 -39q0 -27 72 -27q147 0 217 19q31 12 51 42t45 101q10 31 40 31t30 -23q0 -12 -32 -135t-48 -270
q-4 -27 -36 -27t-32 23l2 49q0 82 -38 99t-228 18q-41 0 -58 -10t-24 -39l-86 -379q-12 -54 -12 -96t61 -54t239 -12t247 35q68 35 109 105q15 26 42 73q14 25 43 25t29 -26t-34 -110t-62 -134t-76 -50l-615 6l-288 -6q-27 0 -27 34t31 34q18 0 39 -3q80 0 110 40t64 188
l178 772q25 109 24 164q0 66 -104 65l-49 -2q-27 0 -27 27q0 41 37 41q6 0 84 -5t207 -5z" />
    <glyph glyph-name="F" unicode="F" horiz-adv-x="1130" 
d="M508 649q-41 0 -57 -10t-23 -39l-70 -305q-20 -88 -20 -152q0 -80 133 -80l57 3q23 0 23 -31q0 -37 -37 -37q-6 0 -48 3t-104 6t-116 3q-56 0 -106 -3t-80 -6t-33 -3q-27 0 -27 34t31 34q18 0 39 -3q80 0 110 40t64 188l178 772q25 109 24 164q0 66 -104 65l-49 -2
q-27 0 -27 27q0 41 37 41q6 0 84 -5t207 -5l559 6q23 0 32 -6t9 -24t-3 -43q-3 -26 -9 -85q-6 -58 -10 -100t-35 -41q-39 0 -39 26q0 111 -29 152q-33 41 -213 41t-238 -4q-39 -4 -49 -53l-98 -429q-6 -31 -6 -38q0 -27 72 -27q168 0 217 16q55 16 96 146q10 31 40 31
t30 -23q0 -12 -32 -137t-48 -269q-4 -27 -36 -27t-32 23l2 49q0 82 -35 101q-37 16 -231 16z" />
    <glyph glyph-name="G" unicode="G" horiz-adv-x="1521" 
d="M1342 983q-40 0 -39 29q-4 137 -35 184q-63 100 -336 100q-202 0 -354 -106t-224 -267t-71 -345q0 -238 131 -380t364 -142t322 79q39 33 58 137t20 144q0 76 -88 76l-66 -3q-27 0 -27 31q1 16 11 30t21 13q11 0 66 -5t165 -5t147 5t41 5q35 0 35 -28q0 -45 -33 -46
q-17 -1 -58 1q-40 2 -70 -34t-50 -163t-21 -146l9 -55q0 -33 -42 -38t-94 -19q-215 -59 -368 -60q-295 0 -451 160t-155 404q0 360 228 599t605 238q209 0 360 -55q49 -17 49 -51t-3 -114l-7 -140q0 -33 -40 -33z" />
    <glyph glyph-name="H" unicode="H" horiz-adv-x="1587" 
d="M481 -2q-6 0 -40 3t-88 6t-109 3q-56 0 -106 -3t-79 -6t-32 -3q-27 0 -27 34t31 34q18 0 39 -3q80 0 110 40t64 188l178 772q25 109 24 164q0 66 -118 65l-35 -2q-27 0 -27 27q0 41 37 41q6 0 72 -6t141 -6q76 0 126 3t79 6t33 3q26 0 26 -34t-30 -34l-39 2
q-80 0 -111 -40t-65 -193l-54 -234q-8 -33 -8 -47q0 -20 23 -25t102 -5h535q61 0 77 4q31 6 39 45l62 266q25 106 24 164q0 66 -118 65l-35 -2q-27 0 -27 34t31 34q6 0 41 -3t89 -6t109 -3t105 3t80 6q29 3 32 3q27 0 27 -34t-31 -34l-39 2q-81 0 -111 -40t-65 -193
l-176 -766q-25 -106 -24 -172q0 -57 123 -58l34 3q27 0 27 -31q0 -37 -37 -37q-6 0 -40 3t-88 6t-109 3t-105 -3t-80 -6q-29 -3 -33 -3q-27 0 -27 34t32 34q20 0 38 -3q80 0 111 40t64 188l69 305q6 25 6 39q0 33 -78 33h-548q-98 0 -120 -6t-28 -39l-76 -330
q-25 -109 -24 -168q0 -61 123 -62l35 3q27 0 26 -31q0 -37 -37 -37z" />
    <glyph glyph-name="I" unicode="I" horiz-adv-x="700" 
d="M483 -2q-6 0 -41 3t-89 6t-109 3q-56 0 -106 -3t-79 -6t-32 -3q-27 0 -27 34t31 34q18 0 39 -3q80 0 110 40t64 188l178 772q25 109 24 164q0 66 -118 65l-35 -2q-27 0 -27 27q0 41 37 41q6 0 74 -6t142 -6q75 0 125 3t79 6t33 3q26 0 26 -34t-30 -34l-39 2
q-80 0 -111 -40t-65 -193l-177 -766q-25 -109 -24 -168q0 -61 123 -62l35 3q27 0 26 -31q0 -37 -37 -37z" />
    <glyph glyph-name="J" unicode="J" horiz-adv-x="712" 
d="M-207 -188q0 37 22 55q23 18 51 18q28 1 52 -23t88 -24q137 0 201 156q53 129 250 1067q23 111 22 164q0 68 -114 67l-52 -2q-27 0 -26 27q0 41 37 41q6 0 80 -6t166 -6q93 0 148 6q54 6 58 6q29 0 29 -34t-31 -34l-39 2q-75 0 -103 -37t-61 -191t-83 -410
q-50 -255 -80 -398q-63 -293 -203 -408q-139 -116 -275 -115q-137 1 -137 79z" />
    <glyph glyph-name="K" unicode="K" horiz-adv-x="1363" 
d="M483 -2q-6 0 -41 3t-89 6t-109 3q-56 0 -106 -3t-79 -6t-32 -3q-27 0 -27 34t31 34q18 0 39 -3q80 0 110 40t64 188l178 772q25 109 24 164q0 66 -118 65l-35 -2q-27 0 -27 27q0 41 37 41q6 0 74 -6t142 -6q75 0 125 3t79 6t33 3q26 0 26 -34t-30 -34l-39 2
q-80 0 -111 -40t-65 -193l-177 -766q-25 -109 -24 -168q0 -61 123 -62l35 3q27 0 26 -31q0 -37 -37 -37zM657 675q0 -15 25 -50q102 -170 191 -286t131 -157t93 -80q50 -39 99 -39l53 5q27 0 27 -29t-32 -36t-112 -7t-159 53q-80 53 -207 241t-174 270q-47 81 -86 110
q-16 14 -16 34t54 32q54 11 91 42q94 74 334 312q129 128 129 162t-68 34l-39 -2q-23 0 -23 22q1 49 38 52l88 -6q86 -6 140 -6t118 6t69 6q31 0 31 -33q0 -41 -41 -41l-39 2q-91 -6 -303 -211q-53 -51 -204 -190t-179 -167t-29 -43z" />
    <glyph glyph-name="L" unicode="L" horiz-adv-x="1173" 
d="M332 146q0 -42 61 -54t241 -12t244 34q65 34 114 113q15 25 44 76q14 25 43 25t29 -38t-96 -243q-23 -49 -76 -49l-621 6l-288 -6q-27 0 -27 34t31 34q18 0 39 -3q80 0 110 40t64 188l178 772q25 109 24 164q0 66 -118 65l-35 -2q-27 0 -27 27q0 41 37 41q6 0 72 -6
t141 -6q76 0 131 3t90 6t39 3q27 0 27 -34t-31 -34l-49 2q-80 0 -118 -38t-73 -193l-188 -819q-12 -54 -12 -96z" />
    <glyph glyph-name="M" unicode="M" horiz-adv-x="1853" 
d="M1190 -2q-25 0 -25 34t33 34t45 -3q87 0 111 34t52 163t82 425q54 295 72 395t19 107q0 7 -8 7t-21 -18q-63 -100 -267 -434t-293 -471q-90 -138 -118 -185t-30 -51t-4 -6t-4 -6q-2 -5 -4 -7t-6 -4q-15 -10 -31 -10q-33 0 -33 45q-6 109 -54 477t-90 654q-4 23 -14 22
q-16 0 -18 -18q-23 -88 -119 -446t-120 -456q-24 -99 -23 -151q0 -66 110 -66l35 3q27 0 27 -29q0 -39 -41 -39q-4 0 -74 6q-69 6 -141 6t-117 -3t-72 -6t-33 -3q-32 0 -32 34t32 34t45 -3q70 0 105 39q35 33 78 177q160 535 239 841q12 53 13 99q0 66 -95 65l-61 -2
q-23 0 -23 23q0 53 41 53l191 -10l153 8q16 0 22 -6t9 -23q10 -193 21 -266q86 -692 102 -795q4 -18 11 -18q15 0 221 340t288 466q82 128 162 273q16 29 55 29l148 -8l164 10q29 0 28 -27q0 -47 -35 -47l-47 2q-76 0 -115 -37t-63 -194q-10 -69 -139 -766q-18 -98 -18 -156
q0 -70 108 -70l39 3q25 0 25 -29q0 -39 -41 -39q-6 0 -41 3q-209 18 -383 0q-29 -3 -33 -3z" />
    <glyph glyph-name="N" unicode="N" horiz-adv-x="1587" 
d="M453 -2q-6 0 -74 6q-69 6 -143 6t-121 -3t-73 -6t-32 -3q-25 0 -24 31q0 37 37 37q16 0 34 -3q76 0 111 41q31 49 61 175q209 840 209 893t-8 69q-31 51 -125 51l-35 -2q-27 0 -26 29q0 39 39 39l143 -8l119 8q39 0 51 -29q39 -76 131 -274t216 -436q123 -239 157 -305
t44 -66t15 16q35 136 95 414t81 382q20 104 21 171q0 61 -101 61l-53 -2q-25 0 -24 29q0 39 39 39q4 0 69 -6t141 -6t120 3t68 6t30 3q33 0 32 -29q0 -39 -37 -39l-53 2q-67 0 -93 -36t-77 -242t-221 -1004q-4 -24 -12 -30t-30 -6t-30 16q-209 441 -569 1138q-8 16 -19 16
t-16 -14q-216 -869 -218 -975q0 -40 18 -66q20 -26 100 -26l45 3q25 0 24 -27q0 -41 -36 -41z" />
    <glyph glyph-name="O" unicode="O" horiz-adv-x="1462" 
d="M868 1313q-301 0 -473 -312q-111 -199 -110 -499q0 -190 104 -326t295 -137q137 1 248 65t172 177q133 240 133 596q-4 184 -98 310t-271 126zM1380 836q0 -168 -49 -339t-147 -290q-197 -236 -504 -236q-246 0 -387 150t-141 420q0 143 42 285t115 247q217 307 565 307
q242 0 374 -142t132 -402z" />
    <glyph glyph-name="P" unicode="P" horiz-adv-x="1159" 
d="M459 704q1 -16 19 -27t116 -11q347 0 438 175q39 73 39 183t-79 180q-79 72 -240 72q-98 0 -131 -4q-39 -4 -50 -51l-108 -471q-4 -30 -4 -46zM496 -2q-6 0 -44 3t-96 6t-112 3q-56 0 -106 -3t-79 -6t-32 -3q-27 0 -27 34t31 34q18 0 39 -3q80 0 110 40t64 188l178 772
q25 109 24 164q0 66 -118 65l-35 -2q-27 0 -27 27q0 41 37 41q6 0 68 -5t182 -5l250 6q205 0 304 -85t99 -218q0 -236 -168 -350t-438 -113l-137 4q-37 0 -47 -47l-58 -252q-25 -111 -24 -156q0 -74 133 -74l39 3q27 0 26 -31q0 -37 -36 -37z" />
    <glyph glyph-name="Q" unicode="Q" horiz-adv-x="1462" 
d="M868 1313q-301 0 -473 -312q-111 -199 -110 -499q0 -190 104 -326t295 -137q137 1 248 65t172 177q133 240 133 596q-4 184 -98 310t-271 126zM1380 836q0 -168 -49 -339t-147 -290q-135 -162 -334 -213q-23 -6 -23 -18t30 -28t163 -95t246 -121q219 -84 489 -84
q152 0 270 53q55 25 63 25t19 -12t11 -32q0 -18 -27 -32q-182 -84 -398 -84t-379 44t-256 98t-260 156t-241 118q-406 86 -405 559q0 143 42 285t115 247q217 307 565 307q242 0 374 -142t132 -402z" />
    <glyph glyph-name="R" unicode="R" horiz-adv-x="1335" 
d="M467 746q1 -42 109 -43q348 -2 436 160q37 69 37 175t-74 172t-225 66q-96 0 -129 -4q-39 -4 -50 -51l-100 -433q-4 -25 -4 -42zM481 -2q-6 0 -40 3t-88 6t-109 3q-56 0 -106 -3t-79 -6t-32 -3q-27 0 -27 34t31 34q18 0 39 -3q80 0 110 40t64 188l178 772q23 98 22 151
q0 72 -108 72l-43 -2q-27 0 -27 31q0 43 39 43q6 0 68 -5t180 -5l221 6q207 0 308 -87t102 -220q0 -181 -120 -283t-298 -115q-10 0 -10 -7t10 -11q57 -25 121 -175t162 -311q59 -98 159 -98l45 4q23 -1 23 -27t-24 -36t-72 -11q-156 -1 -228 89t-148 286t-104 230
q-37 47 -122 49q-37 2 -105 2q-37 0 -47 -45l-68 -295q-25 -109 -24 -168q0 -61 123 -62l35 3q27 0 26 -31q0 -37 -37 -37z" />
    <glyph glyph-name="S" unicode="S" horiz-adv-x="1036" 
d="M918 362q0 -102 -41 -180q-74 -140 -266 -189q-83 -22 -182 -22t-193 30t-136 65q-18 14 -22 51q-12 188 -12 221q0 41 42 41t42 -37q6 -115 43 -184q23 -41 93 -74t154 -33q158 0 257 72t99 210t-169 263l-166 125q-180 139 -180 295q0 186 132 274t324 88
q125 0 264 -43q49 -14 50 -53q-1 -4 -7 -78t-6 -147q0 -33 -43 -33q-37 0 -37 43q0 111 -24 156q-43 76 -225 75q-133 0 -223 -59t-91 -186q0 -127 162 -250l166 -125q195 -147 195 -316z" />
    <glyph glyph-name="T" unicode="T" horiz-adv-x="1318" 
d="M1042 1276q-136 0 -160 -11t-40 -83l-207 -901q-34 -159 -12 -183q12 -35 110 -35l47 3q23 0 23 -29q0 -39 -37 -39q-8 0 -82 6t-148 6t-126 -3q-51 -3 -82 -6t-35 -3q-29 0 -29 34t33 34q28 0 43 -3q92 0 122 40t60 176l201 880q14 53 14 75q-1 22 -23 32t-172 10
t-205 -42q-56 -42 -93 -159q-12 -31 -43 -31t-31 29q0 8 22 73t52 175q8 37 39 37q2 0 80 -6t417 -6t417 3q79 3 112 4t49 2t24 1q31 0 31 -37q1 -10 -21 -110q-22 -99 -26 -134q-2 -31 -38 -31t-36 29l8 84q0 51 -18 77t-61 34t-179 8z" />
    <glyph glyph-name="U" unicode="U" horiz-adv-x="1564" 
d="M674 -29q-227 1 -336 101t-109 274q1 114 29 234q28 119 63 254q34 135 62 255t12 164q-18 39 -98 39l-43 -2q-23 0 -23 29q0 39 39 39q6 0 74 -6t142 -6q75 0 124 3t78 6t35 3q31 0 31 -34t-31 -34l-47 2q-78 0 -114 -38t-73 -183q-7 -37 -33 -133t-39 -154t-40 -179
q-27 -120 -27 -222q0 -152 85 -237t257 -85q121 0 213 32t147 76q54 44 97 127t84 221t121 558q14 72 14 150q0 68 -106 67l-45 -2q-25 0 -25 31q0 37 37 37l244 -12q49 0 113 6t69 6q37 0 37 -25q0 -43 -39 -43l-43 2q-51 -2 -91 -39t-73 -180q-12 -49 -68 -295t-61 -278
q-61 -264 -209 -396t-434 -133z" />
    <glyph glyph-name="V" unicode="V" horiz-adv-x="1386" 
d="M552 -23q-31 0 -38 60q-2 18 -6 56t-139 984q-21 137 -43 176t-84 39l-41 -2q-23 0 -23 25q0 41 35 41l201 -10l231 8q33 0 33 -33t-33 -33l-43 2q-59 0 -91 -18t-32 -76t8 -121l109 -776q10 -84 24 -84t62 80l473 780q80 131 80 163q1 32 -19 43t-81 11l-43 -2
q-23 0 -23 27q0 39 39 39l221 -10l195 10q27 0 26 -29q0 -17 -11 -27t-26 -10l-36 2q-51 0 -86 -41q-35 -35 -135 -193t-334 -532t-320 -510q-24 -39 -50 -39z" />
    <glyph glyph-name="W" unicode="W" horiz-adv-x="1976" 
d="M1104 1077q-6 1 -43 -63t-257 -450t-255 -450t-60 -98q-25 -39 -53 -39t-33 31q-5 32 -25 436t-30 596t-26 223q-16 30 -72 29l-39 -2q-23 0 -23 29q0 39 37 39q4 0 73 -6t122 -6t104 3t83 6t40 3q35 0 35 -31q0 -37 -39 -37l-47 2q-72 0 -102 -28t-31 -107q0 -78 2 -113
l31 -774q2 -53 12 -53t35 45l485 862q12 20 100 187q23 41 48 41q31 0 34 -31q2 -14 5 -48t6 -61l92 -946q4 -43 14 -43t35 49l377 760q78 156 78 195q-1 39 -19 52t-74 13l-47 -2q-31 0 -30 27q0 41 39 41l231 -10l180 10q35 0 35 -31q0 -37 -37 -37l-37 2q-49 0 -77 -25
t-101 -168q-74 -143 -284 -543q-217 -412 -238 -459q-55 -120 -96 -120q-31 0 -37 31q0 37 -12 121t-45 431q-32 347 -42 432t-22 85z" />
    <glyph glyph-name="X" unicode="X" horiz-adv-x="1454" 
d="M872 66q36 0 66 -3q84 0 84 48q0 37 -86 192l-162 287q-23 39 -33 39t-47 -39l-268 -289q-14 -15 -32 -35t-29 -32q-9 -12 -23 -27q-62 -65 -63 -96q0 -31 19 -39t69 -9l57 3q35 0 35 -31q0 -37 -37 -37q-2 0 -81 6t-157 6t-150 -6t-75 -6q-25 0 -25 29q0 39 39 39
q23 0 35 -3q47 0 98 37t213 207l353 375q20 20 20 34t-16 40l-158 282q-92 164 -131 222q-23 33 -76 32l-43 -2q-25 0 -24 27q0 41 41 41q8 0 61 -6t152 -6l219 12q31 0 31 -27q0 -41 -37 -41l-78 2q-78 0 -78 -47q0 -33 94 -198l117 -203q25 -41 32 -41t50 43l186 203
q82 92 114 135q32 42 32 68t-20 33t-64 7l-56 -2q-30 0 -30 34t32 34l84 -6q84 -6 164 -6t140 6t61 6q35 0 35 -27q0 -41 -35 -41l-33 2q-51 0 -106 -43t-211 -207l-273 -288q-22 -23 -22 -35t14 -37l209 -371q90 -162 125 -205t88 -43l39 3q29 0 29 -29q0 -39 -41 -39
q-8 0 -64 6t-155 6l-222 -12q-33 0 -32 29q0 39 36 39z" />
    <glyph glyph-name="Y" unicode="Y" horiz-adv-x="1341" 
d="M651 158q0 -40 11 -60q18 -35 106 -35l35 3q27 0 26 -25q0 -43 -36 -43q-6 0 -70 6q-63 6 -139 6t-128 -3t-84 -6t-36 -3q-25 0 -25 29q0 39 35 39q14 0 35 -3q90 0 118 42t60 186l53 231q8 29 8 48t-12 51l-147 385q-68 178 -113 249q-23 37 -76 37l-36 -2q-29 0 -29 29
q0 15 10 27q9 12 21 12t65 -6t152 -6l221 12q29 0 29 -34t-37 -34l-80 2q-80 0 -80 -46t70 -232l90 -242q27 -72 41 -72q20 0 77 70l209 246q162 193 162 237q0 27 -18 33t-66 6l-59 -2q-29 0 -29 27q0 41 39 41l74 -6q76 -6 156 -6t136 6q58 6 60 6q35 0 35 -33
q0 -19 -11 -27t-24 -8l-33 2q-43 0 -95 -38t-218 -236l-334 -393q-10 -10 -22 -37t-15 -45l-59 -254q-23 -91 -23 -131z" />
    <glyph glyph-name="Z" unicode="Z" horiz-adv-x="1267" 
d="M1325 1327q0 -4 -20 -35q-209 -240 -1045 -1147q-29 -29 -29 -45q-1 -16 65 -17t346 -1t354 44t143 196q14 23 32 22q35 0 35 -29q0 -39 -106 -290q-10 -27 -45 -27l-64 2l-426 2l-520 -2q-33 0 -33 29q0 14 21 34q475 506 1059 1156q23 27 22 36q0 18 -33 19
q-95 2 -327 2t-273 -22t-63 -59q-22 -36 -58 -120q-12 -25 -44 -25t-31 27q-1 10 29 100q30 91 42 131t26 46t44 6l440 -8h198l228 2q33 0 33 -27z" />
    <glyph glyph-name="bracketleft" unicode="[" horiz-adv-x="604" 
d="M168 -168q-6 -29 -6 -40t22 -12t64 -1l106 2q29 0 29 -23q0 -47 -39 -47l-141 2l-144 -2q-25 0 -24 23q0 2 28 116l336 1461q15 59 27 119t14 65q8 37 39 37l144 -2l129 2q35 0 34 -27q0 -43 -45 -43l-106 2q-41 0 -76 -2q-16 0 -22 -35z" />
    <glyph glyph-name="backslash" unicode="\" horiz-adv-x="792" 
d="M670 -4q0 -31 -41 -31t-47 35l-369 1325q-4 16 -4 23q0 39 51 38q31 0 41 -38l363 -1317q6 -12 6 -35z" />
    <glyph glyph-name="bracketright" unicode="]" horiz-adv-x="604" 
d="M483 1450q1 12 -21 13t-65 1l-106 -2q-29 0 -29 23q0 47 39 47l141 -2l144 2q25 0 24 -23q0 -2 -28 -116l-334 -1461q-14 -59 -26 -118t-15 -66q-8 -37 -39 -37l-143 2l-129 -2q-35 0 -35 27q0 43 45 43l106 -2q41 0 76 2q16 0 23 35l366 1595q6 27 6 39z" />
    <glyph glyph-name="asciicircum" unicode="^" horiz-adv-x="1314" 
d="M1014 530q-20 0 -27 21l-151 600l-433 -600q-14 -20 -34 -21h-74q-23 0 -23 15q0 6 13 22l501 682q14 20 35 21h72q23 -1 29 -21l174 -680q4 -12 4 -22q-4 -16 -23 -17h-63z" />
    <glyph glyph-name="underscore" unicode="_" horiz-adv-x="1034" 
d="M938 -236q0 -79 -41 -77h-1034q-27 0 -27 22q0 12 7 46t32 34h1032q31 0 31 -25z" />
    <glyph glyph-name="grave" unicode="`" horiz-adv-x="600" 
d="M230 1464q36 0 65 -63q47 -100 101 -193t55 -112q-4 -23 -33 -23q-18 4 -43 31q-227 249 -225 297q0 29 22 46t58 17z" />
    <glyph glyph-name="a" unicode="a" horiz-adv-x="1136" 
d="M856 770q0 86 -164 86t-313 -186q-86 -106 -138 -238q-93 -238 -22 -326q31 -37 90 -36q102 0 201 86q137 119 242 309q60 115 82 193t22 112zM815 133q0 -68 49 -67q39 0 86 34t79 75q32 42 38 75q2 27 31 26q31 0 30 -30q0 -20 -30 -66q-50 -86 -138 -146t-161 -61
q-86 0 -94 88q0 80 45 230q2 6 5 17q3 12 6 20t3 10q0 10 -11 10t-20 -14q-61 -98 -82 -125q-178 -238 -377 -238q-92 -1 -145 53t-53 144q0 242 184 477q221 283 475 283q61 0 93 -10t53 -18q21 -7 33 -7q27 0 42 45q14 45 46 45t32 -27q0 -10 -64 -197
q-154 -448 -155 -626z" />
    <glyph glyph-name="b" unicode="b" horiz-adv-x="1058" 
d="M864 713q0 123 -96 123q-123 0 -252 -129t-198 -273t-68 -254q0 -125 153 -125q225 0 375 297q86 168 86 361zM983 762q0 -242 -137 -467q-92 -150 -222 -236t-264 -86q-88 1 -149 51t-61 134t38 220t139 477t131 447t29 142q0 59 -96 74q-20 2 -20 26t18 27
q127 25 191 49t67 25q18 0 19 -23q0 -8 -12 -38t-55 -176q-44 -146 -118 -381q-73 -235 -108 -332t-35 -103t9 -6t13 8q78 136 203 240t258 104q74 0 118 -46t44 -130z" />
    <glyph glyph-name="c" unicode="c" horiz-adv-x="837" 
d="M215 254q0 -84 47 -141t137 -57t163 45t106 99t34 62q6 29 33 29q13 0 25 -9t12 -30t-20 -47q-162 -233 -410 -234q-112 0 -178 72t-66 188q0 269 166 489t395 220q83 0 135 -31t52 -82t-23 -73t-53 -23q-53 0 -63 47q0 90 -111 88q-82 0 -169 -72t-149 -216t-63 -324z
" />
    <glyph glyph-name="d" unicode="d" horiz-adv-x="1150" 
d="M860 758q0 37 -29 61q-51 41 -138 41t-173 -52t-145 -132q-186 -252 -187 -473q0 -57 30 -95t91 -38q192 0 386 298q93 142 147 294q18 59 18 96zM1253 1622q0 -8 -49 -144t-178 -564q-129 -427 -168 -573q-39 -147 -39 -211t47 -64t117 55t92 133q6 22 33 22t27 -26
q0 -16 -17 -45q-55 -98 -148 -165t-171 -67q-88 0 -88 85t53 257q6 19 6 27t-10 8t-23 -14q-43 -69 -80 -121q-178 -244 -383 -244q-94 1 -146 61t-52 150q0 205 162 447q96 143 221 221t241 78t152 -18q38 -18 54 -17q16 0 30 39l113 373q27 88 26 139q-4 33 -24 49t-72 25
q-21 2 -21 26t19 27q127 25 191 49t67 25q18 0 18 -23z" />
    <glyph glyph-name="e" unicode="e" horiz-adv-x="851" 
d="M258 525q0 -15 18 -15q8 0 25 4q213 54 314 118t102 148q-1 94 -105 94t-201 -97t-147 -224q-6 -13 -6 -28zM213 252q0 -80 48 -138t145 -59q166 0 264 142q16 23 32 63q10 33 35 33q35 0 35 -33q0 -27 -22 -61q-145 -227 -398 -228q-118 0 -186 73t-68 179q0 164 70 321
t182 263q142 137 314 137t172 -141q0 -133 -142 -209q-166 -90 -420 -143q-39 -8 -45 -41q-16 -78 -16 -158z" />
    <glyph glyph-name="f" unicode="f" horiz-adv-x="647" 
d="M-256 -610q-84 0 -126 30t-42 64t20 58q20 22 49 22q28 0 42 -30q32 -68 125 -67t163 78q125 135 246 691t121 569q0 14 -14 14l-148 -2q-23 0 -22 17q0 39 30 45q104 12 134 26q28 7 50 59t64 212q68 244 208 356t312 113q102 -1 146 -41t45 -76q0 -36 -26 -60
q-26 -23 -63 -22t-49 44q-22 81 -122 81q-57 0 -117 -35t-96 -82q-88 -113 -142 -306t-55 -239q0 -14 19 -14l180 4q31 0 31 -29q0 -53 -54 -53l-184 2q-14 0 -18 -18q-97 -448 -111 -514q-52 -262 -114 -434t-107 -242q-142 -221 -375 -221z" />
    <glyph glyph-name="g" unicode="g" horiz-adv-x="940" 
d="M29 -324q1 -104 111 -166t279 -61q169 0 260 74t91 157t-76 136q-142 94 -284 94t-277 -72q-104 -58 -104 -162zM709 710q1 79 -49 125t-132 46q-128 0 -204 -122t-76 -245q0 -70 48 -126t140 -56t159 67q114 116 114 311zM256 129q0 -80 164 -115q270 -55 365 -123
q95 -69 95 -191t-123 -220q-125 -98 -355 -98t-357 84t-127 194q0 152 186 236q96 44 150 52q56 9 55 19q0 10 -18 15q-154 35 -154 120q0 92 142 150q35 12 34 24q0 8 -18 17q-156 72 -156 244q0 173 116 289t286 116q109 0 196 -57q42 -32 84 10q61 63 121 63q88 0 88 -65
q0 -45 -22 -71t-55 -26q-34 0 -60 20q-26 19 -49 20q-33 0 -33 -60l10 -80q0 -203 -137 -323q-72 -59 -199 -103q-112 -28 -157 -53q-72 -35 -72 -88z" />
    <glyph glyph-name="h" unicode="h" horiz-adv-x="1193" 
d="M380 547q7 0 13 10q70 111 150 197q180 190 358 190q115 0 121 -96q0 -66 -106 -367t-107 -370q0 -45 43 -45t93 34t82 81q32 48 37 72q5 23 33 23q27 0 27 -33t-67 -113q-67 -81 -139 -119t-127 -38q-98 0 -99 90q0 63 104 346t103 367q0 60 -74 60t-159 -62
q-135 -96 -258 -289q-86 -135 -134 -323q-10 -39 -10 -123q0 -49 -45 -49q-78 0 -78 47q0 15 13 61q14 46 150 500t186 630q50 175 51 216q-5 33 -25 49t-72 25q-20 2 -20 26t18 27q127 25 191 49t67 25q18 0 19 -23l-346 -1067q0 -8 7 -8z" />
    <glyph glyph-name="i" unicode="i" horiz-adv-x="671" 
d="M285 111q0 -45 43 -45t93 34t82 81q32 48 37 72q4 23 32 23t28 -32t-68 -113q-68 -82 -142 -120q-73 -38 -124 -38q-98 0 -98 90q2 61 104 352t103 349q0 58 -10 70q-10 14 -38 14t-68 -27t-62 -63q-23 -36 -27 -58t-32 -22t-27 27q0 20 18 47q55 90 137 141t146 51
q84 0 84 -94q0 -74 -106 -370t-105 -369zM514 1237q-74 0 -76 74q0 49 27 78t61 29t54 -21t21 -61t-23 -70t-64 -29z" />
    <glyph glyph-name="j" unicode="j" horiz-adv-x="579" 
d="M520 1397q82 0 82 -78q0 -39 -26 -68t-64 -29t-62 22t-24 62t29 65q29 26 65 26zM-225 -606q-72 0 -105 31q-26 20 -26 51t18 48t45 17q27 1 53 -33t96 -34q72 0 144 88q102 127 305 919q55 209 55 275t-10 78q-10 14 -38 14t-68 -27t-62 -63t-26 -60q-4 -20 -32 -20
t-28 27q0 20 19 47q55 90 137 141t137 51t75 -23q19 -23 19 -95q1 -72 -107 -474t-182 -590t-183 -278q-110 -90 -236 -90z" />
    <glyph glyph-name="k" unicode="k" horiz-adv-x="1140" 
d="M553 558q0 -22 22 -71q106 -223 179 -333q51 -82 99 -82t89 30q83 62 94 150q4 31 31 31q35 0 35 -38q0 -37 -58 -117q-110 -153 -229 -153q-63 0 -115 69t-204 392q-24 50 -46 64t-22 24t29 47q184 221 364 322q100 53 174 53q109 0 115 -78q0 -36 -25 -66t-57 -30
t-44 28q-13 28 -58 28t-92 -21q-139 -63 -242 -182q-39 -45 -39 -67zM217 -10q-74 0 -74 45t367 1270q29 92 29 139q-5 33 -25 49t-72 25q-20 2 -20 26t18 27q131 27 194 50t64 24q20 0 21 -21q0 -10 -48 -148t-149 -462q-260 -836 -260 -936l2 -39q0 -49 -47 -49z" />
    <glyph glyph-name="l" unicode="l" horiz-adv-x="632" 
d="M270 111q0 -45 43 -45t94 33q50 34 80 83q33 47 38 71q5 23 33 23t28 -31t-74 -122q-63 -74 -136 -112t-124 -38q-100 0 -100 90q2 73 137 523t211 719q20 76 20 137t-96 76q-20 2 -20 26t18 27q132 27 194 50t66 24q18 0 18 -23q0 -8 -39 -124t-110 -358t-125 -424
q-54 -180 -106 -358q-50 -178 -50 -247z" />
    <glyph glyph-name="m" unicode="m" horiz-adv-x="1710" 
d="M146 678q-36 0 -35 29q0 13 10 32q57 97 143 151t157 54t71 -65q0 -49 -18 -105t-45 -134q-28 -77 -28 -83q1 -6 9 -6t18 14q61 100 137 191q150 182 314 182q47 0 77 -28t29 -85t-33 -157t-32 -108q0 -7 9 -7t17 12q235 371 477 371q49 0 82 -27t33 -76t-36 -149
q-36 -99 -56 -156q-122 -338 -121 -413q0 -49 43 -49t92 34q94 66 119 150q8 27 29 26q32 0 32 -34t-69 -114q-69 -81 -141 -118t-123 -37q-98 0 -99 82q0 45 104 349t103 368q0 25 -16 40t-43 15q-94 0 -189 -84q-141 -125 -243 -313t-111 -330q-2 -47 -2 -64
q0 -18 -12 -32t-31 -14q-78 0 -78 49q0 36 60 227q60 192 90 310t30 200q0 53 -66 53t-163 -88q-141 -135 -247 -328t-107 -374q0 -49 -43 -49q-78 0 -78 49q0 28 78 273q78 246 106 340q27 94 27 144q0 52 -45 52q-35 0 -76 -28t-70 -79q-12 -27 -17 -45t-23 -18z" />
    <glyph glyph-name="n" unicode="n" horiz-adv-x="1210" 
d="M287 54q0 -64 -43 -64q-76 0 -76 50t78 286q78 235 103 323q26 87 26 143t-43 56q-31 0 -72 -27t-63 -63q-23 -36 -27 -58t-32 -22t-27 27q0 20 18 47q55 88 138 140t155 52t71 -68t-87 -301q-4 -12 -4 -18t8 -6q10 0 16 10q74 115 137 187q168 190 357 190q51 0 84 -26
q32 -26 32 -70t-24 -118q-24 -75 -103 -299q-80 -224 -84 -314q0 -45 43 -45q44 0 94 34t80 77q30 44 37 73q6 26 34 26t28 -34t-84 -131q-127 -137 -250 -138q-98 0 -98 90q1 45 103 341t101 368q-1 57 -69 57t-152 -57q-162 -115 -295 -342q-61 -106 -102 -276
q-8 -36 -8 -100z" />
    <glyph glyph-name="o" unicode="o" horiz-adv-x="978" 
d="M786 665q0 99 -46 158t-138 60q-141 0 -254 -160q-137 -195 -137 -471q0 -90 47 -154t141 -63q152 0 254 162q65 101 99 235t34 233zM897 633q1 -277 -151 -469t-353 -193q-141 0 -218 91t-77 247q0 272 176 475q143 162 336 162q135 0 211 -85t76 -228z" />
    <glyph glyph-name="p" unicode="p" horiz-adv-x="1157" 
d="M297 141q0 -31 33 -47q55 -26 141 -26t169 46q187 104 271 357q45 135 45 251t-104 116q-202 0 -420 -342q-78 -121 -121 -275q-14 -49 -14 -80zM369 793q0 55 -39 55t-81 -28q-41 -28 -63 -68t-24 -58t-30 -16q-28 0 -28 24q0 16 13 39q49 87 137 145t156 58
q78 0 77 -76q0 -59 -75 -272q-4 -12 -4 -18t10 -6t18 12q203 354 467 354q92 0 134 -53t42 -135q0 -242 -159 -463q-211 -295 -492 -295q-66 0 -112 7t-52 7q-14 0 -22 -29q-119 -403 -118 -444q0 -41 22 -51t67 -10l55 2q25 0 25 -33t-29 -33l-74 4q-74 4 -139 4l-186 -8
q-27 0 -27 29q0 37 35 37l41 -2q47 0 73 36t64 164q143 502 231 761t87 360z" />
    <glyph glyph-name="q" unicode="q" horiz-adv-x="1120" 
d="M879 780q1 72 -169 72t-302 -162q-219 -268 -220 -504q0 -117 119 -116q220 0 461 411q76 135 94 189t17 110zM1021 981q32 0 32 -25q0 -8 -11 -34q-293 -988 -342 -1174t-49 -225q0 -51 84 -51l49 2q27 0 27 -29q0 -37 -35 -37l-201 8l-219 -8q-24 0 -24 33t28 33l54 -4
q74 0 100 38t90 250q62 212 170 568l6 24q0 10 -10 10t-16 -12q-138 -223 -288 -312q-108 -65 -196 -65t-141 48t-53 141q0 223 200 494t457 272q68 0 121 -15l78 -16q14 0 23 12t26 49q8 25 40 25z" />
    <glyph glyph-name="r" unicode="r" horiz-adv-x="870" 
d="M392 549q7 0 14 12q76 151 176 265t213 114q43 0 73 -20t29 -56q0 -36 -18 -64q-17 -26 -51 -26t-50 20t-61 21q-45 0 -94 -47q-184 -172 -298 -518q-34 -101 -35 -154t-8 -80t-40 -26q-76 0 -76 46t60 234t94 305q32 117 32 213q0 59 -49 60q-78 0 -139 -94
q-20 -33 -24 -55t-31 -21q-29 0 -29 29q0 18 18 45q60 94 142 143t151 49t71 -73q1 -73 -71 -291q0 -5 -6 -23q0 -8 7 -8z" />
    <glyph glyph-name="s" unicode="s" horiz-adv-x="731" 
d="M341 37q91 0 147 45t57 106q0 117 -193 263q-86 65 -116 119t-29 116q0 114 89 186t215 72t177 -53q29 -33 29 -71q-1 -38 -21 -56t-55 -18t-45 26q0 2 -6 39q-10 66 -104 66q-94 -1 -138 -47q-45 -46 -45 -91t5 -67t40 -66q36 -44 126 -114t130 -130t39 -122
q0 -100 -88 -186q-89 -86 -237 -85q-148 0 -224 72q-51 51 -51 113q0 78 74 77q25 0 39 -13t14 -32l-2 -43q2 -43 42 -75t131 -31z" />
    <glyph glyph-name="t" unicode="t" horiz-adv-x="651" 
d="M268 125q0 -59 66 -59q49 0 115 53t88 117q2 8 4 14t2 8q7 25 33 25t26 -25q0 -18 -16 -49q-56 -100 -146 -168t-172 -68q-111 0 -116 99q0 78 96 385t96 350q0 12 -16 12l-133 -2q-23 1 -23 17t8 27t89 18q94 8 126 71q9 16 15 28t18 39q12 28 23 46q23 49 50 49t27 -18
l-51 -189q0 -12 25 -12l176 4q27 0 27 -23q0 -57 -62 -57l-168 2q-20 0 -26 -20q-65 -207 -123 -403t-58 -271z" />
    <glyph glyph-name="u" unicode="u" horiz-adv-x="1210" 
d="M866 123q0 -31 10 -44t37 -13q96 0 183 141q14 23 20 41q6 28 34 28t28 -24t-17 -49q-57 -98 -146 -164t-159 -66q-88 0 -94 93q0 88 106 393q4 12 4 17t-9 5t-15 -12q-31 -66 -93 -158q-225 -333 -460 -336q-55 0 -90 30t-35 85q0 94 116 370t117 349q0 43 -38 43
q-31 0 -71 -27t-66 -65t-29 -68q-4 -22 -33 -22t-29 26t29 66q68 94 144 138t134 44q68 0 74 -70q0 -90 -119 -368t-119 -353t72 -75q100 0 246 139q76 74 182 245t160 343q16 49 16 78q0 49 54 49t55 -39q0 -29 -131 -455q-68 -223 -68 -315z" />
    <glyph glyph-name="v" unicode="v" horiz-adv-x="1101" 
d="M418 944q68 0 69 -77q0 -77 -89 -346t-89 -357q0 -45 27 -70t63 -24q97 0 185 45q150 76 252 251q102 174 102 290t-46 180t-46 86t25 45q26 23 59 22q48 0 74 -76t26 -170q0 -182 -99 -363t-256 -295t-317 -114q-68 0 -112 37q-44 38 -45 100q0 62 16 128t87 280t71 285
q0 47 -43 47q-31 0 -71 -26q-71 -46 -91 -124q-4 -20 -29 -20q-31 0 -30 29q0 20 24 55q61 88 138 135t145 47z" />
    <glyph glyph-name="w" unicode="w" horiz-adv-x="1589" 
d="M156 678q-34 0 -35 30q0 16 26 56q59 88 137 134t146 46t68 -73t-104 -361t-103 -342q0 -54 20 -74t47 -20q104 0 225 131q242 264 287 665q4 54 58 54t55 -37q0 -18 -51 -222t-51 -466q0 -59 28 -93q29 -33 68 -32q102 0 210 96q109 96 175 236q128 269 12 438
q-41 58 -41 78t28 44t62 23q47 0 71 -74q24 -73 24 -193t-58 -263q-112 -273 -339 -419q-103 -67 -186 -67t-118 42q-35 43 -35 137t14 166t13 84q0 13 -10 14q-10 0 -15 -13q-86 -193 -218 -313t-251 -119q-131 0 -131 129q0 48 8 72t13 48q6 24 15 56t22 65q12 33 26 77
t66 196t51 181q0 53 -45 53q-29 0 -68 -24t-57 -54t-39 -80q-4 -12 -20 -12z" />
    <glyph glyph-name="x" unicode="x" horiz-adv-x="1062" 
d="M825 86q59 0 103 78q26 43 28 78t31 34q29 0 29 -32q0 -20 -27 -78q-84 -182 -207 -182q-88 0 -130 96t-113 305q-5 16 -17 16t-20 -14q-74 -110 -211 -274q-45 -53 -107 -93t-116 -38q-104 0 -105 79q-1 31 19 51t44 21q24 0 44 -13q22 -14 59 -14t121 77t235 280
q17 24 4 51q-45 138 -86 232t-103 94t-101 -76q-4 -6 -23 -64q-8 -23 -35 -22q-25 0 -24 27q0 16 18 53q100 188 215 188q72 0 116 -99t93 -265q8 -23 17 -23t20 14q113 156 186 242q115 131 216 131t102 -76q0 -31 -20 -51t-48 -20q-26 0 -44 13t-40 13q-53 0 -113 -59
t-214 -252q-18 -23 -19 -33l6 -24q105 -371 217 -371z" />
    <glyph glyph-name="y" unicode="y" horiz-adv-x="1150" 
d="M1024 727q0 -187 -60 -413t-124 -376q-66 -150 -155 -279q-89 -128 -209 -201q-120 -72 -247 -72t-182 30t-55 65q0 36 18 55q18 20 48 20t53 -31q45 -66 127 -66t147 31q262 123 471 789q4 12 4 19t-7 7t-13 -8q-227 -324 -498 -324q-70 0 -112 35t-42 94q0 106 96 362
t97 333q0 51 -47 51q-25 0 -64 -25q-67 -43 -96 -131q-6 -16 -32 -16t-26 26t25 58q129 184 275 184q78 0 78 -76q0 -94 -100 -358t-99 -356q0 -80 90 -80q143 0 290 130q253 225 253 478q0 107 -39 162q-39 56 -39 78t26 45t58 22q54 0 72 -88t18 -174z" />
    <glyph glyph-name="z" unicode="z" horiz-adv-x="915" 
d="M296 928q58 0 222 -14t245 -15q81 0 100 8q19 7 35 29t32 22q33 0 33 -32q0 -10 -17 -33q-176 -213 -490 -494q-97 -86 -259 -223q-14 -12 -15 -22q0 -14 27 -15q81 1 261 -35t238 -36t82 30t35 111q6 29 34 29t28 -27q0 -59 -56 -178q-37 -80 -161 -80q-48 0 -258 50
t-272 50t-95 -35q-19 -18 -31 -18t-23 10t-11 26t32 48q200 192 724 674q26 24 26 38t-23 13l-325 10q-90 1 -132 -23t-63 -106q-6 -22 -32 -22t-25 22q0 6 11 35t27 86q15 57 21 74q17 43 75 43z" />
    <glyph glyph-name="braceleft" unicode="{" horiz-adv-x="657" 
d="M332 463q0 -77 -36 -224t-48 -203t-12 -115q0 -58 34 -102t97 -44l39 2q33 0 32 -23q0 -45 -76 -45q-244 0 -243 201q0 60 13 116t53 211t40 216q0 135 -123 151q-35 6 -34 29q0 39 53 45q170 20 219 233q45 227 66 312q38 175 122 243t246 68q55 0 55 -33q0 -41 -47 -41
l-47 2q-94 0 -138 -48t-77 -200q-34 -152 -64 -271q-30 -121 -75 -187t-141 -107q-14 -6 -15 -12q0 -8 13 -12q94 -47 94 -162z" />
    <glyph glyph-name="bar" unicode="|" horiz-adv-x="516" 
d="M64 -334q-48 0 -48 31q0 6 7 31l421 1806q6 25 18 34t50 9q37 0 37 -27q0 -12 -6 -43l-424 -1802q-7 -39 -55 -39z" />
    <glyph glyph-name="braceright" unicode="}" horiz-adv-x="657" 
d="M467 607q0 7 -12 11q-94 47 -95 162q0 85 50 269t50 258q1 73 -34 117t-96 44l-39 -2q-33 0 -33 23q0 45 76 45q244 0 244 -201q0 -61 -14 -121t-56 -209q-41 -150 -41 -212q0 -135 123 -152q35 -6 35 -29q0 -39 -54 -45q-170 -20 -219 -233l-30 -150t-33 -162
q-37 -174 -122 -242t-247 -69q-55 0 -55 33q0 41 47 41l47 -2q94 0 138 48t75 183q42 204 68 306t71 168t142 108q14 6 14 13z" />
    <glyph glyph-name="asciitilde" unicode="~" horiz-adv-x="1314" 
d="M230 420q-12 0 -19 8l-31 29q-8 8 -8 17t12 26q152 172 299 172q43 0 88 -20t155 -86t160 -66t93 30t84 75q41 46 54 46t22 -8l32 -27q18 -18 -4 -41q-147 -176 -297 -176q-92 0 -215 83t-192 83q-96 0 -207 -131q-14 -14 -26 -14z" />
    <glyph glyph-name="exclamdown" unicode="&#xa1;" horiz-adv-x="647" 
d="M238 843q0 43 28 73t71 30t67 -24t24 -69q0 -44 -31 -74q-31 -29 -70 -29t-64 24t-25 69zM274 541q37 0 37 -33q0 -10 -45 -204t-114 -652q-20 -100 -91 -101q-72 0 -71 58q0 35 10 73t96 323t112 393t33 126q8 17 33 17z" />
    <glyph glyph-name="cent" unicode="&#xa2;" horiz-adv-x="1005" 
d="M262 281q0 -66 29 -121t84 -76q8 -4 18 -4t15 20l161 711q4 15 4 27t-15 12t-19 -2q-66 -30 -125 -94t-95 -160q-57 -159 -57 -313zM377 -203q-33 0 -33 27q0 10 4 26l23 97q4 16 4 28t-23 17q-96 14 -154 88t-59 182q0 246 150 463q57 82 135 136t156 67q18 4 22 22
l37 158q6 25 19 35q9 6 26 6q33 0 33 -25q0 -8 -4 -24l-31 -125q-4 -17 -4 -29t52 -12t111 -31q60 -31 60 -82q0 -90 -74 -92q-57 0 -61 47q-4 37 -21 61t-71 23q-18 0 -25 -20l-166 -736q-2 -8 -2 -16q0 -14 23 -14h8l8 2q64 8 126 50t88 82t36 64q10 29 33 29q12 0 24 -9
q30 -23 -8 -75q-129 -190 -340 -223q-25 -4 -28 -27l-31 -129q-8 -29 -19 -35q-10 -6 -24 -6z" />
    <glyph glyph-name="sterling" unicode="&#xa3;" horiz-adv-x="1210" 
d="M1095 260q38 0 38 -45q-1 -74 -91 -171t-217 -97t-460 98q-25 7 -78 27t-91 20t-74 -32t-56 -31q-37 0 -37 41q0 31 45 51q52 27 122 43t132 98t86 161t24 105t-22 25h-168q-29 0 -29 31q0 53 43 53h166q23 0 27 22q0 146 10 234q23 197 137 302q115 105 320 105
q132 0 206 -50t74 -133t-80 -83q-37 0 -55 18q-19 18 -23 64q-4 47 -36 82t-132 35t-181 -68t-101 -239t-19 -269q0 -20 23 -20h252q29 0 29 -42t-41 -42h-254q-23 0 -27 -21q-20 -102 -59 -178t-129 -149q-18 -12 -19 -25q0 -12 23 -15t209 -47t290 -44t138 34q33 34 39 82
l4 37q4 33 42 33z" />
    <glyph glyph-name="currency" unicode="&#xa4;" horiz-adv-x="948" 
d="M756 570q0 112 -70 187t-172 75t-172 -78q-70 -76 -70 -184t72 -178t170 -68q98 0 170 67t72 179zM846 573q0 -104 -60 -186q-6 -10 -6 -21t11 -22l75 -72q32 -27 -3 -62q-17 -17 -33 -17t-29 12l-78 80q-7 10 -19 10t-24 -8q-80 -43 -175 -43t-167 41q-10 6 -20 6
t-19 -12l-63 -68q-40 -40 -71 -6q-32 34 -1 63l74 74q10 10 10 20t-6 19q-62 86 -62 190t62 187q8 12 8 21t-10 20l-76 71q-12 12 -12 28t22 38q23 20 37 20t25 -14l67 -78q9 -12 21 -12t20 6q88 53 183 53t165 -49q8 -6 18 -6t21 12l60 66q27 27 41 27q14 -1 32 -17
q39 -33 6 -63l-77 -78q-9 -9 -9 -21t7 -20q55 -85 55 -189z" />
    <glyph glyph-name="yen" unicode="&#xa5;" horiz-adv-x="1341" 
d="M1432 1282q28 0 28 -35t-35 -35l-34 2q-67 0 -141 -77q-43 -44 -97 -109q-55 -65 -74 -86l-159 -180q-14 -14 -15 -23q0 -12 19 -12h221q35 0 35 -31q0 -49 -47 -49h-297q-16 0 -31 -16l-51 -60q-27 -34 -27 -75q0 -14 18 -15h342q35 0 35 -30q0 -49 -43 -50h-352
q-25 0 -31 -24l-20 -90q-23 -93 -23 -133t9 -56q18 -35 102 -35l37 3q25 0 24 -23q0 -49 -34 -49q-6 0 -37 3q-203 20 -373 2q-29 -3 -33 -3q-33 0 -33 35t35 35q19 0 37 -3q84 0 113 41q31 37 63 185l17 69q4 16 4 30t-19 13h-346q-33 0 -33 29q0 51 52 51h340q38 -1 38 49
q0 22 -6 37l-24 62q-6 18 -27 18h-285q-29 0 -28 31q0 49 45 49h221q27 0 27 16q0 8 -2 15l-68 172q-74 195 -113 252q-20 31 -84 30l-34 -2q-23 0 -23 31q0 41 41 41q8 0 62 -6t151 -6l213 12q33 0 33 -31q0 -39 -39 -39l-80 2q-80 0 -80 -51l2 -31q0 -10 5 -25t9 -29
t8 -20t9 -24q6 -18 10 -27t13 -33t16 -36l90 -225q20 -51 34 -51t56 47l199 231q162 188 161 240q0 22 -18 28t-63 6l-62 -2q-25 0 -24 27q0 43 36 43l76 -6q76 -6 156 -6t138 6t65 6z" />
    <glyph glyph-name="brokenbar" unicode="&#xa6;" horiz-adv-x="516" 
d="M74 -307q-47 0 -47 31q0 6 6 30l155 678q6 25 18 34t50 9q37 0 37 -26q0 -12 -6 -43l-158 -674q-8 -39 -55 -39zM312 713q-48 0 -48 30q0 6 6 31l156 678q6 25 18 34t49 9t37 -27q0 -12 -6 -43l-157 -673q-7 -39 -55 -39z" />
    <glyph glyph-name="section" unicode="&#xa7;" horiz-adv-x="937" 
d="M538 264q19 0 46 10q78 25 118 78q40 54 41 110t-37 118t-124 145t-112 109t-38 26q-14 0 -39 -10q-154 -66 -153 -180q0 -60 32 -114t110 -143q79 -89 108 -119t48 -30zM641 -8q0 -146 -110 -230t-249 -84q-138 0 -212 58t-74 137q0 33 18 55t49 21q57 1 65 -67t28 -89
q39 -47 137 -47t167 67t68 158q0 133 -196 340q-109 115 -153 188t-44 159t69 150q69 65 171 93q20 3 20 19t-8 26q-47 68 -47 154q0 137 107 212q108 74 236 74t203 -49t75 -122t-68 -72q-51 0 -62 65q-7 45 -33 78t-123 33t-163 -50t-66 -136q0 -135 177 -302
q139 -131 182 -205t43 -155q0 -82 -67 -153t-183 -99q-20 -6 -20 -24q0 -8 6 -21q57 -94 57 -182z" />
    <glyph glyph-name="dieresis" unicode="&#xa8;" horiz-adv-x="593" 
d="M449 1325q77 0 77 -76q0 -37 -26 -65t-61 -27t-57 21t-22 57t27 63t62 27zM156 1325q77 0 77 -76q-1 -37 -27 -65t-60 -27t-56 21t-22 57t26 63t62 27z" />
    <glyph glyph-name="copyright" unicode="&#xa9;" horiz-adv-x="1648" 
d="M909 1044q-162 0 -255 -118t-93 -278t73 -248q72 -88 200 -89q128 0 194 74q20 23 64 104q14 25 32 25q27 0 27 -25q0 -10 -19 -64q-18 -54 -32 -82t-58 -44q-106 -49 -229 -49q-186 0 -275 108t-89 269q0 201 136 341t349 140q113 0 213 -31q31 -10 31 -37l-7 -170
q-1 -22 -29 -22t-32 24q-12 88 -31 115q-43 57 -170 57zM1497 680q0 274 -178 461q-179 186 -451 186t-454 -186q-182 -185 -182 -459t184 -462q186 -188 454 -187q268 0 448 186q179 187 179 461zM1567 686q0 -301 -201 -509t-500 -208q-300 0 -502 205t-202 505t206 504
q206 203 502 203t496 -200q201 -200 201 -500z" />
    <glyph glyph-name="ordfeminine" unicode="&#xaa;" horiz-adv-x="651" 
d="M549 1042q0 52 -94 52t-172 -103q-51 -67 -81 -147t-30 -146t61 -65q111 0 235 199q81 130 81 210zM644 1184q28 0 28 -19q0 -7 -34 -111q-94 -286 -95 -392q1 -33 37 -33t79 59q17 24 23 44t26 20t21 -21q1 -14 -23 -53t-77 -77t-97 -38q-68 0 -67 55q0 75 27 138
q4 12 4 18t-8 6t-21 -24q-12 -24 -35 -54q-100 -139 -227 -139q-55 0 -88 33t-33 88q0 147 109 291q131 174 286 174q33 0 70 -12l31 -11q12 0 17 8t13 25q6 25 34 25z" />
    <glyph glyph-name="guillemotleft" unicode="&#xab;" horiz-adv-x="905" 
d="M782 203q0 -13 -10 -21t-19 -8t-117 104t-206 193q-18 13 -18 33t39 45q270 161 353 223t93 62q25 0 25 -27q0 -8 -33 -40t-309 -249q-12 -10 -12 -19t14 -27t107 -137q93 -118 93 -132zM209 499q0 -9 14 -27q13 -18 107 -136t94 -133q0 -29 -31 -29q-9 0 -117 104
t-204 193q-18 15 -18 35t38 41q188 117 314 202t133 85q25 0 24 -27q0 -10 -26 -37q-61 -51 -316 -252q-12 -10 -12 -19z" />
    <glyph glyph-name="logicalnot" unicode="&#xac;" horiz-adv-x="1314" 
d="M993 39h-57q-23 0 -23 20q0 6 7 31l92 410h-834q-23 0 -22 18v21l10 41q8 27 31 26h923q25 0 25 -18l-117 -516q-10 -33 -35 -33z" />
    <glyph glyph-name="uni00AD" unicode="&#xad;" horiz-adv-x="567" 
d="M451 434h-353q-31 0 -30 23q0 25 11 57t42 31h354q33 0 33 -25q0 -86 -57 -86z" />
    <glyph glyph-name="registered" unicode="&#xae;" horiz-adv-x="1648" 
d="M770 762q0 -33 61 -33q119 0 190 38t71 146q0 66 -39 107t-125 41q-41 0 -69 -6t-34 -39l-49 -217q-6 -20 -6 -37zM1247 317q0 -36 -91 -36t-138 65q-25 33 -63 152q-37 118 -61 144t-58 29t-60 3t-35 -31l-39 -176q-10 -51 -10 -80q0 -45 88 -45l27 2q20 0 20 -29
t-26 -28l-187 8l-141 -8q-27 1 -27 29t27 28l33 -2q44 0 66 28t40 107l99 443q14 57 14 86q0 53 -70 53l-28 -2q-27 0 -27 24q0 33 33 33l164 -4l147 4q132 0 194 -52t62 -141t-65 -150q-66 -60 -170 -79q-30 -4 -7 -22q47 -29 70 -92q55 -145 76 -179q41 -66 86 -65l39 4
q18 0 18 -21zM1497 680q0 274 -178 461q-179 186 -451 186t-454 -186q-182 -185 -182 -459t184 -462q186 -188 454 -187q268 0 448 186q179 187 179 461zM1567 686q0 -301 -201 -509t-500 -208q-300 0 -502 205t-202 505t206 504q206 203 502 203t496 -200
q201 -200 201 -500z" />
    <glyph glyph-name="macron" unicode="&#xaf;" horiz-adv-x="595" 
d="M537 1198q0 -72 -60 -72h-373q-45 0 -45 35q0 76 60 76h373q45 0 45 -39z" />
    <glyph glyph-name="degree" unicode="&#xb0;" horiz-adv-x="563" 
d="M614 1141q0 76 -39 119t-105 43t-108 -43t-43 -120q0 -77 41 -119q42 -42 106 -42t106 43t42 119zM698 1143q0 -106 -69 -170q-70 -63 -167 -63t-163 60q-66 62 -66 168t69 170t165 64t164 -61q67 -62 67 -168z" />
    <glyph glyph-name="plusminus" unicode="&#xb1;" horiz-adv-x="1314" 
d="M1036 0h-921q-23 0 -23 18q0 10 4 23l8 39q6 27 33 26h922q23 0 22 -18q0 -6 -4 -27l-8 -34q-6 -27 -33 -27zM643 262h-53q-25 0 -25 23q0 8 4 24l88 387h-403q-25 0 -25 17q0 6 4 22l11 41q6 25 32 25h406l94 409q6 27 29 27h59q25 0 25 -16q0 -6 -6 -31l-88 -389h403
q23 0 23 -17q0 -6 -2 -18l-11 -45q-6 -25 -34 -25h-404l-90 -403q-6 -31 -37 -31z" />
    <glyph glyph-name="twosuperior" unicode="&#xb2;" 
d="M139 819q-23 -1 -23 23t29 39q264 157 383 277t119 245q0 143 -149 143q-78 0 -114 -35t-48 -67t-37 -33q-25 1 -25 23t17 47q78 133 237 133q215 0 215 -211q0 -174 -247 -363q-61 -45 -177 -116q-12 -8 -12 -16t121 -7q121 0 156 8q35 7 47 23t24 55q4 23 28 23t24 -17
q0 -23 -15 -55q-18 -72 -22 -100q-4 -18 -27 -19l-250 6q-159 0 -202 -3q-44 -3 -52 -3z" />
    <glyph glyph-name="threesuperior" unicode="&#xb3;" 
d="M713 1085q1 -143 -143 -221t-314 -78q-76 0 -76 45q0 55 49 56q16 -1 39 -13t66 -12q281 0 280 205q0 66 -37 111t-99 45t-93 -13q-25 -6 -31 -6q-23 0 -22 29q0 29 47 34t110 29q63 29 102 64q38 35 38 96q0 96 -99 96q-61 0 -116 -39q-20 -17 -32 -41t-38 -24
q-25 0 -25 25q0 16 23 43q94 98 219 98q80 0 121 -40t41 -97q0 -127 -180 -195q-10 -4 -11 -10q0 -10 11 -10q86 -6 128 -56t42 -121z" />
    <glyph glyph-name="acute" unicode="&#xb4;" horiz-adv-x="600" 
d="M152 1073q-14 0 -24 8q-9 8 -9 20t87 115t126 162t86 60q63 0 63 -58q-1 -32 -59 -90t-229 -194q-27 -23 -41 -23z" />
    <glyph glyph-name="mu" unicode="&#xb5;" horiz-adv-x="1263" 
d="M-25 -485q1 16 133 376t180 475t101 264t53 179q0 43 -39 43q-31 0 -71 -27t-64 -65q-26 -38 -30 -68q-4 -22 -33 -22t-29 26t29 66q67 94 143 138t135 44q68 0 74 -70q0 -84 -118 -363q-117 -279 -117 -352t71 -73q123 0 248 131q72 74 177 245t161 343q16 49 16 78
q0 49 54 49q55 0 55 -34t-131 -460q-68 -223 -68 -315q0 -31 9 -44t38 -13q96 0 183 141q14 23 20 41q6 28 34 28t28 -24t-17 -49q-57 -98 -146 -164t-159 -66q-88 0 -94 93q0 88 106 393q4 12 4 17t-9 5t-15 -12q-33 -68 -91 -159q-121 -190 -258 -280q-72 -46 -148 -46
t-101 41q-11 18 -21 18q-10 -1 -18 -23t-28 -84l-40 -124q-44 -129 -54 -202q-9 -73 -28 -101q-18 -27 -86 -27q-40 0 -39 33z" />
    <glyph glyph-name="paragraph" unicode="&#xb6;" horiz-adv-x="1046" 
d="M635 256q0 27 -33 27l-67 -2q-141 0 -242 101q-100 101 -100 263q0 258 186 412t481 176q33 4 51 33q43 63 81 92q38 28 96 28t57 -46q0 -46 -53 -50q-80 -8 -114 -44t-50 -116l-228 -985q-27 -113 -43 -174t-56 -146t-93 -142q-170 -186 -371 -187q-68 0 -67 45
q0 66 61 68l88 -15q96 0 179 81q84 81 132 199t76 248t29 134z" />
    <glyph glyph-name="periodcentered" unicode="&#xb7;" horiz-adv-x="440" 
d="M326 558q0 -44 -29 -74t-72 -30t-67 26q-24 24 -23 68q0 44 31 74t70 30q38 0 64 -26q26 -24 26 -68z" />
    <glyph glyph-name="cedilla" unicode="&#xb8;" horiz-adv-x="583" 
d="M473 -278q0 -108 -98 -177q-98 -68 -223 -67q-43 0 -43 35q-1 35 65 35t132 36q66 37 65 111q0 37 -25 57t-82 35q-26 6 -26 38t96 183h57q-53 -90 -55 -111t18 -30q119 -37 119 -145z" />
    <glyph glyph-name="onesuperior" unicode="&#xb9;" 
d="M619 1620q17 0 17 -15t-10 -55q-11 -40 -44 -170l-90 -387q-12 -55 -13 -82q0 -41 70 -41l33 2q18 0 18 -18q0 -35 -35 -35l-147 8q-43 0 -101 -4l-57 -4q-22 0 -22 27t24 26l37 -2q53 0 74 27q20 31 35 94l86 379q16 66 16 113q0 23 -29 22l-71 -4q-18 0 -18 24t24 25
q82 10 157 54q29 16 46 16z" />
    <glyph glyph-name="ordmasculine" unicode="&#xba;" horiz-adv-x="727" 
d="M621 987q0 129 -117 129q-82 0 -154 -96q-82 -113 -82 -287q0 -55 29 -92t88 -37q92 0 156 96q80 125 80 287zM707 967q0 -168 -103 -293q-90 -115 -225 -115q-88 0 -141 56t-54 151q0 170 111 295q86 98 219 98q86 0 140 -52t53 -140z" />
    <glyph glyph-name="guillemotright" unicode="&#xbb;" horiz-adv-x="905" 
d="M494 537q18 -14 18 -35t-39 -41q-170 -103 -305 -195t-141 -92q-25 0 -25 27q0 12 31 40t311 248q12 9 12 19t-14 28q-198 249 -200 273q0 10 10 17q10 8 19 8t117 -104t206 -193zM500 809q0 10 10 17q10 8 19 8t117 -104t206 -193q18 -15 18 -35t-39 -41
q-188 -117 -314 -202t-132 -85q-25 0 -25 27q0 10 27 37q61 51 315 251q24 16 4 40q-19 24 -86 109q-68 85 -94 123t-26 48z" />
    <glyph glyph-name="onequarter" unicode="&#xbc;" horiz-adv-x="1585" 
d="M1298 637q-6 0 -20 -14q-123 -129 -221 -229q-99 -100 -99 -109q0 -8 15 -9h217q29 0 35 23q78 327 79 333q0 5 -6 5zM1196 -31q-41 0 -41 23q0 8 4 24l35 146q6 25 6 28q0 14 -22 15h-328q-29 0 -29 24q0 14 21 33q313 317 510 520q24 20 46 20t21 -20q0 -6 -28 -131
l-78 -336q-4 -16 -4 -25t16 -9h78q20 -1 20 -17t-6 -39q-6 -18 -31 -18h-79q-18 0 -23 -25l-43 -182q-4 -31 -45 -31zM324 1210q0 24 24 25q82 10 152 49t69 4q0 -14 -11 -53t-44 -170l-90 -387q-12 -55 -12 -86q0 -37 69 -37l33 2q18 0 18 -18q0 -35 -34 -35l-148 8
q-43 0 -100 -4l-57 -4q-23 0 -23 26t25 27l36 -2q53 0 74 27q20 31 35 94l86 379q16 66 16 112q0 23 -28 23l-72 -4q-18 0 -18 24zM402 -4q-32 0 -31 20q0 10 16 35l795 1182q20 33 50 33t30 -23q0 -14 -13 -29l-800 -1189q-15 -29 -47 -29z" />
    <glyph glyph-name="onehalf" unicode="&#xbd;" horiz-adv-x="1585" 
d="M866 0q-22 0 -22 24t28 37q264 158 383 278t119 245q0 143 -149 143q-78 0 -114 -35t-52 -78q-8 -22 -33 -22t-25 22t17 48q78 133 237 133q215 0 215 -211q0 -174 -247 -363q-61 -45 -125 -85t-64 -44q0 -8 36 -9t150 -1t138 32q12 15 24 54q4 22 28 22t24 -16
q0 -23 -15 -55q-18 -72 -22 -101q-4 -18 -27 -18l-250 6q-158 0 -203 -3t-51 -3zM332 1210q0 24 24 25q82 9 134 39t70 30t18 -14q0 -16 -12 -55t-44 -170l-90 -387q-12 -55 -12 -86q0 -37 69 -37l33 2q18 0 19 -18q0 -35 -35 -35l-148 8q-43 0 -100 -4l-57 -4q-23 0 -23 26
t25 27l37 -2q53 0 73 29t35 92l86 379q16 66 17 112q0 23 -29 23l-72 -4q-18 0 -18 24zM402 -4q-32 0 -31 20q0 10 16 35l795 1182q20 33 50 33t30 -23q0 -14 -13 -29l-800 -1189q-15 -29 -47 -29z" />
    <glyph glyph-name="threequarters" unicode="&#xbe;" horiz-adv-x="1585" 
d="M1298 637q-6 0 -20 -14q-123 -129 -221 -229q-99 -100 -99 -109q0 -8 15 -9h217q29 0 35 23q78 327 79 333q0 5 -6 5zM1196 -31q-41 0 -41 23q0 8 4 24l35 146q6 25 6 28q0 14 -22 15h-328q-29 0 -29 24q0 14 21 33q313 317 510 520q24 20 46 20t21 -20q0 -6 -28 -131
l-78 -336q-4 -16 -4 -25t16 -9h78q20 -1 20 -17t-6 -39q-6 -18 -31 -18h-79q-18 0 -23 -25l-43 -182q-4 -31 -45 -31zM678 770q0 -143 -143 -221t-314 -78q-76 0 -76 45q0 55 50 55q17 0 39 -12t65 -12q281 0 281 205q0 66 -38 110t-100 45q-62 0 -89 -9q-28 -9 -34 -9
q-23 0 -22 29q0 30 47 34t111 29q63 29 101 63t38 97q0 96 -98 96q-61 0 -117 -39q-19 -16 -33 -40t-35 -25q-27 0 -26 24q0 16 22 43q94 98 219 98q80 0 121 -40t41 -97q0 -127 -180 -194q-10 -5 -10 -13t10 -8q86 -6 128 -56t42 -120zM430 -4q-31 0 -31 20q0 10 17 35
l794 1182q20 33 50 33t30 -23q0 -14 -12 -29l-801 -1189q-16 -29 -47 -29z" />
    <glyph glyph-name="questiondown" unicode="&#xbf;" horiz-adv-x="884" 
d="M508 841q0 43 28 73t72 30t67 -24t23 -69q0 -44 -30 -74q-30 -29 -70 -29q-38 0 -64 24t-26 69zM580 571q43 1 43 -113q1 -114 -61 -190t-216 -149q-227 -111 -227 -307q0 -78 50 -131t142 -54q201 0 228 148q2 10 4 40t8 42q18 39 74 39q63 0 63 -72q0 -102 -103 -188
t-290 -87q-135 0 -222 75t-87 177q0 135 73 224q75 88 235 167t204 126q43 48 47 128l-8 78q0 47 43 47z" />
    <glyph glyph-name="Agrave" unicode="&#xc0;" horiz-adv-x="1394" 
d="M1040 1471q0 -29 -32 -29q-14 0 -45 22q-133 97 -242 191q-45 45 -45 74t23 47q24 18 54 18t76 -57q143 -178 191 -228q20 -25 20 -38zM522 628q0 -20 66 -20h270q66 0 66 35q0 6 -4 39l-68 453q-2 20 -12 20q-4 0 -23 -27l-270 -446q-25 -43 -25 -54zM993 147
q0 45 -12 134l-31 190q-6 41 -16 52t-41 12h-393q-41 0 -70 -50l-121 -202q-84 -141 -84 -177q0 -43 101 -43q10 0 26 3h17q27 0 26 -25q0 -43 -35 -43l-254 8l-165 -8q-29 0 -29 29q0 39 37 39q16 0 37 -3q51 0 92 43t123 175q262 424 575 942q37 57 47 96q12 29 37 39
l60 18q18 0 18 -24q0 -84 160 -1071q18 -125 47 -179q23 -39 82 -39l37 3q25 0 24 -29q0 -39 -39 -39l-194 8l-258 -8q-31 0 -31 34t36 34t50 -3q141 0 141 84z" />
    <glyph glyph-name="Aacute" unicode="&#xc1;" horiz-adv-x="1394" 
d="M778 1442q-22 0 -22 24t24 41q135 102 220 172t116 70q62 0 64 -70q-1 -30 -60 -69q-147 -92 -233 -130t-109 -38zM522 628q0 -20 66 -20h270q66 0 66 35q0 6 -4 39l-68 453q-2 20 -12 20q-4 0 -23 -27l-270 -446q-25 -43 -25 -54zM993 147q0 45 -12 134l-31 190
q-6 41 -16 52t-41 12h-393q-41 0 -70 -50l-121 -202q-84 -141 -84 -177q0 -43 101 -43q10 0 26 3h17q27 0 26 -25q0 -43 -35 -43l-254 8l-165 -8q-29 0 -29 29q0 39 37 39q16 0 37 -3q51 0 92 43t123 175q262 424 575 942q37 57 47 96q12 29 37 39l60 18q18 0 18 -24
q0 -84 160 -1071q18 -125 47 -179q23 -39 82 -39l37 3q25 0 24 -29q0 -39 -39 -39l-194 8l-258 -8q-31 0 -31 34t36 34t50 -3q141 0 141 84z" />
    <glyph glyph-name="Acircumflex" unicode="&#xc2;" horiz-adv-x="1394" 
d="M1176 1448q0 -31 -31 -31q-12 0 -33 17q-68 68 -124 116t-63 47q-7 0 -28 -10q-143 -106 -217 -155q-34 -30 -52 -5t8 49t263 250q25 25 44 25t36 -22q115 -163 156 -217t41 -64zM522 628q0 -20 66 -20h270q66 0 66 35q0 6 -4 39l-68 453q-2 20 -12 20q-4 0 -23 -27
l-270 -446q-25 -43 -25 -54zM993 147q0 45 -12 134l-31 190q-6 41 -16 52t-41 12h-393q-41 0 -70 -50l-121 -202q-84 -141 -84 -177q0 -43 101 -43q10 0 26 3h17q27 0 26 -25q0 -43 -35 -43l-254 8l-165 -8q-29 0 -29 29q0 39 37 39q16 0 37 -3q51 0 92 43t123 175
q262 424 575 942q37 57 47 96q12 29 37 39l60 18q18 0 18 -24q0 -84 160 -1071q18 -125 47 -179q23 -39 82 -39l37 3q25 0 24 -29q0 -39 -39 -39l-194 8l-258 -8q-31 0 -31 34t36 34t50 -3q141 0 141 84z" />
    <glyph glyph-name="Atilde" unicode="&#xc3;" horiz-adv-x="1394" 
d="M1065 1575q63 0 90 90q8 25 33 25t24 -25q0 -9 -18 -63t-56 -93q-36 -39 -96 -39t-144 48q-85 48 -126 49q-59 0 -100 -92q-8 -19 -33 -19t-25 25q0 8 11 39q68 158 176 157q31 0 120 -51t144 -51zM522 628q0 -20 66 -20h270q66 0 66 35q0 6 -4 39l-68 453q-2 20 -12 20
q-4 0 -23 -27l-270 -446q-25 -43 -25 -54zM993 147q0 45 -12 134l-31 190q-6 41 -16 52t-41 12h-393q-41 0 -70 -50l-121 -202q-84 -141 -84 -177q0 -43 101 -43q10 0 26 3h17q27 0 26 -25q0 -43 -35 -43l-254 8l-165 -8q-29 0 -29 29q0 39 37 39q16 0 37 -3q51 0 92 43
t123 175q262 424 575 942q37 57 47 96q12 29 37 39l60 18q18 0 18 -24q0 -84 160 -1071q18 -125 47 -179q23 -39 82 -39l37 3q25 0 24 -29q0 -39 -39 -39l-194 8l-258 -8q-31 0 -31 34t36 34t50 -3q141 0 141 84z" />
    <glyph glyph-name="Adieresis" unicode="&#xc4;" horiz-adv-x="1394" 
d="M1145 1552q0 -36 -27 -64q-26 -28 -60 -28t-57 20t-22 58q0 37 27 64q28 26 62 26t56 -20t21 -56zM831 1552q-1 -36 -27 -64t-60 -28t-56 20t-22 58q0 37 26 64q27 27 62 26q77 0 77 -76zM522 628q0 -20 66 -20h270q66 0 66 35q0 6 -4 39l-68 453q-2 20 -12 20
q-4 0 -23 -27l-270 -446q-25 -43 -25 -54zM993 147q0 45 -12 134l-31 190q-6 41 -16 52t-41 12h-393q-41 0 -70 -50l-121 -202q-84 -141 -84 -177q0 -43 101 -43q10 0 26 3h17q27 0 26 -25q0 -43 -35 -43l-254 8l-165 -8q-29 0 -29 29q0 39 37 39q16 0 37 -3q51 0 92 43
t123 175q262 424 575 942q37 57 47 96q12 29 37 39l60 18q18 0 18 -24q0 -84 160 -1071q18 -125 47 -179q23 -39 82 -39l37 3q25 0 24 -29q0 -39 -39 -39l-194 8l-258 -8q-31 0 -31 34t36 34t50 -3q141 0 141 84z" />
    <glyph glyph-name="Aring" unicode="&#xc5;" horiz-adv-x="1394" 
d="M821 1596q0 -118 103 -118q50 0 82 38q32 36 32 106q0 106 -100 107q-49 0 -83 -38q-34 -37 -34 -95zM1108 1617q0 -79 -50 -137t-133 -58t-129 45q-46 46 -46 126q0 79 54 135t133 56t125 -44t46 -123zM522 628q0 -20 66 -20h270q66 0 66 35q0 6 -4 39l-68 453
q-2 20 -12 20q-4 0 -23 -27l-270 -446q-25 -43 -25 -54zM993 147q0 45 -12 134l-31 190q-6 41 -16 52t-41 12h-393q-41 0 -70 -50l-121 -202q-84 -141 -84 -177q0 -43 101 -43q10 0 26 3h17q27 0 26 -25q0 -43 -35 -43l-254 8l-165 -8q-29 0 -29 29q0 39 37 39q16 0 37 -3
q51 0 92 43t123 175q262 424 575 942q37 57 47 96q12 29 37 39l60 18q18 0 18 -24q0 -84 160 -1071q18 -125 47 -179q23 -39 82 -39l37 3q25 0 24 -29q0 -39 -39 -39l-194 8l-258 -8q-31 0 -31 34t36 34t50 -3q141 0 141 84z" />
    <glyph glyph-name="AE" unicode="&#xc6;" horiz-adv-x="1986" 
d="M1274 1229q0 8 -11 8t-32 -27l-451 -508q-55 -55 -55 -69q0 -13 9 -19t42 -6h283q57 0 74 29q6 10 16 45l121 522q4 12 4 25zM815 31q1 33 35 35q16 0 37 -3q79 0 107 36t61 180l45 192q6 25 6 37q0 27 -41 27h-393q-41 0 -90 -50l-174 -202q-129 -145 -129 -181
q0 -20 15 -29t64 -10l66 3q25 0 25 -31q0 -39 -37 -39l-254 8l-193 -8q-43 0 -43 29q0 41 41 41q29 0 41 -3q49 0 98 43t168 173q713 776 852 938q20 23 20 45t-20 24q-43 6 -84 6l-55 -2q-25 0 -25 27q0 41 37 41q6 0 102 -5t230 -5l631 6q24 0 24 -30q-1 -56 -22 -239
q-2 -31 -37 -31t-35 27q0 115 -30 152q-18 27 -64 34t-156 7t-204 -4q-39 -2 -50 -53l-94 -408q-6 -19 -6 -37t16 -23t117 -5t144 14t63 44t45 103q10 31 40 31t30 -29q0 -6 -29 -118t-51 -281q-4 -27 -36 -27t-32 27l2 59q1 63 -31 83t-235 20q-41 0 -58 -10t-24 -39
l-86 -381q-12 -49 -12 -92q0 -44 61 -56q62 -12 238 -12t236 30t91 70q32 40 72 111q16 27 44 27t28 -26t-35 -110t-63 -137q-29 -47 -76 -47l-613 6l-286 -6q-29 0 -29 33z" />
    <glyph glyph-name="Ccedilla" unicode="&#xc7;" horiz-adv-x="1404" 
d="M1330 983q-40 0 -40 33q0 127 -39 186q-63 94 -301 94q-164 0 -294 -62q-244 -116 -333 -406q-42 -132 -42 -277q0 -227 121 -362q122 -134 343 -134t342 107q55 49 119 168q16 28 44 28t28 -26q0 -16 -27 -95t-55 -121t-92 -69q-160 -70 -359 -72q-29 0 -40 -26
q-23 -45 -23 -61t48 -36q106 -41 106 -148q0 -108 -108 -176t-228 -69q-43 0 -43 38t57 38q90 0 150 37q59 37 59 92t-25 78t-88 39q-28 7 -28 31t30 84t29 63q0 18 -27 23q-233 28 -349 182t-115 377q0 375 235 605q236 230 606 230q180 0 340 -53q49 -16 49 -57l-10 -250
q0 -33 -40 -33z" />
    <glyph glyph-name="Egrave" unicode="&#xc8;" horiz-adv-x="1173" 
d="M518 1729q0 29 24 47t54 18t76 -57q143 -178 190 -228q33 -41 11 -59q-9 -8 -23 -8t-45 22q-133 97 -242 191q-45 45 -45 74zM1137 1354q32 0 32 -30q0 -18 -3 -43q-3 -26 -9 -85t-12 -111q-2 -31 -37 -31t-35 27q0 111 -29 152q-33 41 -204 41t-222 -4q-39 0 -49 -53
l-94 -408q-6 -31 -6 -39q0 -27 72 -27q147 0 217 19q31 12 51 42t45 101q10 31 40 31t30 -23q0 -12 -32 -135t-48 -270q-4 -27 -36 -27t-32 23l2 49q0 82 -38 99t-228 18q-41 0 -58 -10t-24 -39l-86 -379q-12 -54 -12 -96t61 -54t239 -12t247 35q68 35 109 105q15 26 42 73
q14 25 43 25t29 -26t-34 -110t-62 -134t-76 -50l-615 6l-288 -6q-27 0 -27 34t31 34q18 0 39 -3q80 0 110 40t64 188l178 772q25 109 24 164q0 66 -104 65l-49 -2q-27 0 -27 27q0 41 37 41q6 0 84 -5t207 -5z" />
    <glyph glyph-name="Eacute" unicode="&#xc9;" horiz-adv-x="1173" 
d="M714 1442q-22 0 -22 24t25 41q133 102 219 172t117 70q63 0 63 -70q0 -30 -59 -69q-147 -92 -233 -130q-88 -38 -110 -38zM1137 1354q32 0 32 -30q0 -18 -3 -43q-3 -26 -9 -85t-12 -111q-2 -31 -37 -31t-35 27q0 111 -29 152q-33 41 -204 41t-222 -4q-39 0 -49 -53
l-94 -408q-6 -31 -6 -39q0 -27 72 -27q147 0 217 19q31 12 51 42t45 101q10 31 40 31t30 -23q0 -12 -32 -135t-48 -270q-4 -27 -36 -27t-32 23l2 49q0 82 -38 99t-228 18q-41 0 -58 -10t-24 -39l-86 -379q-12 -54 -12 -96t61 -54t239 -12t247 35q68 35 109 105q15 26 42 73
q14 25 43 25t29 -26t-34 -110t-62 -134t-76 -50l-615 6l-288 -6q-27 0 -27 34t31 34q18 0 39 -3q80 0 110 40t64 188l178 772q25 109 24 164q0 66 -104 65l-49 -2q-27 0 -27 27q0 41 37 41q6 0 84 -5t207 -5z" />
    <glyph glyph-name="Ecircumflex" unicode="&#xca;" horiz-adv-x="1173" 
d="M1067 1448q0 -31 -31 -31q-12 0 -32 17q-68 68 -124 116t-64 47q-8 0 -28 -10q-143 -106 -217 -155q-31 -27 -52 -4q-9 12 -9 22t22 30t259 246q25 25 44 25t35 -22q115 -163 156 -217t41 -64zM1137 1354q32 0 32 -30q0 -18 -3 -43q-3 -26 -9 -85t-12 -111
q-2 -31 -37 -31t-35 27q0 111 -29 152q-33 41 -204 41t-222 -4q-39 0 -49 -53l-94 -408q-6 -31 -6 -39q0 -27 72 -27q147 0 217 19q31 12 51 42t45 101q10 31 40 31t30 -23q0 -12 -32 -135t-48 -270q-4 -27 -36 -27t-32 23l2 49q0 82 -38 99t-228 18q-41 0 -58 -10t-24 -39
l-86 -379q-12 -54 -12 -96t61 -54t239 -12t247 35q68 35 109 105q15 26 42 73q14 25 43 25t29 -26t-34 -110t-62 -134t-76 -50l-615 6l-288 -6q-27 0 -27 34t31 34q18 0 39 -3q80 0 110 40t64 188l178 772q25 109 24 164q0 66 -104 65l-49 -2q-27 0 -27 27q0 41 37 41
q6 0 84 -5t207 -5z" />
    <glyph glyph-name="Edieresis" unicode="&#xcb;" horiz-adv-x="1173" 
d="M1008 1552q0 -36 -27 -64t-61 -28t-56 20q-23 20 -22 58q0 37 26 64q27 26 62 26q34 0 56 -20t22 -56zM694 1552q0 -36 -26 -64t-61 -28t-57 20t-22 58q0 37 27 64t61 26q78 0 78 -76zM1137 1354q32 0 32 -30q0 -18 -3 -43q-3 -26 -9 -85t-12 -111q-2 -31 -37 -31t-35 27
q0 111 -29 152q-33 41 -204 41t-222 -4q-39 0 -49 -53l-94 -408q-6 -31 -6 -39q0 -27 72 -27q147 0 217 19q31 12 51 42t45 101q10 31 40 31t30 -23q0 -12 -32 -135t-48 -270q-4 -27 -36 -27t-32 23l2 49q0 82 -38 99t-228 18q-41 0 -58 -10t-24 -39l-86 -379
q-12 -54 -12 -96t61 -54t239 -12t247 35q68 35 109 105q15 26 42 73q14 25 43 25t29 -26t-34 -110t-62 -134t-76 -50l-615 6l-288 -6q-27 0 -27 34t31 34q18 0 39 -3q80 0 110 40t64 188l178 772q25 109 24 164q0 66 -104 65l-49 -2q-27 0 -27 27q0 41 37 41q6 0 84 -5
t207 -5z" />
    <glyph glyph-name="Igrave" unicode="&#xcc;" horiz-adv-x="700" 
d="M305 1729q0 29 24 47q23 18 53 18t77 -57q143 -178 190 -228q33 -41 11 -59q-9 -8 -23 -8t-45 22q-133 97 -242 191q-45 45 -45 74zM483 -2q-6 0 -41 3t-89 6t-109 3q-56 0 -106 -3t-79 -6t-32 -3q-27 0 -27 34t31 34q18 0 39 -3q80 0 110 40t64 188l178 772
q25 109 24 164q0 66 -118 65l-35 -2q-27 0 -27 27q0 41 37 41q6 0 74 -6t142 -6q75 0 125 3t79 6t33 3q26 0 26 -34t-30 -34l-39 2q-80 0 -111 -40t-65 -193l-177 -766q-25 -109 -24 -168q0 -61 123 -62l35 3q27 0 26 -31q0 -37 -37 -37z" />
    <glyph glyph-name="Iacute" unicode="&#xcd;" horiz-adv-x="700" 
d="M446 1442q-22 0 -22 24t25 41q133 102 219 172t116 70q61 0 64 -70q-1 -30 -60 -69q-147 -92 -233 -130q-87 -38 -109 -38zM483 -2q-6 0 -41 3t-89 6t-109 3q-56 0 -106 -3t-79 -6t-32 -3q-27 0 -27 34t31 34q18 0 39 -3q80 0 110 40t64 188l178 772q25 109 24 164
q0 66 -118 65l-35 -2q-27 0 -27 27q0 41 37 41q6 0 74 -6t142 -6q75 0 125 3t79 6t33 3q26 0 26 -34t-30 -34l-39 2q-80 0 -111 -40t-65 -193l-177 -766q-25 -109 -24 -168q0 -61 123 -62l35 3q27 0 26 -31q0 -37 -37 -37z" />
    <glyph glyph-name="Icircumflex" unicode="&#xce;" horiz-adv-x="700" 
d="M836 1448q0 -31 -31 -31q-12 0 -33 17q-68 68 -124 116t-63 47q-7 0 -28 -10q-143 -106 -217 -155q-34 -30 -53 -4q-8 12 -8 22q-1 10 21 30t259 246q25 25 44 25t36 -22q115 -163 156 -217t41 -64zM483 -2q-6 0 -41 3t-89 6t-109 3q-56 0 -106 -3t-79 -6t-32 -3
q-27 0 -27 34t31 34q18 0 39 -3q80 0 110 40t64 188l178 772q25 109 24 164q0 66 -118 65l-35 -2q-27 0 -27 27q0 41 37 41q6 0 74 -6t142 -6q75 0 125 3t79 6t33 3q26 0 26 -34t-30 -34l-39 2q-80 0 -111 -40t-65 -193l-177 -766q-25 -109 -24 -168q0 -61 123 -62l35 3
q27 0 26 -31q0 -37 -37 -37z" />
    <glyph glyph-name="Idieresis" unicode="&#xcf;" horiz-adv-x="700" 
d="M807 1552q0 -36 -27 -64q-26 -28 -60 -28t-56 20t-23 58q0 37 27 64q28 26 62 26t56 -20t21 -56zM494 1552q0 -36 -27 -64t-61 -28t-56 20q-23 20 -22 58q0 37 26 64q27 26 62 26q34 0 56 -20t22 -56zM483 -2q-6 0 -41 3t-89 6t-109 3q-56 0 -106 -3t-79 -6t-32 -3
q-27 0 -27 34t31 34q18 0 39 -3q80 0 110 40t64 188l178 772q25 109 24 164q0 66 -118 65l-35 -2q-27 0 -27 27q0 41 37 41q6 0 74 -6t142 -6q75 0 125 3t79 6t33 3q26 0 26 -34t-30 -34l-39 2q-80 0 -111 -40t-65 -193l-177 -766q-25 -109 -24 -168q0 -61 123 -62l35 3
q27 0 26 -31q0 -37 -37 -37z" />
    <glyph glyph-name="Eth" unicode="&#xd0;" horiz-adv-x="1533" 
d="M336 173q0 -36 19 -51q46 -36 319 -36q328 0 502 192t174 521q0 92 -30 184t-81 141q-160 152 -500 152q-100 0 -134 -20t-52 -105l-80 -348q-4 -16 -4 -23q0 -20 25 -20h352q33 0 33 -24q-1 -24 -9 -40t-43 -16h-358q-25 0 -31 -27l-82 -356q-20 -88 -20 -124zM31 66
q18 0 39 -3q86 1 114 43t60 185l80 346q4 16 4 22q0 20 -25 21h-176q-33 0 -33 25q0 54 43 55h191q25 0 30 24l64 279q25 109 24 164q0 66 -118 65l-35 -2q-27 0 -27 27q0 41 37 41q6 0 59 -5t170 -5l240 6q313 0 483 -103q105 -63 167 -176t63 -248q0 -421 -238 -625
t-655 -204l-338 8l-227 -8q-27 0 -27 34t31 34z" />
    <glyph glyph-name="Ntilde" unicode="&#xd1;" horiz-adv-x="1587" 
d="M1155 1575q63 0 90 90q8 25 33 25t25 -25q0 -9 -19 -63q-20 -54 -56 -93t-96 -39t-144 48q-85 48 -126 49q-59 0 -100 -92q-8 -18 -31 -19q-27 0 -26 25q0 8 10 39q68 158 176 157q31 0 120 -51t144 -51zM453 -2q-6 0 -74 6q-69 6 -143 6t-121 -3t-73 -6t-32 -3
q-25 0 -24 31q0 37 37 37q16 0 34 -3q76 0 111 41q31 49 61 175q209 840 209 893t-8 69q-31 51 -125 51l-35 -2q-27 0 -26 29q0 39 39 39l143 -8l119 8q39 0 51 -29q39 -76 131 -274t216 -436q123 -239 157 -305t44 -66t15 16q35 136 95 414t81 382q20 104 21 171
q0 61 -101 61l-53 -2q-25 0 -24 29q0 39 39 39q4 0 69 -6t141 -6t120 3t68 6t30 3q33 0 32 -29q0 -39 -37 -39l-53 2q-67 0 -93 -36t-77 -242t-221 -1004q-4 -24 -12 -30t-30 -6t-30 16q-209 441 -569 1138q-8 16 -19 16t-16 -14q-216 -869 -218 -975q0 -40 18 -66
q20 -26 100 -26l45 3q25 0 24 -27q0 -41 -36 -41z" />
    <glyph glyph-name="Ograve" unicode="&#xd2;" horiz-adv-x="1462" 
d="M1026 1471q0 -29 -32 -29q-14 0 -46 22q-132 97 -241 191q-45 45 -45 74t23 47t53 18t77 -57q143 -178 191 -228q20 -25 20 -38zM868 1313q-301 0 -473 -312q-111 -199 -110 -499q0 -190 104 -326t295 -137q137 1 248 65t172 177q133 240 133 596q-4 184 -98 310
t-271 126zM1380 836q0 -168 -49 -339t-147 -290q-197 -236 -504 -236q-246 0 -387 150t-141 420q0 143 42 285t115 247q217 307 565 307q242 0 374 -142t132 -402z" />
    <glyph glyph-name="Oacute" unicode="&#xd3;" horiz-adv-x="1462" 
d="M764 1442q-22 0 -23 24q0 24 25 41q135 102 220 172t116 70q63 0 63 -70q0 -30 -59 -69q-148 -92 -234 -130t-108 -38zM868 1313q-301 0 -473 -312q-111 -199 -110 -499q0 -190 104 -326t295 -137q137 1 248 65t172 177q133 240 133 596q-4 184 -98 310t-271 126z
M1380 836q0 -168 -49 -339t-147 -290q-197 -236 -504 -236q-246 0 -387 150t-141 420q0 143 42 285t115 247q217 307 565 307q242 0 374 -142t132 -402z" />
    <glyph glyph-name="Ocircumflex" unicode="&#xd4;" horiz-adv-x="1462" 
d="M1188 1448q0 -31 -31 -31q-12 0 -33 17q-68 68 -124 116t-63 47q-7 0 -28 -10q-143 -106 -217 -155q-34 -30 -53 -4q-8 12 -8 22q-1 10 21 30t259 246q25 25 44 25t36 -22q115 -163 156 -217t41 -64zM868 1313q-301 0 -473 -312q-111 -199 -110 -499q0 -190 104 -326
t295 -137q137 1 248 65t172 177q133 240 133 596q-4 184 -98 310t-271 126zM1380 836q0 -168 -49 -339t-147 -290q-197 -236 -504 -236q-246 0 -387 150t-141 420q0 143 42 285t115 247q217 307 565 307q242 0 374 -142t132 -402z" />
    <glyph glyph-name="Otilde" unicode="&#xd5;" horiz-adv-x="1462" 
d="M995 1575q63 0 90 90q8 25 33 25t25 -25q-1 -9 -19 -63t-55 -93t-97 -39t-144 48q-85 48 -126 49q-59 0 -100 -92q-8 -18 -31 -19q-27 0 -26 25q0 8 10 39q68 158 176 157q31 0 120 -51t144 -51zM868 1313q-301 0 -473 -312q-111 -199 -110 -499q0 -190 104 -326
t295 -137q137 1 248 65t172 177q133 240 133 596q-4 184 -98 310t-271 126zM1380 836q0 -168 -49 -339t-147 -290q-197 -236 -504 -236q-246 0 -387 150t-141 420q0 143 42 285t115 247q217 307 565 307q242 0 374 -142t132 -402z" />
    <glyph glyph-name="Odieresis" unicode="&#xd6;" horiz-adv-x="1462" 
d="M1167 1552q-1 -36 -27 -64t-60 -28t-56 20t-23 58q0 37 27 64t62 26q77 0 77 -76zM854 1552q0 -36 -27 -64t-61 -28t-56 20t-22 58q0 37 27 64t61 26q78 0 78 -76zM868 1313q-301 0 -473 -312q-111 -199 -110 -499q0 -190 104 -326t295 -137q137 1 248 65t172 177
q133 240 133 596q-4 184 -98 310t-271 126zM1380 836q0 -168 -49 -339t-147 -290q-197 -236 -504 -236q-246 0 -387 150t-141 420q0 143 42 285t115 247q217 307 565 307q242 0 374 -142t132 -402z" />
    <glyph glyph-name="multiply" unicode="&#xd7;" horiz-adv-x="1314" 
d="M1022 243q0 -11 -10 -22l-39 -35q-7 -10 -19 -10t-20 10l-250 289l-344 -295q-8 -8 -20 -8t-19 8l-33 37q-6 13 -6 21t12 20l347 295l-244 289q-12 12 -12 21t12 22l35 30q20 28 43 7l252 -291l335 293q16 10 28 10t17 -10l27 -37q8 -9 8 -15t-12 -24l-340 -295l244 -291
q8 -8 8 -19z" />
    <glyph glyph-name="Oslash" unicode="&#xd8;" horiz-adv-x="1462" 
d="M285 502q0 -88 24 -172q8 -35 35 -6l786 835q20 20 3 37q-96 117 -265 117q-301 0 -473 -312q-110 -198 -110 -499zM1237 877q0 106 -35 200q-8 16 -16 17q-8 0 -21 -13l-792 -843q-21 -21 -4 -35q109 -164 315 -164q137 1 248 65t172 177q133 240 133 596zM86 36
q0 12 12 25l117 125q10 10 10 18t-6 21q-67 123 -67 291q1 332 157 557q217 307 565 307q207 0 332 -104q8 -8 18 -8t19 10l113 121q26 30 56 1q14 -12 14 -24q1 -12 -15 -33l-117 -124q-10 -9 -10 -17t6 -20q90 -138 90 -326t-49 -359t-147 -290q-197 -236 -504 -236
q-244 0 -383 146q-11 10 -19 10t-18 -10l-102 -109q-30 -24 -51 -4t-21 32z" />
    <glyph glyph-name="Ugrave" unicode="&#xd9;" horiz-adv-x="1564" 
d="M688 1729q0 29 24 47t54 18t76 -57q143 -178 190 -228q33 -41 11 -59q-9 -8 -23 -8t-45 22q-133 97 -242 191q-45 45 -45 74zM674 -29q-227 1 -336 101t-109 274q1 114 29 234q28 119 63 254q34 135 62 255t12 164q-18 39 -98 39l-43 -2q-23 0 -23 29q0 39 39 39
q6 0 74 -6t142 -6q75 0 124 3t78 6t35 3q31 0 31 -34t-31 -34l-47 2q-78 0 -114 -38t-73 -183q-7 -37 -33 -133t-39 -154t-40 -179q-27 -120 -27 -222q0 -152 85 -237t257 -85q121 0 213 32t147 76q54 44 97 127t84 221t121 558q14 72 14 150q0 68 -106 67l-45 -2
q-25 0 -25 31q0 37 37 37l244 -12q49 0 113 6t69 6q37 0 37 -25q0 -43 -39 -43l-43 2q-51 -2 -91 -39t-73 -180q-12 -49 -68 -295t-61 -278q-61 -264 -209 -396t-434 -133z" />
    <glyph glyph-name="Uacute" unicode="&#xda;" horiz-adv-x="1564" 
d="M872 1442q-22 0 -22 24t24 41q133 102 219 172q85 70 117 70q61 0 64 -70q-1 -30 -60 -69q-147 -92 -233 -130t-109 -38zM674 -29q-227 1 -336 101t-109 274q1 114 29 234q28 119 63 254q34 135 62 255t12 164q-18 39 -98 39l-43 -2q-23 0 -23 29q0 39 39 39q6 0 74 -6
t142 -6q75 0 124 3t78 6t35 3q31 0 31 -34t-31 -34l-47 2q-78 0 -114 -38t-73 -183q-7 -37 -33 -133t-39 -154t-40 -179q-27 -120 -27 -222q0 -152 85 -237t257 -85q121 0 213 32t147 76q54 44 97 127t84 221t121 558q14 72 14 150q0 68 -106 67l-45 -2q-25 0 -25 31
q0 37 37 37l244 -12q49 0 113 6t69 6q37 0 37 -25q0 -43 -39 -43l-43 2q-51 -2 -91 -39t-73 -180q-12 -49 -68 -295t-61 -278q-61 -264 -209 -396t-434 -133z" />
    <glyph glyph-name="Ucircumflex" unicode="&#xdb;" horiz-adv-x="1564" 
d="M1253 1448q0 -31 -30 -31q-12 0 -33 17q-68 68 -124 116t-64 47q-8 0 -27 -10q-143 -106 -217 -155q-34 -30 -52 -5t8 49t263 250q25 25 44 25t36 -22q115 -163 155 -217t41 -64zM674 -29q-227 1 -336 101t-109 274q1 114 29 234q28 119 63 254q34 135 62 255t12 164
q-18 39 -98 39l-43 -2q-23 0 -23 29q0 39 39 39q6 0 74 -6t142 -6q75 0 124 3t78 6t35 3q31 0 31 -34t-31 -34l-47 2q-78 0 -114 -38t-73 -183q-7 -37 -33 -133t-39 -154t-40 -179q-27 -120 -27 -222q0 -152 85 -237t257 -85q121 0 213 32t147 76q54 44 97 127t84 221
t121 558q14 72 14 150q0 68 -106 67l-45 -2q-25 0 -25 31q0 37 37 37l244 -12q49 0 113 6t69 6q37 0 37 -25q0 -43 -39 -43l-43 2q-51 -2 -91 -39t-73 -180q-12 -49 -68 -295t-61 -278q-61 -264 -209 -396t-434 -133z" />
    <glyph glyph-name="Udieresis" unicode="&#xdc;" horiz-adv-x="1564" 
d="M1247 1552q-1 -36 -27 -64t-60 -28t-56 20t-23 58q0 37 27 64t61 26q78 0 78 -76zM934 1552q0 -36 -27 -64t-61 -28t-56 20t-22 58q0 37 27 64q27 26 61 26t56 -20t22 -56zM674 -29q-227 1 -336 101t-109 274q1 114 29 234q28 119 63 254q34 135 62 255t12 164
q-18 39 -98 39l-43 -2q-23 0 -23 29q0 39 39 39q6 0 74 -6t142 -6q75 0 124 3t78 6t35 3q31 0 31 -34t-31 -34l-47 2q-78 0 -114 -38t-73 -183q-7 -37 -33 -133t-39 -154t-40 -179q-27 -120 -27 -222q0 -152 85 -237t257 -85q121 0 213 32t147 76q54 44 97 127t84 221
t121 558q14 72 14 150q0 68 -106 67l-45 -2q-25 0 -25 31q0 37 37 37l244 -12q49 0 113 6t69 6q37 0 37 -25q0 -43 -39 -43l-43 2q-51 -2 -91 -39t-73 -180q-12 -49 -68 -295t-61 -278q-61 -264 -209 -396t-434 -133z" />
    <glyph glyph-name="Yacute" unicode="&#xdd;" horiz-adv-x="1341" 
d="M756 1442q-22 0 -23 24q0 24 25 41q135 102 220 172t116 70q63 0 63 -70q0 -30 -59 -69q-148 -92 -234 -130t-108 -38zM651 158q0 -40 11 -60q18 -35 106 -35l35 3q27 0 26 -25q0 -43 -36 -43q-6 0 -70 6q-63 6 -139 6t-128 -3t-84 -6t-36 -3q-25 0 -25 29q0 39 35 39
q14 0 35 -3q90 0 118 42t60 186l53 231q8 29 8 48t-12 51l-147 385q-68 178 -113 249q-23 37 -76 37l-36 -2q-29 0 -29 29q0 15 10 27q9 12 21 12t65 -6t152 -6l221 12q29 0 29 -34t-37 -34l-80 2q-80 0 -80 -46t70 -232l90 -242q27 -72 41 -72q20 0 77 70l209 246
q162 193 162 237q0 27 -18 33t-66 6l-59 -2q-29 0 -29 27q0 41 39 41l74 -6q76 -6 156 -6t136 6q58 6 60 6q35 0 35 -33q0 -19 -11 -27t-24 -8l-33 2q-43 0 -95 -38t-218 -236l-334 -393q-10 -10 -22 -37t-15 -45l-59 -254q-23 -91 -23 -131z" />
    <glyph glyph-name="Thorn" unicode="&#xde;" horiz-adv-x="1159" 
d="M399 438q-1 -16 17 -27t117 -11q345 -2 440 174q39 73 39 183q0 109 -79 181t-241 72q-98 0 -131 -4q-39 -4 -49 -52l-109 -471q-4 -29 -4 -45zM334 137q0 -74 133 -74l39 3q27 0 26 -31q0 -37 -36 -37q-6 0 -44 3t-96 6t-112 3q-56 0 -106 -3t-79 -6t-32 -3
q-27 0 -27 34t31 34q18 0 39 -3q80 0 110 40t64 188l178 772q25 109 24 164q0 66 -118 65l-35 -2q-27 0 -27 27q0 41 37 41q6 0 72 -6t141 -6q76 0 126 3t79 6t33 3q26 0 26 -34t-30 -34l-39 2q-86 0 -119 -28q-18 -18 -32 -86t-13 -76q0 -18 18 -19l178 4q205 0 305 -85
t99 -218q0 -236 -168 -350t-438 -112l-138 4q-37 0 -47 -47q-22 -101 -22 -142z" />
    <glyph glyph-name="germandbls" unicode="&#xdf;" horiz-adv-x="1120" 
d="M948 1645q114 1 182 -57t68 -177q0 -227 -297 -461q-145 -115 -145 -184q0 -51 26 -91t102 -128q76 -87 113 -151t37 -126q0 -129 -95 -214t-237 -85t-208 60q-39 33 -39 67t21 58q22 22 52 22t58 -43t64 -65t111 -23q75 0 124 56q49 57 49 115t-31 114t-112 148
q-138 154 -138 234q0 87 49 143q21 23 46 48l37 37q13 12 49 43t53 47q68 61 130 175t62 190q0 168 -166 168q-143 0 -237 -117q-94 -116 -142 -286t-109 -474t-107 -494t-106 -358t-102 -231t-102 -115q-102 -100 -264 -100q-84 0 -135 37q-25 16 -33 55q0 30 22 56t48 26
t39 -25q34 -71 125 -70q92 1 165 74q117 131 246 693q33 136 77 352t44 224t-14 7l-142 -2q-29 0 -28 21q0 37 28 41q133 20 146 26q29 7 47 55t65 216q66 227 205 348t299 121z" />
    <glyph glyph-name="agrave" unicode="&#xe0;" horiz-adv-x="1136" 
d="M667 1464q35 0 73 -82t92 -174q54 -93 55 -112q-4 -23 -33 -23q-18 4 -43 31q-227 249 -225 297q0 29 22 46q23 17 59 17zM856 770q0 86 -164 86t-313 -186q-86 -106 -138 -238q-93 -238 -22 -326q31 -37 90 -36q102 0 201 86q137 119 242 309q60 115 82 193t22 112z
M815 133q0 -68 49 -67q39 0 86 34t79 75q32 42 38 75q2 27 31 26q31 0 30 -30q0 -20 -30 -66q-50 -86 -138 -146t-161 -61q-86 0 -94 88q0 80 45 230q2 6 5 17q3 12 6 20t3 10q0 10 -11 10t-20 -14q-61 -98 -82 -125q-178 -238 -377 -238q-92 -1 -145 53t-53 144
q0 242 184 477q221 283 475 283q61 0 93 -10t53 -18q21 -7 33 -7q27 0 42 45q14 45 46 45t32 -27q0 -10 -64 -197q-154 -448 -155 -626z" />
    <glyph glyph-name="aacute" unicode="&#xe1;" horiz-adv-x="1136" 
d="M762 1073q-14 0 -24 8q-9 9 -9 19q1 10 17 30t92 112q76 91 109 143q34 52 81 53q63 0 64 -58q0 -32 -58 -90t-231 -194q-27 -23 -41 -23zM856 770q0 86 -164 86t-313 -186q-86 -106 -138 -238q-93 -238 -22 -326q31 -37 90 -36q102 0 201 86q137 119 242 309
q60 115 82 193t22 112zM815 133q0 -68 49 -67q39 0 86 34t79 75q32 42 38 75q2 27 31 26q31 0 30 -30q0 -20 -30 -66q-50 -86 -138 -146t-161 -61q-86 0 -94 88q0 80 45 230q2 6 5 17q3 12 6 20t3 10q0 10 -11 10t-20 -14q-61 -98 -82 -125q-178 -238 -377 -238
q-92 -1 -145 53t-53 144q0 242 184 477q221 283 475 283q61 0 93 -10t53 -18q21 -7 33 -7q27 0 42 45q14 45 46 45t32 -27q0 -10 -64 -197q-154 -448 -155 -626z" />
    <glyph glyph-name="acircumflex" unicode="&#xe2;" horiz-adv-x="1136" 
d="M601 1073q-13 0 -23 9q-23 21 2 44q207 244 258 310q20 26 46 26t34 -24q82 -208 108 -268t27 -69t-11 -19t-25 -9q-13 0 -28 17q-74 111 -117 184q-10 14 -18 14t-25 -16q-199 -199 -228 -199zM856 770q0 86 -164 86t-313 -186q-86 -106 -138 -238q-93 -238 -22 -326
q31 -37 90 -36q102 0 201 86q137 119 242 309q60 115 82 193t22 112zM815 133q0 -68 49 -67q39 0 86 34t79 75q32 42 38 75q2 27 31 26q31 0 30 -30q0 -20 -30 -66q-50 -86 -138 -146t-161 -61q-86 0 -94 88q0 80 45 230q2 6 5 17q3 12 6 20t3 10q0 10 -11 10t-20 -14
q-61 -98 -82 -125q-178 -238 -377 -238q-92 -1 -145 53t-53 144q0 242 184 477q221 283 475 283q61 0 93 -10t53 -18q21 -7 33 -7q27 0 42 45q14 45 46 45t32 -27q0 -10 -64 -197q-154 -448 -155 -626z" />
    <glyph glyph-name="atilde" unicode="&#xe3;" horiz-adv-x="1136" 
d="M936 1239q47 0 76 84q8 25 32 25t25 -27q-1 -11 -21 -63t-57 -90t-86 -38t-125 44t-104 45t-48 -19q-22 -20 -44 -70q-10 -18 -31 -18q-27 0 -27 25q0 7 26 69q52 122 155 123q28 0 105 -45t124 -45zM856 770q0 86 -164 86t-313 -186q-86 -106 -138 -238
q-93 -238 -22 -326q31 -37 90 -36q102 0 201 86q137 119 242 309q60 115 82 193t22 112zM815 133q0 -68 49 -67q39 0 86 34t79 75q32 42 38 75q2 27 31 26q31 0 30 -30q0 -20 -30 -66q-50 -86 -138 -146t-161 -61q-86 0 -94 88q0 80 45 230q2 6 5 17q3 12 6 20t3 10
q0 10 -11 10t-20 -14q-61 -98 -82 -125q-178 -238 -377 -238q-92 -1 -145 53t-53 144q0 242 184 477q221 283 475 283q61 0 93 -10t53 -18q21 -7 33 -7q27 0 42 45q14 45 46 45t32 -27q0 -10 -64 -197q-154 -448 -155 -626z" />
    <glyph glyph-name="adieresis" unicode="&#xe4;" horiz-adv-x="1136" 
d="M1008 1325q77 0 77 -76q-1 -37 -27 -65t-60 -27t-56 21t-22 57t26 63t62 27zM793 1249q0 -37 -27 -65q-26 -28 -60 -27t-57 21t-22 57t27 63t61 27t57 -19t21 -57zM856 770q0 86 -164 86t-313 -186q-86 -106 -138 -238q-93 -238 -22 -326q31 -37 90 -36q102 0 201 86
q137 119 242 309q60 115 82 193t22 112zM815 133q0 -68 49 -67q39 0 86 34t79 75q32 42 38 75q2 27 31 26q31 0 30 -30q0 -20 -30 -66q-50 -86 -138 -146t-161 -61q-86 0 -94 88q0 80 45 230q2 6 5 17q3 12 6 20t3 10q0 10 -11 10t-20 -14q-61 -98 -82 -125
q-178 -238 -377 -238q-92 -1 -145 53t-53 144q0 242 184 477q221 283 475 283q61 0 93 -10t53 -18q21 -7 33 -7q27 0 42 45q14 45 46 45t32 -27q0 -10 -64 -197q-154 -448 -155 -626z" />
    <glyph glyph-name="aring" unicode="&#xe5;" horiz-adv-x="1136" 
d="M930 1260q0 111 -101 110q-49 0 -83 -39t-34 -98t26 -90t76 -31t83 39t33 109zM830 1427q78 -1 122 -45t45 -125q0 -81 -51 -143t-133 -61q-82 0 -126 48t-44 130t54 139q55 57 133 57zM856 770q0 86 -164 86t-313 -186q-86 -106 -138 -238q-93 -238 -22 -326
q31 -37 90 -36q102 0 201 86q137 119 242 309q60 115 82 193t22 112zM815 133q0 -68 49 -67q39 0 86 34t79 75q32 42 38 75q2 27 31 26q31 0 30 -30q0 -20 -30 -66q-50 -86 -138 -146t-161 -61q-86 0 -94 88q0 80 45 230q2 6 5 17q3 12 6 20t3 10q0 10 -11 10t-20 -14
q-61 -98 -82 -125q-178 -238 -377 -238q-92 -1 -145 53t-53 144q0 242 184 477q221 283 475 283q61 0 93 -10t53 -18q21 -7 33 -7q27 0 42 45q14 45 46 45t32 -27q0 -10 -64 -197q-154 -448 -155 -626z" />
    <glyph glyph-name="ae" unicode="&#xe6;" horiz-adv-x="1480" 
d="M889 525q0 -15 18 -15q8 0 25 4q213 54 314 118t102 148q0 94 -103 94q-81 0 -193 -92t-157 -229q-6 -13 -6 -28zM854 768q0 38 -46 62t-130 24q-147 0 -299 -184q-84 -106 -136 -242t-53 -235q0 -123 109 -123q102 0 205 84q143 121 248 311q102 192 102 303zM844 250
q0 -78 48 -136t144 -59q166 0 264 142q16 23 33 63q10 33 35 33q35 0 35 -33q0 -27 -23 -61q-145 -227 -397 -228q-119 0 -178 68t-60 176q0 31 5 64l6 32q0 12 -11 13q-7 0 -39 -48t-57 -77q-193 -227 -389 -228q-86 0 -135 48t-49 135q0 256 184 491q221 283 467 283
q59 0 113 -18t68 -19q27 0 41 46q15 46 50 46t35 -27q0 -20 -21 -65t-27 -59t-5 -21q0 -8 7 -8t18 10q132 131 296 131t164 -141q0 -133 -141 -209q-166 -90 -420 -143q-37 -8 -45 -45q-16 -78 -16 -156z" />
    <glyph glyph-name="ccedilla" unicode="&#xe7;" horiz-adv-x="837" 
d="M215 254q0 -84 47 -141t137 -57t163 45t106 99t34 62q6 29 33 29q13 0 25 -9t12 -30t-20 -47q-133 -190 -330 -225q-27 -8 -35 -29q-25 -45 -25 -63t23 -23q117 -37 117 -145t-98 -175q-98 -68 -224 -67q-43 0 -43 35t66 35q65 0 131 36q66 37 65 111q0 37 -24 57
q-25 20 -82 35q-27 6 -27 33q0 28 29 76t29 62t-25 17q-92 14 -146 83t-55 173q0 269 166 489t395 220q83 0 135 -31t52 -82t-23 -73t-53 -23q-53 0 -63 47q0 90 -111 88q-82 0 -169 -72t-149 -216t-63 -324z" />
    <glyph glyph-name="egrave" unicode="&#xe8;" horiz-adv-x="851" 
d="M442 1403q0 27 23 44t59 17t64 -63q47 -100 143 -268q12 -18 12 -37q-4 -23 -32 -23q-18 4 -43 31q-226 248 -226 299zM258 525q0 -15 18 -15q8 0 25 4q213 54 314 118t102 148q-1 94 -105 94t-201 -97t-147 -224q-6 -13 -6 -28zM213 252q0 -80 48 -138t145 -59
q166 0 264 142q16 23 32 63q10 33 35 33q35 0 35 -33q0 -27 -22 -61q-145 -227 -398 -228q-118 0 -186 73t-68 179q0 164 70 321t182 263q142 137 314 137t172 -141q0 -133 -142 -209q-166 -90 -420 -143q-39 -8 -45 -41q-16 -78 -16 -158z" />
    <glyph glyph-name="eacute" unicode="&#xe9;" horiz-adv-x="851" 
d="M608 1073q-31 0 -33 27q1 10 17 30t91 111q75 90 110 143t81 54q63 0 64 -58q0 -32 -58 -90t-231 -194q-27 -23 -41 -23zM258 525q0 -15 18 -15q8 0 25 4q213 54 314 118t102 148q-1 94 -105 94t-201 -97t-147 -224q-6 -13 -6 -28zM213 252q0 -80 48 -138t145 -59
q166 0 264 142q16 23 32 63q10 33 35 33q35 0 35 -33q0 -27 -22 -61q-145 -227 -398 -228q-118 0 -186 73t-68 179q0 164 70 321t182 263q142 137 314 137t172 -141q0 -133 -142 -209q-166 -90 -420 -143q-39 -8 -45 -41q-16 -78 -16 -158z" />
    <glyph glyph-name="ecircumflex" unicode="&#xea;" horiz-adv-x="851" 
d="M466 1073q-13 0 -24 9q-10 8 -10 20t12 24q207 244 258 310q20 26 46 26t34 -24q82 -208 108 -268t28 -69q0 -9 -12 -19t-24 -9q-13 0 -28 17q-74 111 -117 184q-10 14 -18 14t-25 -16q-199 -199 -228 -199zM258 525q0 -15 18 -15q8 0 25 4q213 54 314 118t102 148
q-1 94 -105 94t-201 -97t-147 -224q-6 -13 -6 -28zM213 252q0 -80 48 -138t145 -59q166 0 264 142q16 23 32 63q10 33 35 33q35 0 35 -33q0 -27 -22 -61q-145 -227 -398 -228q-118 0 -186 73t-68 179q0 164 70 321t182 263q142 137 314 137t172 -141q0 -133 -142 -209
q-166 -90 -420 -143q-39 -8 -45 -41q-16 -78 -16 -158z" />
    <glyph glyph-name="edieresis" unicode="&#xeb;" horiz-adv-x="851" 
d="M961 1249q0 -37 -27 -65t-61 -27q-35 1 -57 21t-21 57t27 63t61 27t57 -19t21 -57zM668 1249q0 -37 -27 -65t-61 -27t-56 21q-23 20 -22 57q0 37 26 63t62 27q34 1 56 -19t22 -57zM258 525q0 -15 18 -15q8 0 25 4q213 54 314 118t102 148q-1 94 -105 94t-201 -97
t-147 -224q-6 -13 -6 -28zM213 252q0 -80 48 -138t145 -59q166 0 264 142q16 23 32 63q10 33 35 33q35 0 35 -33q0 -27 -22 -61q-145 -227 -398 -228q-118 0 -186 73t-68 179q0 164 70 321t182 263q142 137 314 137t172 -141q0 -133 -142 -209q-166 -90 -420 -143
q-39 -8 -45 -41q-16 -78 -16 -158z" />
    <glyph glyph-name="igrave" unicode="&#xec;" horiz-adv-x="671" 
d="M217 1403q0 27 23 44q22 17 58 17t74 -82t134 -249q12 -18 12 -37q-4 -23 -33 -23q-18 4 -43 31q-225 249 -225 299zM285 111q0 -45 43 -45t93 34t82 81q32 48 37 72q4 23 32 23t28 -32t-68 -113q-68 -82 -142 -120q-73 -38 -124 -38q-98 0 -98 90q2 61 104 352t103 349
q0 58 -10 70q-10 14 -38 14t-68 -27t-62 -63q-23 -36 -27 -58t-32 -22t-27 27q0 20 18 47q55 90 137 141t146 51q84 0 84 -94q0 -74 -106 -370t-105 -369z" />
    <glyph glyph-name="iacute" unicode="&#xed;" horiz-adv-x="671" 
d="M360 1073q-14 0 -23 8t-9 20t87 115t126 162t86 60q63 0 63 -58q0 -32 -58 -90t-231 -194q-27 -23 -41 -23zM285 111q0 -45 43 -45t93 34t82 81q32 48 37 72q4 23 32 23t28 -32t-68 -113q-68 -82 -142 -120q-73 -38 -124 -38q-98 0 -98 90q2 61 104 352t103 349
q0 58 -10 70q-10 14 -38 14t-68 -27t-62 -63q-23 -36 -27 -58t-32 -22t-27 27q0 20 18 47q55 90 137 141t146 51q84 0 84 -94q0 -74 -106 -370t-105 -369z" />
    <glyph glyph-name="icircumflex" unicode="&#xee;" horiz-adv-x="671" 
d="M230 1073q-13 0 -23 9q-10 8 -10 20t12 24q207 244 258 310q20 26 46 26t34 -24q83 -208 109 -268t26 -69t-11 -19t-25 -9q-14 0 -28 17q-74 111 -116 184q-10 14 -18 14t-25 -16q-199 -199 -229 -199zM285 111q0 -45 43 -45t93 34t82 81q32 48 37 72q4 23 32 23t28 -32
t-68 -113q-68 -82 -142 -120q-73 -38 -124 -38q-98 0 -98 90q2 61 104 352t103 349q0 58 -10 70q-10 14 -38 14t-68 -27t-62 -63q-23 -36 -27 -58t-32 -22t-27 27q0 20 18 47q55 90 137 141t146 51q84 0 84 -94q0 -74 -106 -370t-105 -369z" />
    <glyph glyph-name="idieresis" unicode="&#xef;" horiz-adv-x="671" 
d="M621 1325q77 0 77 -76q0 -37 -26 -65t-61 -27t-57 21t-22 57t27 63t62 27zM406 1249q0 -37 -27 -65t-61 -27t-56 21t-22 57t26 63t62 27q34 1 56 -19t22 -57zM285 111q0 -45 43 -45t93 34t82 81q32 48 37 72q4 23 32 23t28 -32t-68 -113q-68 -82 -142 -120
q-73 -38 -124 -38q-98 0 -98 90q2 61 104 352t103 349q0 58 -10 70q-10 14 -38 14t-68 -27t-62 -63q-23 -36 -27 -58t-32 -22t-27 27q0 20 18 47q55 90 137 141t146 51q84 0 84 -94q0 -74 -106 -370t-105 -369z" />
    <glyph glyph-name="eth" unicode="&#xf0;" horiz-adv-x="978" 
d="M821 946q0 182 -88 340q-6 10 -16 10l-17 -4l-215 -106q-16 -8 -26 -8q-31 0 -31 39q0 16 27 28l204 101q16 12 17 20q0 8 -4 14q-45 80 -125 132t-111 61q-26 11 -26 29t12 30t34 12t91 -32q121 -59 225 -178q20 -13 35 -4l158 81q14 8 24 9q29 0 29 -37q0 -20 -31 -37
l-137 -68q-14 -8 -19 -18q0 -8 3 -12q98 -206 98 -422t-45 -426t-148 -342q-145 -186 -346 -187q-141 0 -218 91t-77 247q0 252 172 451q141 160 336 160q113 0 168 -74q14 -16 25 -17q22 0 22 117zM782 627q0 98 -46 164t-138 65q-143 0 -254 -158q-133 -188 -133 -446
q0 -90 47 -154t141 -63q152 0 254 162q129 201 129 430z" />
    <glyph glyph-name="ntilde" unicode="&#xf1;" horiz-adv-x="1210" 
d="M883 1239q47 0 75 84q8 25 33 25t25 -27q0 -11 -20 -63t-58 -90q-37 -38 -86 -38t-125 44q-75 44 -103 45q-54 0 -94 -89q-10 -18 -30 -18q-27 0 -27 25q-1 7 25 69q51 123 155 123q29 0 106 -45t124 -45zM287 54q0 -64 -43 -64q-76 0 -76 50t78 286q78 235 103 323
q26 87 26 143t-43 56q-31 0 -72 -27t-63 -63q-23 -36 -27 -58t-32 -22t-27 27q0 20 18 47q55 88 138 140t155 52t71 -68t-87 -301q-4 -12 -4 -18t8 -6q10 0 16 10q74 115 137 187q168 190 357 190q51 0 84 -26q32 -26 32 -70t-24 -118q-24 -75 -103 -299q-80 -224 -84 -314
q0 -45 43 -45q44 0 94 34t80 77q30 44 37 73q6 26 34 26t28 -34t-84 -131q-127 -137 -250 -138q-98 0 -98 90q1 45 103 341t101 368q-1 57 -69 57t-152 -57q-162 -115 -295 -342q-61 -106 -102 -276q-8 -36 -8 -100z" />
    <glyph glyph-name="ograve" unicode="&#xf2;" horiz-adv-x="978" 
d="M436 1403q0 27 23 44t59 17t64 -63q47 -100 143 -268q12 -18 12 -37q-4 -23 -32 -23q-18 4 -43 31q-226 248 -226 299zM786 665q0 99 -46 158t-138 60q-141 0 -254 -160q-137 -195 -137 -471q0 -90 47 -154t141 -63q152 0 254 162q65 101 99 235t34 233zM897 633
q1 -277 -151 -469t-353 -193q-141 0 -218 91t-77 247q0 272 176 475q143 162 336 162q135 0 211 -85t76 -228z" />
    <glyph glyph-name="oacute" unicode="&#xf3;" horiz-adv-x="978" 
d="M563 1073q-31 0 -33 27q0 10 16 30t92 111q75 90 110 143t81 54q63 0 64 -58q-1 -32 -59 -90t-230 -194q-27 -23 -41 -23zM786 665q0 99 -46 158t-138 60q-141 0 -254 -160q-137 -195 -137 -471q0 -90 47 -154t141 -63q152 0 254 162q65 101 99 235t34 233zM897 633
q1 -277 -151 -469t-353 -193q-141 0 -218 91t-77 247q0 272 176 475q143 162 336 162q135 0 211 -85t76 -228z" />
    <glyph glyph-name="ocircumflex" unicode="&#xf4;" horiz-adv-x="978" 
d="M445 1073q-13 0 -23 9q-10 8 -10 20t12 24q207 244 258 310q20 26 46 26t34 -24q82 -208 108 -268t27 -69q0 -9 -11 -19q-10 -10 -24 -9q-14 0 -28 17q-74 111 -117 184q-11 14 -19 14t-24 -16q-199 -199 -229 -199zM786 665q0 99 -46 158t-138 60q-141 0 -254 -160
q-137 -195 -137 -471q0 -90 47 -154t141 -63q152 0 254 162q65 101 99 235t34 233zM897 633q1 -277 -151 -469t-353 -193q-141 0 -218 91t-77 247q0 272 176 475q143 162 336 162q135 0 211 -85t76 -228z" />
    <glyph glyph-name="otilde" unicode="&#xf5;" horiz-adv-x="978" 
d="M585 1329q40 0 117 -45q78 -45 124 -45t75 84q8 25 33 25t24 -27q0 -11 -20 -63q-50 -128 -150 -128q-42 0 -118 44t-104 45t-50 -19t-43 -70q-10 -18 -31 -18q-27 0 -26 25q0 7 26 69t64 92q39 30 79 31zM786 665q0 99 -46 158t-138 60q-141 0 -254 -160
q-137 -195 -137 -471q0 -90 47 -154t141 -63q152 0 254 162q65 101 99 235t34 233zM897 633q1 -277 -151 -469t-353 -193q-141 0 -218 91t-77 247q0 272 176 475q143 162 336 162q135 0 211 -85t76 -228z" />
    <glyph glyph-name="odieresis" unicode="&#xf6;" horiz-adv-x="978" 
d="M834 1325q77 0 77 -76q-1 -37 -27 -65t-60 -27t-56 21t-23 57q0 37 27 63t62 27zM541 1325q77 0 77 -76q0 -37 -26 -65t-61 -27t-57 21t-21 57t27 63t61 27zM786 665q0 99 -46 158t-138 60q-141 0 -254 -160q-137 -195 -137 -471q0 -90 47 -154t141 -63q152 0 254 162
q65 101 99 235t34 233zM897 633q1 -277 -151 -469t-353 -193q-141 0 -218 91t-77 247q0 272 176 475q143 162 336 162q135 0 211 -85t76 -228z" />
    <glyph glyph-name="divide" unicode="&#xf7;" horiz-adv-x="1314" 
d="M600 154q-70 0 -72 77q0 43 29 72t68 29q70 0 69 -76q0 -47 -27 -75q-28 -27 -67 -27zM743 762q-72 0 -71 78q0 42 28 70t66 28q72 0 72 -76q0 -48 -29 -74t-66 -26zM1135 500h-918q-25 0 -24 18q0 16 2 27l8 35q6 27 33 26h921q23 0 23 -20q0 -12 -6 -35l-5 -27
q-7 -24 -34 -24z" />
    <glyph glyph-name="oslash" unicode="&#xf8;" horiz-adv-x="978" 
d="M211 268q0 -39 8 -39t23 15l495 542q21 21 2 37q-47 59 -137 60q-141 0 -254 -160q-137 -195 -137 -455zM240 134q0 -10 4 -17q51 -82 155 -82q153 0 259 168q128 203 128 489q-2 20 -12 21q-8 0 -18 -11l-508 -550q-8 -8 -8 -18zM33 4q0 14 10 25l76 82q12 16 12 20
q-1 4 -17 49t-16 129q0 272 176 475q143 162 336 162q109 0 185 -59q8 -8 18 -8t21 12l67 76q15 14 29 14t24 -10q10 -11 10 -27t-12 -29l-80 -88q-10 -14 -10 -20t4 -14q31 -72 31 -160q1 -277 -151 -469t-353 -193q-125 0 -203 74q-10 10 -18 10t-18 -10l-58 -61
q-28 -28 -52 -4q-10 10 -11 24z" />
    <glyph glyph-name="ugrave" unicode="&#xf9;" horiz-adv-x="1210" 
d="M616 1464q36 0 64 -63q47 -100 101 -193t55 -112q-4 -23 -33 -23q-18 4 -43 31q-227 249 -225 297q0 29 22 46q23 17 59 17zM866 123q0 -31 10 -44t37 -13q96 0 183 141q14 23 20 41q6 28 34 28t28 -24t-17 -49q-57 -98 -146 -164t-159 -66q-88 0 -94 93q0 88 106 393
q4 12 4 17t-9 5t-15 -12q-31 -66 -93 -158q-225 -333 -460 -336q-55 0 -90 30t-35 85q0 94 116 370t117 349q0 43 -38 43q-31 0 -71 -27t-66 -65t-29 -68q-4 -22 -33 -22t-29 26t29 66q68 94 144 138t134 44q68 0 74 -70q0 -90 -119 -368t-119 -353t72 -75q100 0 246 139
q76 74 182 245t160 343q16 49 16 78q0 49 54 49t55 -39q0 -29 -131 -455q-68 -223 -68 -315z" />
    <glyph glyph-name="uacute" unicode="&#xfa;" horiz-adv-x="1210" 
d="M702 1073q-14 0 -23 8t-9 20t87 115t126 162t86 60q63 0 63 -58q0 -32 -58 -90t-231 -194q-27 -23 -41 -23zM866 123q0 -31 10 -44t37 -13q96 0 183 141q14 23 20 41q6 28 34 28t28 -24t-17 -49q-57 -98 -146 -164t-159 -66q-88 0 -94 93q0 88 106 393q4 12 4 17t-9 5
t-15 -12q-31 -66 -93 -158q-225 -333 -460 -336q-55 0 -90 30t-35 85q0 94 116 370t117 349q0 43 -38 43q-31 0 -71 -27t-66 -65t-29 -68q-4 -22 -33 -22t-29 26t29 66q68 94 144 138t134 44q68 0 74 -70q0 -90 -119 -368t-119 -353t72 -75q100 0 246 139q76 74 182 245
t160 343q16 49 16 78q0 49 54 49t55 -39q0 -29 -131 -455q-68 -223 -68 -315z" />
    <glyph glyph-name="ucircumflex" unicode="&#xfb;" horiz-adv-x="1210" 
d="M546 1073q-13 0 -24 9q-10 8 -10 20t12 24q207 244 258 310q20 26 46 26t34 -24q82 -208 108 -268t27 -69q0 -9 -11 -19t-24 -9q-13 0 -28 17q-74 111 -117 184q-10 14 -18 14t-25 -16q-199 -199 -228 -199zM866 123q0 -31 10 -44t37 -13q96 0 183 141q14 23 20 41
q6 28 34 28t28 -24t-17 -49q-57 -98 -146 -164t-159 -66q-88 0 -94 93q0 88 106 393q4 12 4 17t-9 5t-15 -12q-31 -66 -93 -158q-225 -333 -460 -336q-55 0 -90 30t-35 85q0 94 116 370t117 349q0 43 -38 43q-31 0 -71 -27t-66 -65t-29 -68q-4 -22 -33 -22t-29 26t29 66
q68 94 144 138t134 44q68 0 74 -70q0 -90 -119 -368t-119 -353t72 -75q100 0 246 139q76 74 182 245t160 343q16 49 16 78q0 49 54 49t55 -39q0 -29 -131 -455q-68 -223 -68 -315z" />
    <glyph glyph-name="udieresis" unicode="&#xfc;" horiz-adv-x="1210" 
d="M952 1325q78 0 78 -76q0 -37 -26 -65t-61 -27t-57 21t-22 57t27 63t61 27zM659 1325q78 0 78 -76q-1 -37 -27 -65t-60 -27t-56 21t-23 57q0 37 27 63t61 27zM866 123q0 -31 10 -44t37 -13q96 0 183 141q14 23 20 41q6 28 34 28t28 -24t-17 -49q-57 -98 -146 -164
t-159 -66q-88 0 -94 93q0 88 106 393q4 12 4 17t-9 5t-15 -12q-31 -66 -93 -158q-225 -333 -460 -336q-55 0 -90 30t-35 85q0 94 116 370t117 349q0 43 -38 43q-31 0 -71 -27t-66 -65t-29 -68q-4 -22 -33 -22t-29 26t29 66q68 94 144 138t134 44q68 0 74 -70
q0 -90 -119 -368t-119 -353t72 -75q100 0 246 139q76 74 182 245t160 343q16 49 16 78q0 49 54 49t55 -39q0 -29 -131 -455q-68 -223 -68 -315z" />
    <glyph glyph-name="yacute" unicode="&#xfd;" horiz-adv-x="1150" 
d="M588 1073q-14 0 -24 8q-9 8 -9 20t91 120q91 107 126 161q35 55 82 56q63 0 64 -58q-2 -32 -60 -90t-229 -194q-27 -23 -41 -23zM1024 727q0 -187 -60 -413t-124 -376q-66 -150 -155 -279q-89 -128 -209 -201q-120 -72 -247 -72t-182 30t-55 65q0 36 18 55q18 20 48 20
t53 -31q45 -66 127 -66t147 31q262 123 471 789q4 12 4 19t-7 7t-13 -8q-227 -324 -498 -324q-70 0 -112 35t-42 94q0 106 96 362t97 333q0 51 -47 51q-25 0 -64 -25q-67 -43 -96 -131q-6 -16 -32 -16t-26 26t25 58q129 184 275 184q78 0 78 -76q0 -94 -100 -358t-99 -356
q0 -80 90 -80q143 0 290 130q253 225 253 478q0 107 -39 162q-39 56 -39 78t26 45t58 22q54 0 72 -88t18 -174z" />
    <glyph glyph-name="thorn" unicode="&#xfe;" horiz-adv-x="1157" 
d="M268 141q0 -31 33 -47q55 -26 141 -26t170 46q188 105 271 357q45 135 45 242q0 127 -101 127q-93 0 -195 -75t-229 -269q-78 -121 -120 -275q-15 -49 -15 -80zM535 1444q0 59 -97 74q-20 2 -20 26t18 27q131 27 194 50t64 24q20 0 21 -21q0 -10 -10 -38
q-9 -28 -133 -415t-156 -481t-33 -100q0 -6 9 -6t18 12q35 59 82 117q188 225 382 225q92 0 134 -53t43 -135q0 -242 -160 -463q-211 -295 -492 -295q-66 0 -112 7t-51 7q-14 0 -23 -29q-119 -403 -118 -444t23 -51t66 -10l56 2q24 0 24 -33t-28 -33l-74 4q-74 4 -139 4
l-187 -8q-27 0 -26 29q0 37 34 37l41 -2q47 0 73 36t65 164q207 715 483 1633q29 92 29 139z" />
    <glyph glyph-name="ydieresis" unicode="&#xff;" horiz-adv-x="1150" 
d="M891 1290q0 -36 -27 -64q-26 -28 -60 -28t-56 20t-23 58q0 38 27 64q28 26 62 26t56 -20t21 -56zM520 1366q78 0 78 -76q0 -36 -27 -64t-61 -28t-56 20t-22 58t27 64t61 26zM1024 727q0 -187 -60 -413t-124 -376q-66 -150 -155 -279q-89 -128 -209 -201
q-120 -72 -247 -72t-182 30t-55 65q0 36 18 55q18 20 48 20t53 -31q45 -66 127 -66t147 31q262 123 471 789q4 12 4 19t-7 7t-13 -8q-227 -324 -498 -324q-70 0 -112 35t-42 94q0 106 96 362t97 333q0 51 -47 51q-25 0 -64 -25q-67 -43 -96 -131q-6 -16 -32 -16t-26 26
t25 58q129 184 275 184q78 0 78 -76q0 -94 -100 -358t-99 -356q0 -80 90 -80q143 0 290 130q253 225 253 478q0 107 -39 162q-39 56 -39 78t26 45t58 22q54 0 72 -88t18 -174z" />
    <glyph glyph-name="Amacron" unicode="&#x100;" horiz-adv-x="1394" 
d="M1182 1567q0 -72 -60 -72h-411q-45 0 -45 35q0 76 59 76h412q45 0 45 -39zM522 628q0 -20 66 -20h270q66 0 66 35q0 6 -4 39l-68 453q-2 20 -12 20q-4 0 -23 -27l-270 -446q-25 -43 -25 -54zM993 147q0 45 -12 134l-31 190q-6 41 -16 52t-41 12h-393q-41 0 -70 -50
l-121 -202q-84 -141 -84 -177q0 -43 101 -43q10 0 26 3h17q27 0 26 -25q0 -43 -35 -43l-254 8l-165 -8q-29 0 -29 29q0 39 37 39q16 0 37 -3q51 0 92 43t123 175q262 424 575 942q37 57 47 96q12 29 37 39l60 18q18 0 18 -24q0 -84 160 -1071q18 -125 47 -179q23 -39 82 -39
l37 3q25 0 24 -29q0 -39 -39 -39l-194 8l-258 -8q-31 0 -31 34t36 34t50 -3q141 0 141 84z" />
    <glyph glyph-name="amacron" unicode="&#x101;" horiz-adv-x="1136" 
d="M1067 1198q0 -72 -59 -72h-373q-45 0 -45 35q0 76 59 76h373q45 0 45 -39zM856 770q0 86 -164 86t-313 -186q-86 -106 -138 -238q-93 -238 -22 -326q31 -37 90 -36q102 0 201 86q137 119 242 309q60 115 82 193t22 112zM815 133q0 -68 49 -67q39 0 86 34t79 75
q32 42 38 75q2 27 31 26q31 0 30 -30q0 -20 -30 -66q-50 -86 -138 -146t-161 -61q-86 0 -94 88q0 80 45 230q2 6 5 17q3 12 6 20t3 10q0 10 -11 10t-20 -14q-61 -98 -82 -125q-178 -238 -377 -238q-92 -1 -145 53t-53 144q0 242 184 477q221 283 475 283q61 0 93 -10t53 -18
q21 -7 33 -7q27 0 42 45q14 45 46 45t32 -27q0 -10 -64 -197q-154 -448 -155 -626z" />
    <glyph glyph-name="Abreve" unicode="&#x102;" horiz-adv-x="1394" 
d="M680 1677q0 88 45 88q27 0 27 -28q2 -84 43 -122t120 -38q158 0 207 156q14 32 41 32t27 -36q0 -101 -80 -181t-197 -80q-233 0 -233 209zM522 628q0 -20 66 -20h270q66 0 66 35q0 6 -4 39l-68 453q-2 20 -12 20q-4 0 -23 -27l-270 -446q-25 -43 -25 -54zM993 147
q0 45 -12 134l-31 190q-6 41 -16 52t-41 12h-393q-41 0 -70 -50l-121 -202q-84 -141 -84 -177q0 -43 101 -43q10 0 26 3h17q27 0 26 -25q0 -43 -35 -43l-254 8l-165 -8q-29 0 -29 29q0 39 37 39q16 0 37 -3q51 0 92 43t123 175q262 424 575 942q37 57 47 96q12 29 37 39
l60 18q18 0 18 -24q0 -84 160 -1071q18 -125 47 -179q23 -39 82 -39l37 3q25 0 24 -29q0 -39 -39 -39l-194 8l-258 -8q-31 0 -31 34t36 34t50 -3q141 0 141 84z" />
    <glyph glyph-name="abreve" unicode="&#x103;" horiz-adv-x="1136" 
d="M653 1366q27 0 27 -29q0 -162 139 -161q72 0 117 36t76 121q14 33 41 33t26 -35q1 -104 -71 -183t-176 -79t-165 49q-61 48 -61 148t47 100zM856 770q0 86 -164 86t-313 -186q-86 -106 -138 -238q-93 -238 -22 -326q31 -37 90 -36q102 0 201 86q137 119 242 309
q60 115 82 193t22 112zM815 133q0 -68 49 -67q39 0 86 34t79 75q32 42 38 75q2 27 31 26q31 0 30 -30q0 -20 -30 -66q-50 -86 -138 -146t-161 -61q-86 0 -94 88q0 80 45 230q2 6 5 17q3 12 6 20t3 10q0 10 -11 10t-20 -14q-61 -98 -82 -125q-178 -238 -377 -238
q-92 -1 -145 53t-53 144q0 242 184 477q221 283 475 283q61 0 93 -10t53 -18q21 -7 33 -7q27 0 42 45q14 45 46 45t32 -27q0 -10 -64 -197q-154 -448 -155 -626z" />
    <glyph glyph-name="Aogonek" unicode="&#x104;" horiz-adv-x="1394" 
d="M522 628q0 -20 66 -20h270q66 0 66 35q0 6 -4 39l-68 453q-2 20 -12 20q-5 0 -23 -27l-270 -446q-25 -43 -25 -54zM993 147q0 45 -12 134l-31 190q-6 41 -16 52t-41 12h-393q-41 -1 -70 -50l-121 -202q-84 -141 -84 -177q0 -43 101 -43q10 0 26 3h17q27 0 26 -25
q0 -43 -35 -43l-254 8l-165 -8q-29 0 -29 29q0 39 37 39q16 0 37 -3q51 0 92 43t123 175q262 424 575 942q37 57 47 96q12 29 37 39l60 18q18 0 18 -24q0 -84 160 -1071q18 -125 47 -179q23 -39 82 -39l37 3q25 0 24 -29q0 -39 -39 -39l-139 8q-14 0 -35 -10
q-188 -150 -188 -285q0 -117 117 -117q59 0 110 48q10 10 22 10t19 -9q19 -22 -14 -57q-88 -76 -203 -75q-76 0 -123 45t-47 114q0 150 190 301q16 12 17 21q0 12 -25 12l-153 -6q-31 0 -31 34t36 34t50 -3q141 0 141 84z" />
    <glyph glyph-name="aogonek" unicode="&#x105;" horiz-adv-x="1136" 
d="M856 770q0 86 -164 86t-313 -186q-86 -106 -138 -238q-93 -238 -22 -326q31 -37 90 -36q102 0 201 86q137 119 242 309q60 115 82 193t22 112zM815 133q0 -68 49 -67q39 0 86 34t79 75q32 42 38 75q2 27 31 26q31 0 30 -30q0 -20 -30 -66q-39 -68 -105 -121
q-65 -53 -105 -65t-57 -27q-154 -129 -153 -246q0 -113 119 -112q59 0 104 45q10 10 23 10q25 0 24 -29q0 -12 -20 -32q-84 -74 -197 -74q-74 0 -119 44t-45 112q0 133 162 268q14 14 14 22q1 8 -19 30t-20 79t24 135t27 89q3 12 6 20t3 10q0 10 -11 10t-20 -14
q-61 -98 -82 -125q-178 -238 -377 -238q-92 -1 -145 53t-53 144q0 242 184 477q221 283 475 283q61 0 93 -10t53 -18q21 -7 33 -7q27 0 42 45q14 45 46 45t32 -27q0 -10 -64 -197q-154 -448 -155 -626z" />
    <glyph glyph-name="Cacute" unicode="&#x106;" horiz-adv-x="1404" 
d="M846 1442q-22 0 -23 24q0 24 25 41q135 102 220 172t116 70q63 0 63 -70q0 -30 -59 -69q-148 -92 -234 -130t-108 -38zM1330 983q-40 0 -40 33q0 127 -39 186q-63 94 -301 94q-164 0 -294 -62q-244 -116 -333 -406q-42 -132 -42 -277q0 -227 121 -362q122 -134 343 -134
q264 0 378 146q17 23 27 36q9 13 30 48q20 35 26 45q12 28 42 28t30 -26q0 -16 -27 -95t-55 -121t-92 -69q-164 -72 -389 -72q-285 0 -425 160t-140 406q0 375 235 605q236 230 606 230q180 0 340 -53q49 -16 49 -57l-10 -250q0 -33 -40 -33z" />
    <glyph glyph-name="cacute" unicode="&#x107;" horiz-adv-x="837" 
d="M606 1073q-31 0 -33 27q1 10 17 30t91 111q75 90 110 143t81 54q63 0 64 -58q0 -32 -58 -90t-231 -194q-27 -23 -41 -23zM215 254q0 -84 47 -141t137 -57t163 45t106 99t34 62q6 29 33 29q13 0 25 -9t12 -30t-20 -47q-162 -233 -410 -234q-112 0 -178 72t-66 188
q0 269 166 489t395 220q83 0 135 -31t52 -82t-23 -73t-53 -23q-53 0 -63 47q0 90 -111 88q-82 0 -169 -72t-149 -216t-63 -324z" />
    <glyph glyph-name="Ccircumflex" unicode="&#x108;" horiz-adv-x="1404" 
d="M1239 1448q0 -31 -31 -31q-12 0 -32 17q-68 68 -124 116t-64 47q-8 0 -27 -10q-143 -106 -218 -155q-31 -27 -52 -4q-9 12 -9 22t22 30t259 246q25 25 44 25t35 -22q115 -163 156 -217t41 -64zM1330 983q-40 0 -40 33q0 127 -39 186q-63 94 -301 94q-164 0 -294 -62
q-244 -116 -333 -406q-42 -132 -42 -277q0 -227 121 -362q122 -134 343 -134q264 0 378 146q17 23 27 36q9 13 30 48q20 35 26 45q12 28 42 28t30 -26q0 -16 -27 -95t-55 -121t-92 -69q-164 -72 -389 -72q-285 0 -425 160t-140 406q0 375 235 605q236 230 606 230
q180 0 340 -53q49 -16 49 -57l-10 -250q0 -33 -40 -33z" />
    <glyph glyph-name="ccircumflex" unicode="&#x109;" horiz-adv-x="837" 
d="M476 1073q-13 0 -23 9q-23 21 2 44q207 244 258 310q20 26 46 26t34 -24q83 -208 109 -268t26 -69t-12 -19t-24 -9q-13 0 -28 17q-74 111 -116 184q-10 14 -18 14t-25 -16q-199 -199 -229 -199zM215 254q0 -84 47 -141t137 -57t163 45t106 99t34 62q6 29 33 29
q13 0 25 -9t12 -30t-20 -47q-162 -233 -410 -234q-112 0 -178 72t-66 188q0 269 166 489t395 220q83 0 135 -31t52 -82t-23 -73t-53 -23q-53 0 -63 47q0 90 -111 88q-82 0 -169 -72t-149 -216t-63 -324z" />
    <glyph glyph-name="Cdotaccent" unicode="&#x10a;" horiz-adv-x="1404" 
d="M1047 1524q0 -37 -25 -61q-24 -23 -58 -23t-59 24t-24 60t25 60t59 24t59 -24t23 -60zM1330 983q-40 0 -40 33q0 127 -39 186q-63 94 -301 94q-164 0 -294 -62q-244 -116 -333 -406q-42 -132 -42 -277q0 -227 121 -362q122 -134 343 -134q264 0 378 146q17 23 27 36
q9 13 30 48q20 35 26 45q12 28 42 28t30 -26q0 -16 -27 -95t-55 -121t-92 -69q-164 -72 -389 -72q-285 0 -425 160t-140 406q0 375 235 605q236 230 606 230q180 0 340 -53q49 -16 49 -57l-10 -250q0 -33 -40 -33z" />
    <glyph glyph-name="cdotaccent" unicode="&#x10b;" horiz-adv-x="837" 
d="M801 1249q0 -37 -27 -65q-26 -28 -60 -27t-57 21t-22 57q0 37 27 63q28 26 62 27t56 -19t21 -57zM215 254q0 -84 47 -141t137 -57t163 45t106 99t34 62q6 29 33 29q13 0 25 -9t12 -30t-20 -47q-162 -233 -410 -234q-112 0 -178 72t-66 188q0 269 166 489t395 220
q83 0 135 -31t52 -82t-23 -73t-53 -23q-53 0 -63 47q0 90 -111 88q-82 0 -169 -72t-149 -216t-63 -324z" />
    <glyph glyph-name="Ccaron" unicode="&#x10c;" horiz-adv-x="1404" 
d="M713 1761q0 31 30 31q12 0 33 -16q68 -68 124 -116t64 -48t27 10q143 106 188 138t59 32t24 -11q8 -11 8 -21t-22 -30t-259 -247q-25 -25 -44 -25t-36 23q-115 164 -155 217t-41 63zM1330 983q-40 0 -40 33q0 127 -39 186q-63 94 -301 94q-164 0 -294 -62
q-244 -116 -333 -406q-42 -132 -42 -277q0 -227 121 -362q122 -134 343 -134q264 0 378 146q17 23 27 36q9 13 30 48q20 35 26 45q12 28 42 28t30 -26q0 -16 -27 -95t-55 -121t-92 -69q-164 -72 -389 -72q-285 0 -425 160t-140 406q0 375 235 605q236 230 606 230
q180 0 340 -53q49 -16 49 -57l-10 -250q0 -33 -40 -33z" />
    <glyph glyph-name="ccaron" unicode="&#x10d;" horiz-adv-x="837" 
d="M931 1462q13 0 23 -9q22 -20 -2 -44q-206 -244 -242 -290t-62 -46t-34 25q-82 207 -108 267q-26 59 -27 69q0 10 11 19q10 9 24 9t29 -16q74 -111 116 -184q11 -14 19 -14t24 16q198 198 229 198zM215 254q0 -84 47 -141t137 -57t163 45t106 99t34 62q6 29 33 29
q13 0 25 -9t12 -30t-20 -47q-162 -233 -410 -234q-112 0 -178 72t-66 188q0 269 166 489t395 220q83 0 135 -31t52 -82t-23 -73t-53 -23q-53 0 -63 47q0 90 -111 88q-82 0 -169 -72t-149 -216t-63 -324z" />
    <glyph glyph-name="Dcaron" unicode="&#x10e;" horiz-adv-x="1533" 
d="M670 1761q0 31 30 31q12 0 33 -16q68 -68 124 -116q55 -48 63 -48t28 10q143 106 188 138q44 32 58 32t24 -11t9 -21q0 -10 -22 -30t-259 -247q-25 -25 -44 -25t-36 23q-116 164 -156 217t-40 63zM336 173q0 -36 19 -51q46 -36 319 -36q328 0 502 192t174 521
q0 92 -30 184t-81 141q-160 152 -500 152q-100 0 -134 -20t-52 -105l-197 -854q-20 -88 -20 -124zM0 32q0 34 31 34q18 0 39 -3q86 0 114 42t60 186l178 772q25 109 24 164q0 66 -118 65l-35 -2q-27 0 -27 27q0 41 37 41q6 0 59 -5t170 -5l240 6q313 0 483 -103
q105 -63 167 -176t63 -248q0 -421 -238 -625t-655 -204l-338 8l-227 -8q-27 0 -27 34z" />
    <glyph glyph-name="dcaron" unicode="&#x10f;" horiz-adv-x="1150" 
d="M1528 1430q0 -100 -69 -186t-175 -142q-48 -25 -68 4q-20 30 15 45q178 92 178 213q0 55 -59 90q-29 18 -29 51t28 58q27 25 73 25t76 -49q30 -48 30 -109zM860 758q0 37 -29 61q-51 41 -138 41t-173 -52t-145 -132q-186 -252 -187 -473q0 -57 30 -95t91 -38
q192 0 386 298q93 142 147 294q18 59 18 96zM1253 1622q0 -8 -49 -144t-178 -564q-129 -427 -168 -573q-39 -147 -39 -211t47 -64t117 55t92 133q6 22 33 22t27 -26q0 -16 -17 -45q-55 -98 -148 -165t-171 -67q-88 0 -88 85t53 257q6 19 6 27t-10 8t-23 -14
q-43 -69 -80 -121q-178 -244 -383 -244q-94 1 -146 61t-52 150q0 205 162 447q96 143 221 221t241 78t152 -18q38 -18 54 -17q16 0 30 39l113 373q27 88 26 139q-4 33 -24 49t-72 25q-21 2 -21 26t19 27q127 25 191 49t67 25q18 0 18 -23z" />
    <glyph glyph-name="Dcroat" unicode="&#x110;" horiz-adv-x="1533" 
d="M336 173q0 -36 19 -51q46 -36 319 -36q328 0 502 192t174 521q0 92 -30 184t-81 141q-160 152 -500 152q-100 0 -134 -20t-52 -105l-80 -348q-4 -16 -4 -23q0 -20 25 -20h352q33 0 33 -24q-1 -24 -9 -40t-43 -16h-358q-25 0 -31 -27l-82 -356q-20 -88 -20 -124zM31 66
q18 0 39 -3q86 1 114 43t60 185l80 346q4 16 4 22q0 20 -25 21h-176q-33 0 -33 25q0 54 43 55h191q25 0 30 24l64 279q25 109 24 164q0 66 -118 65l-35 -2q-27 0 -27 27q0 41 37 41q6 0 59 -5t170 -5l240 6q313 0 483 -103q105 -63 167 -176t63 -248q0 -421 -238 -625
t-655 -204l-338 8l-227 -8q-27 0 -27 34t31 34z" />
    <glyph glyph-name="dcroat" unicode="&#x111;" horiz-adv-x="1150" 
d="M860 758q0 37 -29 61q-51 41 -138 41t-173 -52t-145 -132q-186 -252 -187 -473q0 -57 30 -95t91 -38q192 0 386 298q93 142 147 294q18 59 18 96zM866 66q47 0 117 55t92 133q6 22 33 22t27 -26q0 -16 -17 -45q-55 -98 -148 -165t-171 -67q-88 0 -88 85t53 257q6 19 6 27
t-10 8t-23 -14q-43 -69 -80 -121q-178 -244 -383 -244q-94 1 -146 61t-52 150q0 205 162 447q96 143 221 221t241 78t152 -18q38 -18 54 -17q16 0 30 39l47 153q8 25 8 31q0 18 -24 19h-256q-33 0 -33 28q0 45 47 45h272q23 0 29 23l23 72q27 88 26 141q0 59 -96 74
q-21 2 -21 26t19 27q127 25 191 49t67 25q18 0 18 -23q-1 -8 -23 -68t-64 -191q-42 -132 -42 -143t23 -12h141q33 0 33 -24q0 -49 -43 -49h-162q-23 -1 -29 -21q-13 -43 -37 -123q-24 -79 -58 -191q-171 -562 -173 -673q0 -61 47 -61z" />
    <glyph glyph-name="Emacron" unicode="&#x112;" horiz-adv-x="1173" 
d="M1061 1567q0 -72 -60 -72h-411q-45 0 -45 35q0 76 59 76h412q45 0 45 -39zM1137 1354q32 0 32 -30q0 -18 -3 -43q-3 -26 -9 -85t-12 -111q-2 -31 -37 -31t-35 27q0 111 -29 152q-33 41 -204 41t-222 -4q-39 0 -49 -53l-94 -408q-6 -31 -6 -39q0 -27 72 -27q147 0 217 19
q31 12 51 42t45 101q10 31 40 31t30 -23q0 -12 -32 -135t-48 -270q-4 -27 -36 -27t-32 23l2 49q0 82 -38 99t-228 18q-41 0 -58 -10t-24 -39l-86 -379q-12 -54 -12 -96t61 -54t239 -12t247 35q68 35 109 105q15 26 42 73q14 25 43 25t29 -26t-34 -110t-62 -134t-76 -50
l-615 6l-288 -6q-27 0 -27 34t31 34q18 0 39 -3q80 0 110 40t64 188l178 772q25 109 24 164q0 66 -104 65l-49 -2q-27 0 -27 27q0 41 37 41q6 0 84 -5t207 -5z" />
    <glyph glyph-name="emacron" unicode="&#x113;" horiz-adv-x="851" 
d="M934 1198q0 -72 -60 -72h-372q-45 0 -45 35q0 76 59 76h373q45 0 45 -39zM258 525q0 -15 18 -15q8 0 25 4q213 54 314 118t102 148q-1 94 -105 94t-201 -97t-147 -224q-6 -13 -6 -28zM213 252q0 -80 48 -138t145 -59q166 0 264 142q16 23 32 63q10 33 35 33q35 0 35 -33
q0 -27 -22 -61q-145 -227 -398 -228q-118 0 -186 73t-68 179q0 164 70 321t182 263q142 137 314 137t172 -141q0 -133 -142 -209q-166 -90 -420 -143q-39 -8 -45 -41q-16 -78 -16 -158z" />
    <glyph glyph-name="Ebreve" unicode="&#x114;" horiz-adv-x="1173" 
d="M553 1677q0 88 45 88q27 0 27 -28q2 -84 43 -122t120 -38q158 0 207 156q14 32 41 32t27 -36q0 -101 -80 -181t-197 -80q-233 0 -233 209zM1137 1354q32 0 32 -30q0 -18 -3 -43q-3 -26 -9 -85t-12 -111q-2 -31 -37 -31t-35 27q0 111 -29 152q-33 41 -204 41t-222 -4
q-39 0 -49 -53l-94 -408q-6 -31 -6 -39q0 -27 72 -27q147 0 217 19q31 12 51 42t45 101q10 31 40 31t30 -23q0 -12 -32 -135t-48 -270q-4 -27 -36 -27t-32 23l2 49q0 82 -38 99t-228 18q-41 0 -58 -10t-24 -39l-86 -379q-12 -54 -12 -96t61 -54t239 -12t247 35
q68 35 109 105q15 26 42 73q14 25 43 25t29 -26t-34 -110t-62 -134t-76 -50l-615 6l-288 -6q-27 0 -27 34t31 34q18 0 39 -3q80 0 110 40t64 188l178 772q25 109 24 164q0 66 -104 65l-49 -2q-27 0 -27 27q0 41 37 41q6 0 84 -5t207 -5z" />
    <glyph glyph-name="ebreve" unicode="&#x115;" horiz-adv-x="851" 
d="M449 1266q0 100 47 100q27 0 26 -29q0 -162 140 -161q72 0 116 36t76 121q14 33 41 33t27 -35q0 -104 -72 -183t-176 -79t-165 49q-60 48 -60 148zM258 525q0 -15 18 -15q8 0 25 4q213 54 314 118t102 148q-1 94 -105 94t-201 -97t-147 -224q-6 -13 -6 -28zM213 252
q0 -80 48 -138t145 -59q166 0 264 142q16 23 32 63q10 33 35 33q35 0 35 -33q0 -27 -22 -61q-145 -227 -398 -228q-118 0 -186 73t-68 179q0 164 70 321t182 263q142 137 314 137t172 -141q0 -133 -142 -209q-166 -90 -420 -143q-39 -8 -45 -41q-16 -78 -16 -158z" />
    <glyph glyph-name="Edotaccent" unicode="&#x116;" horiz-adv-x="1173" 
d="M860 1524q0 -37 -24 -61q-24 -23 -59 -23t-59 24t-24 60t25 60t59 24t58 -24t24 -60zM1137 1354q32 0 32 -30q0 -18 -3 -43q-3 -26 -9 -85t-12 -111q-2 -31 -37 -31t-35 27q0 111 -29 152q-33 41 -204 41t-222 -4q-39 0 -49 -53l-94 -408q-6 -31 -6 -39q0 -27 72 -27
q147 0 217 19q31 12 51 42t45 101q10 31 40 31t30 -23q0 -12 -32 -135t-48 -270q-4 -27 -36 -27t-32 23l2 49q0 82 -38 99t-228 18q-41 0 -58 -10t-24 -39l-86 -379q-12 -54 -12 -96t61 -54t239 -12t247 35q68 35 109 105q15 26 42 73q14 25 43 25t29 -26t-34 -110t-62 -134
t-76 -50l-615 6l-288 -6q-27 0 -27 34t31 34q18 0 39 -3q80 0 110 40t64 188l178 772q25 109 24 164q0 66 -104 65l-49 -2q-27 0 -27 27q0 41 37 41q6 0 84 -5t207 -5z" />
    <glyph glyph-name="edotaccent" unicode="&#x117;" horiz-adv-x="851" 
d="M803 1249q0 -37 -27 -65q-26 -28 -60 -27t-57 21t-22 57q0 37 27 63q28 26 62 27t56 -19t21 -57zM258 525q0 -15 18 -15q8 0 25 4q213 54 314 118t102 148q-1 94 -105 94t-201 -97t-147 -224q-6 -13 -6 -28zM213 252q0 -80 48 -138t145 -59q166 0 264 142q16 23 32 63
q10 33 35 33q35 0 35 -33q0 -27 -22 -61q-145 -227 -398 -228q-118 0 -186 73t-68 179q0 164 70 321t182 263q142 137 314 137t172 -141q0 -133 -142 -209q-166 -90 -420 -143q-39 -8 -45 -41q-16 -78 -16 -158z" />
    <glyph glyph-name="Eogonek" unicode="&#x118;" horiz-adv-x="1173" 
d="M1137 1354q32 0 32 -30q0 -18 -3 -43q-3 -26 -9 -85t-12 -111q-2 -31 -37 -31t-35 27q0 111 -29 152q-33 41 -219 41q-104 0 -207 -4q-39 0 -49 -53l-94 -408q-6 -31 -6 -39q0 -27 72 -27q162 1 205 15t63 44t45 103q10 31 40 31t30 -23q0 -12 -32 -135t-48 -270
q-4 -27 -36 -27t-32 23l2 49q0 82 -38 99t-228 18q-41 0 -58 -10t-24 -39l-86 -379q-12 -54 -12 -96t61 -54t239 -12t247 35q68 35 109 105q15 26 42 73q14 25 43 25t29 -26t-34 -110t-60 -132t-90 -52q-23 0 -35 -12q-178 -140 -178 -266t116 -126q59 0 111 48q10 10 21 10
t19 -9q21 -22 -14 -57q-88 -76 -202 -75q-76 0 -123 45t-47 114q0 141 184 295q18 15 18 25t-24 10q-263 4 -449 4l-288 -6q-27 0 -27 34t31 34q18 0 39 -3q80 0 110 40t64 188l178 772q25 109 24 164q0 66 -104 65l-49 -2q-27 0 -27 27q0 41 37 41q6 0 84 -5t207 -5z" />
    <glyph glyph-name="eogonek" unicode="&#x119;" horiz-adv-x="851" 
d="M258 525q0 -15 18 -15q8 0 25 4q213 54 314 118t102 148q-1 94 -105 94t-201 -97t-147 -224q-6 -13 -6 -28zM213 252q0 -80 48 -138t145 -59q166 0 264 142q16 23 32 63q10 33 35 33q35 0 35 -33q0 -27 -22 -61q-115 -178 -295 -215q-27 -10 -33 -17q-152 -127 -152 -246
q0 -113 119 -112q59 0 105 45q10 10 22 10q25 0 25 -29q0 -12 -21 -32q-82 -74 -196 -74q-74 0 -119 44t-45 112q0 127 145 254q16 16 17 22q0 8 -31 16q-90 17 -141 87t-52 159q0 164 70 321t182 263q142 137 314 137t172 -141q0 -133 -142 -209q-166 -90 -420 -143
q-39 -8 -45 -41q-16 -78 -16 -158z" />
    <glyph glyph-name="Ecaron" unicode="&#x11a;" horiz-adv-x="1173" 
d="M543 1761q0 31 30 31q12 0 33 -16q68 -68 124 -116t64 -48t27 10q143 106 188 138t59 32t22 -11q10 -11 10 -21t-22 -30t-259 -247q-25 -25 -44 -25t-36 23q-115 164 -155 217t-41 63zM1137 1354q32 0 32 -30q0 -18 -3 -43q-3 -26 -9 -85t-12 -111q-2 -31 -37 -31t-35 27
q0 111 -29 152q-33 41 -204 41t-222 -4q-39 0 -49 -53l-94 -408q-6 -31 -6 -39q0 -27 72 -27q147 0 217 19q31 12 51 42t45 101q10 31 40 31t30 -23q0 -12 -32 -135t-48 -270q-4 -27 -36 -27t-32 23l2 49q0 82 -38 99t-228 18q-41 0 -58 -10t-24 -39l-86 -379
q-12 -54 -12 -96t61 -54t239 -12t247 35q68 35 109 105q15 26 42 73q14 25 43 25t29 -26t-34 -110t-62 -134t-76 -50l-615 6l-288 -6q-27 0 -27 34t31 34q18 0 39 -3q80 0 110 40t64 188l178 772q25 109 24 164q0 66 -104 65l-49 -2q-27 0 -27 27q0 41 37 41q6 0 84 -5
t207 -5z" />
    <glyph glyph-name="ecaron" unicode="&#x11b;" horiz-adv-x="851" 
d="M908 1462q14 0 24 -9t10 -20t-12 -24q-206 -244 -242 -290t-62 -46t-34 25q-82 207 -108 267q-26 59 -27 69q0 10 11 19q10 9 24 9t28 -16q74 -111 117 -184q10 -14 18 -14t25 16q198 198 228 198zM258 525q0 -15 18 -15q8 0 25 4q213 54 314 118t102 148q-1 94 -105 94
t-201 -97t-147 -224q-6 -13 -6 -28zM213 252q0 -80 48 -138t145 -59q166 0 264 142q16 23 32 63q10 33 35 33q35 0 35 -33q0 -27 -22 -61q-145 -227 -398 -228q-118 0 -186 73t-68 179q0 164 70 321t182 263q142 137 314 137t172 -141q0 -133 -142 -209q-166 -90 -420 -143
q-39 -8 -45 -41q-16 -78 -16 -158z" />
    <glyph glyph-name="Gcircumflex" unicode="&#x11c;" horiz-adv-x="1521" 
d="M1249 1448q0 -31 -30 -31q-12 0 -33 17q-68 68 -124 116t-64 47q-8 0 -27 -10q-143 -106 -217 -155q-33 -29 -54 -4q-8 12 -8 22t22 30t259 246q25 25 44 25t36 -22q115 -163 155 -217t41 -64zM1342 983q-40 0 -39 29q-4 137 -35 184q-63 100 -336 100q-202 0 -354 -106
t-224 -267t-71 -345q0 -238 131 -380t364 -142t322 79q39 33 58 137t20 144q0 76 -88 76l-66 -3q-27 0 -27 31q1 16 11 30t21 13q11 0 66 -5t165 -5t147 5t41 5q35 0 35 -28q0 -45 -33 -46q-17 -1 -58 1q-40 2 -70 -34t-50 -163t-21 -146l9 -55q0 -33 -42 -38t-94 -19
q-215 -59 -368 -60q-295 0 -451 160t-155 404q0 360 228 599t605 238q209 0 360 -55q49 -17 49 -51t-3 -114l-7 -140q0 -33 -40 -33z" />
    <glyph glyph-name="gcircumflex" unicode="&#x11d;" horiz-adv-x="940" 
d="M396 1073q-13 0 -23 9q-23 21 2 44q207 244 258 310q20 26 46 26t34 -24q83 -208 109 -268t26 -69t-11 -19t-25 -9q-14 0 -28 17q-74 111 -116 184q-10 14 -18 14t-25 -16q-199 -199 -229 -199zM29 -324q1 -104 111 -166t279 -61q169 0 260 74t91 157t-76 136
q-142 94 -284 94t-277 -72q-104 -58 -104 -162zM709 710q1 79 -49 125t-132 46q-128 0 -204 -122t-76 -245q0 -70 48 -126t140 -56t159 67q114 116 114 311zM256 129q0 -80 164 -115q270 -55 365 -123q95 -69 95 -191t-123 -220q-125 -98 -355 -98t-357 84t-127 194
q0 152 186 236q96 44 150 52q56 9 55 19q0 10 -18 15q-154 35 -154 120q0 92 142 150q35 12 34 24q0 8 -18 17q-156 72 -156 244q0 173 116 289t286 116q109 0 196 -57q42 -32 84 10q61 63 121 63q88 0 88 -65q0 -45 -22 -71t-55 -26q-34 0 -60 20q-26 19 -49 20
q-33 0 -33 -60l10 -80q0 -203 -137 -323q-72 -59 -199 -103q-112 -28 -157 -53q-72 -35 -72 -88z" />
    <glyph glyph-name="Gbreve" unicode="&#x11e;" horiz-adv-x="1521" 
d="M778 1765q27 0 27 -28q2 -84 43 -122t121 -38q158 0 207 156q13 32 40 32t27 -36q0 -101 -80 -181t-196 -80q-233 0 -234 209q0 88 45 88zM1342 983q-40 0 -39 29q-4 137 -35 184q-63 100 -336 100q-202 0 -354 -106t-224 -267t-71 -345q0 -238 131 -380t364 -142t322 79
q39 33 58 137t20 144q0 76 -88 76l-66 -3q-27 0 -27 31q1 16 11 30t21 13q11 0 66 -5t165 -5t147 5t41 5q35 0 35 -28q0 -45 -33 -46q-17 -1 -58 1q-40 2 -70 -34t-50 -163t-21 -146l9 -55q0 -33 -42 -38t-94 -19q-215 -59 -368 -60q-295 0 -451 160t-155 404q0 360 228 599
t605 238q209 0 360 -55q49 -17 49 -51t-3 -114l-7 -140q0 -33 -40 -33z" />
    <glyph glyph-name="gbreve" unicode="&#x11f;" horiz-adv-x="940" 
d="M377 1266q0 100 47 100q27 0 27 -29q0 -162 139 -161q72 0 117 36t75 121q14 33 41 33t27 -35q0 -104 -71 -183t-176 -79t-166 49q-60 48 -60 148zM29 -324q1 -104 111 -166t279 -61q169 0 260 74t91 157t-76 136q-142 94 -284 94t-277 -72q-104 -58 -104 -162zM709 710
q1 79 -49 125t-132 46q-128 0 -204 -122t-76 -245q0 -70 48 -126t140 -56t159 67q114 116 114 311zM256 129q0 -80 164 -115q270 -55 365 -123q95 -69 95 -191t-123 -220q-125 -98 -355 -98t-357 84t-127 194q0 152 186 236q96 44 150 52q56 9 55 19q0 10 -18 15
q-154 35 -154 120q0 92 142 150q35 12 34 24q0 8 -18 17q-156 72 -156 244q0 173 116 289t286 116q109 0 196 -57q42 -32 84 10q61 63 121 63q88 0 88 -65q0 -45 -22 -71t-55 -26q-34 0 -60 20q-26 19 -49 20q-33 0 -33 -60l10 -80q0 -203 -137 -323q-72 -59 -199 -103
q-112 -28 -157 -53q-72 -35 -72 -88z" />
    <glyph glyph-name="Gdotaccent" unicode="&#x120;" horiz-adv-x="1521" 
d="M1057 1524q0 -37 -25 -61q-24 -23 -58 -23t-59 24t-24 60t25 60t59 24t59 -24t23 -60zM1342 983q-40 0 -39 29q-4 137 -35 184q-63 100 -336 100q-202 0 -354 -106t-224 -267t-71 -345q0 -238 131 -380t364 -142t322 79q39 33 58 137t20 144q0 76 -88 76l-66 -3
q-27 0 -27 31q1 16 11 30t21 13q11 0 66 -5t165 -5t147 5t41 5q35 0 35 -28q0 -45 -33 -46q-17 -1 -58 1q-40 2 -70 -34t-50 -163t-21 -146l9 -55q0 -33 -42 -38t-94 -19q-215 -59 -368 -60q-295 0 -451 160t-155 404q0 360 228 599t605 238q209 0 360 -55q49 -17 49 -51
t-3 -114l-7 -140q0 -33 -40 -33z" />
    <glyph glyph-name="gdotaccent" unicode="&#x121;" horiz-adv-x="940" 
d="M606 1325q78 0 78 -76q0 -37 -27 -65t-61 -27t-56 21t-22 57t27 63t61 27zM29 -324q1 -104 111 -166t279 -61q169 0 260 74t91 157t-76 136q-142 94 -284 94t-277 -72q-104 -58 -104 -162zM709 710q1 79 -49 125t-132 46q-128 0 -204 -122t-76 -245q0 -70 48 -126
t140 -56t159 67q114 116 114 311zM256 129q0 -80 164 -115q270 -55 365 -123q95 -69 95 -191t-123 -220q-125 -98 -355 -98t-357 84t-127 194q0 152 186 236q96 44 150 52q56 9 55 19q0 10 -18 15q-154 35 -154 120q0 92 142 150q35 12 34 24q0 8 -18 17q-156 72 -156 244
q0 173 116 289t286 116q109 0 196 -57q42 -32 84 10q61 63 121 63q88 0 88 -65q0 -45 -22 -71t-55 -26q-34 0 -60 20q-26 19 -49 20q-33 0 -33 -60l10 -80q0 -203 -137 -323q-72 -59 -199 -103q-112 -28 -157 -53q-72 -35 -72 -88z" />
    <glyph glyph-name="Gcommaaccent" unicode="&#x122;" horiz-adv-x="1521" 
d="M827 -262q-1 -98 -71 -183t-176 -143q-27 -14 -43 -14q-27 0 -27 33q0 16 20 24q178 92 179 217q0 47 -60 90q-29 14 -29 50t28 60t74 24t76 -48t29 -110zM1342 983q-40 0 -39 29q-4 137 -35 184q-63 100 -336 100q-202 0 -354 -106t-224 -267t-71 -345q0 -238 131 -380
t364 -142t322 79q39 33 58 137t20 144q0 76 -88 76l-66 -3q-27 0 -27 31q1 16 11 30t21 13q11 0 66 -5t165 -5t147 5t41 5q35 0 35 -28q0 -45 -33 -46q-17 -1 -58 1q-40 2 -70 -34t-50 -163t-21 -146l9 -55q0 -33 -42 -38t-94 -19q-215 -59 -368 -60q-295 0 -451 160
t-155 404q0 360 228 599t605 238q209 0 360 -55q49 -17 49 -51t-3 -114l-7 -140q0 -33 -40 -33z" />
    <glyph glyph-name="gcommaaccent" unicode="&#x123;" horiz-adv-x="940" 
d="M481 1198q0 100 69 185t175 143q27 14 41 14t24 -13t9 -27q0 -14 -21 -23q-178 -92 -178 -213q0 -55 59 -90q29 -18 29 -52t-28 -58t-74 -24t-75 48q-30 48 -30 110zM29 -324q1 -104 111 -166t279 -61q169 0 260 74t91 157t-76 136q-142 94 -284 94t-277 -72
q-104 -58 -104 -162zM709 710q1 79 -49 125t-132 46q-128 0 -204 -122t-76 -245q0 -70 48 -126t140 -56t159 67q114 116 114 311zM256 129q0 -80 164 -115q270 -55 365 -123q95 -69 95 -191t-123 -220q-125 -98 -355 -98t-357 84t-127 194q0 152 186 236q96 44 150 52
q56 9 55 19q0 10 -18 15q-154 35 -154 120q0 92 142 150q35 12 34 24q0 8 -18 17q-156 72 -156 244q0 173 116 289t286 116q109 0 196 -57q42 -32 84 10q61 63 121 63q88 0 88 -65q0 -45 -22 -71t-55 -26q-34 0 -60 20q-26 19 -49 20q-33 0 -33 -60l10 -80q0 -203 -137 -323
q-72 -59 -199 -103q-112 -28 -157 -53q-72 -35 -72 -88z" />
    <glyph glyph-name="Hcircumflex" unicode="&#x124;" horiz-adv-x="1587" 
d="M1272 1448q0 -31 -31 -31q-12 0 -33 17q-68 68 -124 116t-63 47q-7 0 -28 -10q-143 -106 -217 -155q-32 -28 -52 -4q-9 12 -9 22q-1 10 21 30t259 246q25 25 44 25t36 -22q115 -163 156 -217t41 -64zM481 -2q-6 0 -40 3t-88 6t-109 3q-56 0 -106 -3t-79 -6t-32 -3
q-27 0 -27 34t31 34q18 0 39 -3q80 0 110 40t64 188l178 772q25 109 24 164q0 66 -118 65l-35 -2q-27 0 -27 27q0 41 37 41q6 0 72 -6t141 -6q76 0 126 3t79 6t33 3q26 0 26 -34t-30 -34l-39 2q-80 0 -111 -40t-65 -193l-54 -234q-8 -33 -8 -47q0 -20 23 -25t102 -5h535
q61 0 77 4q31 6 39 45l62 266q25 106 24 164q0 66 -118 65l-35 -2q-27 0 -27 34t31 34q6 0 41 -3t89 -6t109 -3t105 3t80 6q29 3 32 3q27 0 27 -34t-31 -34l-39 2q-81 0 -111 -40t-65 -193l-176 -766q-25 -106 -24 -172q0 -57 123 -58l34 3q27 0 27 -31q0 -37 -37 -37
q-6 0 -40 3t-88 6t-109 3t-105 -3t-80 -6q-29 -3 -33 -3q-27 0 -27 34t32 34q20 0 38 -3q80 0 111 40t64 188l69 305q6 25 6 39q0 33 -78 33h-548q-98 0 -120 -6t-28 -39l-76 -330q-25 -109 -24 -168q0 -61 123 -62l35 3q27 0 26 -31q0 -37 -37 -37z" />
    <glyph glyph-name="hcircumflex" unicode="&#x125;" horiz-adv-x="1193" 
d="M1001 1673q0 -31 -30 -31q-12 0 -33 17q-68 67 -124 115t-64 48t-27 -10q-143 -106 -217 -155q-33 -29 -52 -4q-19 24 8 48q26 24 263 251q46 46 80 2q115 -164 155 -218t41 -63zM380 547q7 0 13 10q70 111 150 197q180 190 358 190q115 0 121 -96q0 -66 -106 -367
t-107 -370q0 -45 43 -45t93 34t82 81q32 48 37 72q5 23 33 23q27 0 27 -33t-67 -113q-67 -81 -139 -119t-127 -38q-98 0 -99 90q0 63 104 346t103 367q0 60 -74 60t-159 -62q-135 -96 -258 -289q-86 -135 -134 -323q-10 -39 -10 -123q0 -49 -45 -49q-78 0 -78 47q0 15 13 61
q14 46 150 500t186 630q50 175 51 216q-5 33 -25 49t-72 25q-20 2 -20 26t18 27q127 25 191 49t67 25q18 0 19 -23l-346 -1067q0 -8 7 -8z" />
    <glyph glyph-name="Hbar" unicode="&#x126;" horiz-adv-x="1587" 
d="M1280 934q0 20 -25 20h-720q-23 0 -31 -28l-23 -97q-8 -33 -8 -52t23 -24t102 -5h535q61 0 77 4q31 6 39 45l27 112q4 16 4 25zM1407 35q0 -37 -37 -37q-6 0 -40 3t-88 6t-109 3t-105 -3t-80 -6q-29 -3 -33 -3q-27 0 -27 34t32 34q20 0 38 -3q80 0 111 40t64 188l69 305
q6 25 6 39q0 33 -78 33h-548q-98 0 -120 -6t-28 -39l-76 -330q-25 -109 -24 -168q0 -61 123 -62l35 3q27 0 26 -31q0 -37 -37 -37q-6 0 -40 3t-88 6t-109 3q-56 0 -106 -3t-79 -6t-32 -3q-27 0 -27 34t31 34q18 0 39 -3q80 0 110 40t64 188l143 618q4 25 4 27q0 18 -24 18
h-121q-33 0 -33 31q0 49 47 49h131q25 0 31 29q25 109 24 164q0 66 -118 65l-35 -2q-27 0 -27 27q0 41 37 41q6 0 72 -6t141 -6q76 0 126 3t79 6t33 3q26 0 26 -34t-30 -34l-39 2q-80 0 -110 -39t-62 -178q-4 -12 -4 -26t24 -15h721q25 0 31 27q25 106 24 166q0 66 -118 65
l-35 -2q-27 0 -27 34t31 34q6 0 41 -3t89 -6t109 -3t105 3t80 6q29 3 32 3q27 0 27 -34t-31 -34l-39 2q-81 0 -111 -40t-63 -187q-2 -8 -2 -14q0 -16 25 -17h121q33 0 33 -26q0 -53 -43 -54h-136q-24 1 -30 -30l-146 -631q-25 -106 -24 -172q0 -57 123 -58l34 3q27 0 27 -31
z" />
    <glyph glyph-name="hbar" unicode="&#x127;" horiz-adv-x="1193" 
d="M373 553q0 -6 7 -6t13 10q70 111 150 197q180 190 358 190q121 0 121 -96q0 -66 -106 -367t-107 -370q0 -45 43 -45t93 34t82 81q32 48 37 72q5 23 33 23q27 0 27 -33t-67 -113q-67 -81 -139 -119t-127 -38q-98 0 -99 90q0 63 104 346t103 367q0 60 -74 60t-159 -62
q-135 -96 -258 -289q-86 -135 -134 -323q-10 -39 -10 -123q0 -49 -45 -49q-78 0 -78 47q0 16 6 39l297 997q12 31 13 43q0 18 -25 19h-125q-33 0 -33 28q0 45 48 45h139q25 0 28 23q52 159 52 216q0 56 -97 71q-20 2 -20 26t18 27q127 25 191 49t67 25q18 0 19 -23
q0 -8 -6 -23l-117 -360q-2 -4 -2 -10q0 -20 24 -21h267q33 0 33 -24q0 -49 -44 -49h-288q-25 0 -31 -25q-111 -354 -147 -452t-35 -105z" />
    <glyph glyph-name="Itilde" unicode="&#x128;" horiz-adv-x="700" 
d="M723 1575q63 0 90 90q8 25 33 25t24 -25q0 -9 -18 -63t-56 -93q-36 -39 -96 -39t-144 48q-85 48 -126 49q-59 0 -100 -92q-10 -18 -31 -19q-27 0 -27 25q0 8 11 39q68 158 176 157q31 0 120 -51t144 -51zM483 -2q-6 0 -41 3t-89 6t-109 3q-56 0 -106 -3t-79 -6t-32 -3
q-27 0 -27 34t31 34q18 0 39 -3q80 0 110 40t64 188l178 772q25 109 24 164q0 66 -118 65l-35 -2q-27 0 -27 27q0 41 37 41q6 0 74 -6t142 -6q75 0 125 3t79 6t33 3q26 0 26 -34t-30 -34l-39 2q-80 0 -111 -40t-65 -193l-177 -766q-25 -109 -24 -168q0 -61 123 -62l35 3
q27 0 26 -31q0 -37 -37 -37z" />
    <glyph glyph-name="itilde" unicode="&#x129;" horiz-adv-x="671" 
d="M582 1239q47 0 75 84q8 25 33 25t25 -27q-1 -11 -21 -63t-57 -90t-86 -38t-125 44t-104 45q-54 0 -93 -89q-9 -18 -33 -18t-24 25q0 7 26 69q51 122 154 123q29 0 106 -45t124 -45zM285 111q0 -45 43 -45t93 34t82 81q32 48 37 72q4 23 32 23t28 -32t-68 -113
q-68 -82 -142 -120q-73 -38 -124 -38q-98 0 -98 90q2 61 104 352t103 349q0 58 -10 70q-10 14 -38 14t-68 -27t-62 -63q-23 -36 -27 -58t-32 -22t-27 27q0 20 18 47q55 90 137 141t146 51q84 0 84 -94q0 -74 -106 -370t-105 -369z" />
    <glyph glyph-name="Imacron" unicode="&#x12a;" horiz-adv-x="700" 
d="M827 1567q0 -72 -59 -72h-412q-45 0 -45 35q0 76 60 76h411q45 0 45 -39zM483 -2q-6 0 -41 3t-89 6t-109 3q-56 0 -106 -3t-79 -6t-32 -3q-27 0 -27 34t31 34q18 0 39 -3q80 0 110 40t64 188l178 772q25 109 24 164q0 66 -118 65l-35 -2q-27 0 -27 27q0 41 37 41
q6 0 74 -6t142 -6q75 0 125 3t79 6t33 3q26 0 26 -34t-30 -34l-39 2q-80 0 -111 -40t-65 -193l-177 -766q-25 -109 -24 -168q0 -61 123 -62l35 3q27 0 26 -31q0 -37 -37 -37z" />
    <glyph glyph-name="imacron" unicode="&#x12b;" horiz-adv-x="671" 
d="M698 1198q0 -72 -59 -72h-373q-45 0 -45 35q0 76 60 76h372q45 0 45 -39zM285 111q0 -45 43 -45t93 34t82 81q32 48 37 72q4 23 32 23t28 -32t-68 -113q-68 -82 -142 -120q-73 -38 -124 -38q-98 0 -98 90q2 61 104 352t103 349q0 58 -10 70q-10 14 -38 14t-68 -27
t-62 -63q-23 -36 -27 -58t-32 -22t-27 27q0 20 18 47q55 90 137 141t146 51q84 0 84 -94q0 -74 -106 -370t-105 -369z" />
    <glyph glyph-name="Ibreve" unicode="&#x12c;" horiz-adv-x="700" 
d="M336 1677q0 88 45 88q27 0 27 -28q2 -84 43 -122t120 -38q158 0 207 156q14 32 41 32t27 -36q0 -101 -80 -181t-197 -80q-233 0 -233 209zM483 -2q-6 0 -41 3t-89 6t-109 3q-56 0 -106 -3t-79 -6t-32 -3q-27 0 -27 34t31 34q18 0 39 -3q80 0 110 40t64 188l178 772
q25 109 24 164q0 66 -118 65l-35 -2q-27 0 -27 27q0 41 37 41q6 0 74 -6t142 -6q75 0 125 3t79 6t33 3q26 0 26 -34t-30 -34l-39 2q-80 0 -111 -40t-65 -193l-177 -766q-25 -109 -24 -168q0 -61 123 -62l35 3q27 0 26 -31q0 -37 -37 -37z" />
    <glyph glyph-name="ibreve" unicode="&#x12d;" horiz-adv-x="671" 
d="M248 1266q0 100 47 100q27 0 27 -29q0 -162 139 -161q72 0 117 36t75 121q14 33 41 33t27 -35q0 -104 -72 -183t-176 -79t-165 49q-60 48 -60 148zM285 111q0 -45 43 -45t93 34t82 81q32 48 37 72q4 23 32 23t28 -32t-68 -113q-68 -82 -142 -120q-73 -38 -124 -38
q-98 0 -98 90q2 61 104 352t103 349q0 58 -10 70q-10 14 -38 14t-68 -27t-62 -63q-23 -36 -27 -58t-32 -22t-27 27q0 20 18 47q55 90 137 141t146 51q84 0 84 -94q0 -74 -106 -370t-105 -369z" />
    <glyph glyph-name="Iogonek" unicode="&#x12e;" horiz-adv-x="700" 
d="M100 -281q0 -125 117 -125q59 0 111 48q10 10 21 10t19 -9q21 -22 -14 -57q-88 -76 -202 -75q-76 0 -123 45t-47 114q0 152 196 305q14 10 15 21q0 12 -32 12t-63 -2t-49 -5t-22 -3q-27 0 -27 34t31 34q18 0 39 -3q80 0 110 40t64 188l178 772q25 109 24 164
q0 66 -118 65l-35 -2q-27 0 -27 27q0 41 37 41q6 0 74 -6t142 -6q75 0 125 3t79 6t33 3q26 0 26 -34t-30 -34l-39 2q-81 0 -111 -40t-65 -193l-177 -766q-25 -109 -24 -168q0 -61 123 -62l35 3q27 0 26 -31q0 -37 -37 -37l-153 10q-23 0 -37 -10q-193 -154 -193 -279z" />
    <glyph glyph-name="iogonek" unicode="&#x12f;" horiz-adv-x="671" 
d="M514 1237q-74 0 -76 74q0 49 27 78t61 29t54 -21t21 -61t-23 -70t-64 -29zM285 111q0 -45 43 -45t93 34t82 81q32 48 37 72q4 23 32 23t28 -32t-80 -126q-80 -95 -188 -132q-16 -4 -27 -15q-156 -131 -155 -250q0 -113 118 -112q59 0 105 45q10 10 22 10q25 0 25 -29
q0 -12 -21 -32q-84 -74 -196 -74q-74 0 -119 44t-45 112q0 131 160 264q12 12 12 20q1 8 -21 29q-22 22 -21 74t103 343t103 349q0 58 -10 70q-10 14 -38 14t-68 -27t-62 -63q-23 -36 -27 -58t-32 -22t-27 27q0 20 18 47q55 90 137 141t146 51q84 0 84 -94q0 -74 -106 -370
t-105 -369z" />
    <glyph glyph-name="Idotaccent" unicode="&#x130;" horiz-adv-x="700" 
d="M641 1524q0 -37 -25 -61q-24 -23 -58 -23t-58 24t-25 60q0 36 25 60q26 24 60 24t58 -24t23 -60zM483 -2q-6 0 -41 3t-89 6t-109 3q-56 0 -106 -3t-79 -6t-32 -3q-27 0 -27 34t31 34q18 0 39 -3q80 0 110 40t64 188l178 772q25 109 24 164q0 66 -118 65l-35 -2
q-27 0 -27 27q0 41 37 41q6 0 74 -6t142 -6q75 0 125 3t79 6t33 3q26 0 26 -34t-30 -34l-39 2q-80 0 -111 -40t-65 -193l-177 -766q-25 -109 -24 -168q0 -61 123 -62l35 3q27 0 26 -31q0 -37 -37 -37z" />
    <glyph glyph-name="dotlessi" unicode="&#x131;" horiz-adv-x="671" 
d="M285 111q0 -45 43 -45t93 34t82 81q32 48 37 72q4 23 32 23t28 -32t-68 -113q-68 -82 -142 -120q-73 -38 -124 -38q-98 0 -98 90q2 61 104 352t103 349q0 58 -10 70q-10 14 -38 14t-68 -27t-62 -63q-23 -36 -27 -58t-32 -22t-27 27q0 20 18 47q55 90 137 141t146 51
q84 0 84 -94q0 -74 -106 -370t-105 -369z" />
    <glyph glyph-name="IJ" unicode="&#x132;" horiz-adv-x="1413" 
d="M494 -188q0 37 21 55q23 18 51 18q28 1 52 -23t89 -24q137 0 200 156q53 129 250 1067q23 111 23 164q0 68 -115 67l-51 -2q-27 0 -27 27q0 41 37 41q6 0 80 -6t148 -6t119 3q46 3 74 6t32 3q29 0 29 -34t-31 -34l-39 2q-76 0 -104 -37t-60 -191t-83 -410
q-50 -255 -81 -398q-63 -293 -203 -408q-139 -116 -275 -115t-136 79zM483 -2q-6 0 -41 3t-89 6t-109 3q-56 0 -106 -3t-79 -6t-32 -3q-27 0 -27 34t31 34q18 0 39 -3q80 0 110 40t64 188l178 772q25 109 24 164q0 66 -118 65l-35 -2q-27 0 -27 27q0 41 37 41q6 0 74 -6
t142 -6q75 0 125 3t79 6t33 3q26 0 26 -34t-30 -34l-39 2q-80 0 -111 -40t-65 -193l-177 -766q-25 -109 -24 -168q0 -61 123 -62l35 3q27 0 26 -31q0 -37 -37 -37z" />
    <glyph glyph-name="ij" unicode="&#x133;" horiz-adv-x="1251" 
d="M1192 1397q82 0 82 -78q0 -39 -26 -68t-64 -29t-63 22q-23 22 -23 62t28 65q29 26 66 26zM446 -606q-72 0 -104 31q-27 20 -27 51q1 31 19 48t45 17q27 1 53 -33t96 -34q72 0 144 88q102 127 305 919q55 209 55 275t-10 78q-10 14 -38 14t-68 -27t-62 -63t-26 -58
t-32 -22t-28 27q0 20 18 47q56 90 138 141t137 51t75 -23q19 -23 19 -95q1 -72 -107 -474t-182 -590t-184 -278t-236 -90zM285 111q0 -45 43 -45t93 34t82 81q32 48 37 72q4 23 32 23t28 -32t-68 -113q-68 -82 -142 -120q-73 -38 -124 -38q-98 0 -98 90q2 61 104 352
t103 349q0 58 -10 70q-10 14 -38 14t-68 -27t-62 -63q-23 -36 -27 -58t-32 -22t-27 27q0 20 18 47q55 90 137 141t146 51q84 0 84 -94q0 -74 -106 -370t-105 -369zM514 1237q-74 0 -76 74q0 49 27 78t61 29t54 -21t21 -61t-23 -70t-64 -29z" />
    <glyph glyph-name="Jcircumflex" unicode="&#x134;" horiz-adv-x="712" 
d="M842 1448q0 -31 -31 -31q-12 0 -33 17q-68 68 -124 116t-63 47q-7 0 -28 -10q-143 -106 -217 -155q-32 -28 -52 -4q-9 12 -9 22q-1 10 21 30t259 246q25 25 44 25t36 -22q115 -163 156 -217t41 -64zM-207 -188q0 37 22 55q23 18 51 18q28 1 52 -23t88 -24q137 0 201 156
q53 129 250 1067q23 111 22 164q0 68 -114 67l-52 -2q-27 0 -26 27q0 41 37 41q6 0 80 -6t166 -6q93 0 148 6q54 6 58 6q29 0 29 -34t-31 -34l-39 2q-75 0 -103 -37t-61 -191t-83 -410q-50 -255 -80 -398q-63 -293 -203 -408q-139 -116 -275 -115q-137 1 -137 79z" />
    <glyph glyph-name="jcircumflex" unicode="&#x135;" horiz-adv-x="579" 
d="M202 1073q-13 0 -24 9q-10 8 -10 20t12 24q207 244 258 310q20 26 46 26t34 -24q82 -208 108 -268t27 -69q0 -9 -11 -19q-10 -10 -24 -9q-14 0 -28 17q-74 111 -117 184q-10 14 -18 14t-25 -16q-199 -199 -228 -199zM-225 -606q-72 0 -105 31q-26 20 -26 51t18 48t45 17
q27 1 53 -33t96 -34q72 0 144 88q102 127 305 919q55 209 55 275t-10 78q-10 14 -38 14t-68 -27t-62 -63t-26 -60q-4 -20 -32 -20t-28 27q0 20 19 47q55 90 137 141t137 51t75 -23q19 -23 19 -95q1 -72 -107 -474t-182 -590t-183 -278q-110 -90 -236 -90z" />
    <glyph glyph-name="Kcommaaccent" unicode="&#x136;" horiz-adv-x="1363" 
d="M766 -262q0 -98 -71 -183t-177 -143q-27 -14 -43 -14q-27 0 -26 33q0 16 20 24q178 92 178 217q0 47 -59 90q-29 14 -29 50t28 60q27 24 73 24t76 -48t30 -110zM483 -2q-6 0 -41 3t-89 6t-109 3q-56 0 -106 -3t-79 -6t-32 -3q-27 0 -27 34t31 34q18 0 39 -3q80 0 110 40
t64 188l178 772q25 109 24 164q0 66 -118 65l-35 -2q-27 0 -27 27q0 41 37 41q6 0 74 -6t142 -6q75 0 125 3t79 6t33 3q26 0 26 -34t-30 -34l-39 2q-80 0 -111 -40t-65 -193l-177 -766q-25 -109 -24 -168q0 -61 123 -62l35 3q27 0 26 -31q0 -37 -37 -37zM657 675
q0 -15 25 -50q102 -170 191 -286t131 -157t93 -80q50 -39 99 -39l53 5q27 0 27 -29t-32 -36t-112 -7t-159 53q-80 53 -207 241t-174 270q-47 81 -86 110q-16 14 -16 34t54 32q54 11 91 42q94 74 334 312q129 128 129 162t-68 34l-39 -2q-23 0 -23 22q1 49 38 52l88 -6
q86 -6 140 -6t118 6t69 6q31 0 31 -33q0 -41 -41 -41l-39 2q-91 -6 -303 -211q-53 -51 -204 -190t-179 -167t-29 -43z" />
    <glyph glyph-name="kcommaaccent" unicode="&#x137;" horiz-adv-x="1140" 
d="M616 -262q0 -98 -70 -183t-177 -143q-27 -14 -43 -14q-27 0 -27 33q0 16 20 24q178 92 179 217q0 47 -60 90q-28 14 -28 50t28 60t73 24t75 -48t30 -110zM553 558q0 -22 22 -71q106 -223 179 -333q51 -82 99 -82t89 30q83 62 94 150q4 31 31 31q35 0 35 -38
q0 -37 -58 -117q-110 -153 -229 -153q-63 0 -115 69t-204 392q-24 50 -46 64t-22 24t29 47q184 221 364 322q100 53 174 53q109 0 115 -78q0 -36 -25 -66t-57 -30t-44 28q-13 28 -58 28t-92 -21q-139 -63 -242 -182q-39 -45 -39 -67zM217 -10q-74 0 -74 45t367 1270
q29 92 29 139q-5 33 -25 49t-72 25q-20 2 -20 26t18 27q131 27 194 50t64 24q20 0 21 -21q0 -10 -48 -148t-149 -462q-260 -836 -260 -936l2 -39q0 -49 -47 -49z" />
    <glyph glyph-name="kgreenlandic" unicode="&#x138;" horiz-adv-x="1140" 
d="M567 538q0 -67 205 -384q54 -82 102 -82t89 30q81 60 94 150q4 31 30 31q35 0 35 -38q0 -37 -57 -117q-109 -152 -229 -153q-66 0 -115 66q-76 102 -211 375q-24 51 -46 64q-22 14 -22 24t29 47q184 233 371 342q92 53 174 53q109 0 114 -78q0 -36 -24 -66t-56 -30
t-45 28t-59 28t-92 -21q-118 -53 -232 -185q-54 -62 -55 -84zM394 944q93 0 93 -80q0 -71 -39 -186t-102 -324q-63 -210 -63 -276l2 -39q0 -49 -47 -49q-74 0 -74 51q0 19 4 33t104 340t99 366t-11 54t-38 14t-67 -27q-41 -27 -63 -63t-26 -60q-4 -20 -32 -20t-28 27
q0 20 19 47q57 90 136 141t133 51z" />
    <glyph glyph-name="Lacute" unicode="&#x139;" horiz-adv-x="1173" 
d="M479 1442q-23 0 -23 24t25 41q135 102 220 172t116 70q62 0 64 -70q-1 -30 -60 -69q-147 -92 -233 -130t-109 -38zM332 146q0 -42 61 -54t241 -12t244 34q65 34 114 113q15 25 44 76q14 25 43 25t29 -38t-96 -243q-23 -49 -76 -49l-621 6l-288 -6q-27 0 -27 34t31 34
q18 0 39 -3q80 0 110 40t64 188l178 772q25 109 24 164q0 66 -118 65l-35 -2q-27 0 -27 27q0 41 37 41q6 0 72 -6t141 -6q76 0 131 3t90 6t39 3q27 0 27 -34t-31 -34l-49 2q-80 0 -118 -38t-73 -193l-188 -819q-12 -54 -12 -96z" />
    <glyph glyph-name="lacute" unicode="&#x13a;" horiz-adv-x="632" 
d="M797 1974q63 0 63 -69q0 -31 -59 -70q-147 -92 -233 -130t-110 -38q-22 -1 -22 23t25 43q133 101 219 171t117 70zM270 111q0 -45 43 -45t94 33q50 34 80 83q33 47 38 71q5 23 33 23t28 -31t-74 -122q-63 -74 -136 -112t-124 -38q-100 0 -100 90q2 73 137 523t211 719
q20 76 20 137t-96 76q-20 2 -20 26t18 27q132 27 194 50t66 24q18 0 18 -23q0 -8 -39 -124t-110 -358t-125 -424q-54 -180 -106 -358q-50 -178 -50 -247z" />
    <glyph glyph-name="Lcommaaccent" unicode="&#x13b;" horiz-adv-x="1173" 
d="M649 -262q-1 -98 -71 -183t-177 -143q-27 -14 -43 -14q-27 0 -26 33q0 16 20 24q178 92 178 217q0 47 -59 90q-29 14 -29 50t28 60t74 24t76 -48t29 -110zM332 146q0 -42 61 -54t241 -12t244 34q65 34 114 113q15 25 44 76q14 25 43 25t29 -38t-96 -243q-23 -49 -76 -49
l-621 6l-288 -6q-27 0 -27 34t31 34q18 0 39 -3q80 0 110 40t64 188l178 772q25 109 24 164q0 66 -118 65l-35 -2q-27 0 -27 27q0 41 37 41q6 0 72 -6t141 -6q76 0 131 3t90 6t39 3q27 0 27 -34t-31 -34l-49 2q-80 0 -118 -38t-73 -193l-188 -819q-12 -54 -12 -96z" />
    <glyph glyph-name="lcommaaccent" unicode="&#x13c;" horiz-adv-x="632" 
d="M375 -262q0 -98 -71 -183t-177 -143q-27 -14 -43 -14q-27 0 -27 33q0 16 21 24q178 92 178 217q0 47 -59 90q-29 14 -29 50t28 60t74 24t75 -48q30 -48 30 -110zM270 111q0 -45 43 -45t94 33q50 34 80 83q33 47 38 71q5 23 33 23t28 -31t-74 -122q-63 -74 -136 -112
t-124 -38q-100 0 -100 90q2 73 137 523t211 719q20 76 20 137t-96 76q-20 2 -20 26t18 27q132 27 194 50t66 24q18 0 18 -23q0 -8 -39 -124t-110 -358t-125 -424q-54 -180 -106 -358q-50 -178 -50 -247z" />
    <glyph glyph-name="Lcaron" unicode="&#x13d;" horiz-adv-x="1173" 
d="M1122 1206q0 -100 -68 -185t-175 -142q-48 -25 -65 -1q-9 13 -9 27t20 23q178 92 179 213q0 55 -60 90q-29 18 -29 51q0 34 28 58t74 24t76 -48q29 -49 29 -110zM332 146q0 -42 61 -54t241 -12t244 34q65 34 114 113q15 25 44 76q14 25 43 25t29 -38t-96 -243
q-23 -49 -76 -49l-621 6l-288 -6q-27 0 -27 34t31 34q18 0 39 -3q80 0 110 40t64 188l178 772q25 109 24 164q0 66 -118 65l-35 -2q-27 0 -27 27q0 41 37 41q6 0 72 -6t141 -6q76 0 131 3t90 6t39 3q27 0 27 -34t-31 -34l-49 2q-80 0 -118 -38t-73 -193l-188 -819
q-12 -54 -12 -96z" />
    <glyph glyph-name="lcaron" unicode="&#x13e;" horiz-adv-x="632" 
d="M981 1430q0 -100 -69 -186t-175 -142q-48 -25 -64 -1q-9 13 -9 27t20 23q178 92 178 213q0 55 -59 90q-29 18 -29 51t28 58t74 25t75 -49q30 -48 30 -109zM270 111q0 -45 43 -45t94 33q50 34 80 83q33 47 38 71q5 23 33 23t28 -31t-74 -122q-63 -74 -136 -112t-124 -38
q-100 0 -100 90q2 73 137 523t211 719q20 76 20 137t-96 76q-20 2 -20 26t18 27q132 27 194 50t66 24q18 0 18 -23q0 -8 -39 -124t-110 -358t-125 -424q-54 -180 -106 -358q-50 -178 -50 -247z" />
    <glyph glyph-name="Ldot" unicode="&#x13f;" horiz-adv-x="1173" 
d="M938 731q38 -1 64 -25t26 -68t-29 -74t-71 -30t-67 26q-23 24 -23 68t30 74t70 29zM332 146q0 -42 61 -54t241 -12t244 34q65 34 114 113q15 25 44 76q14 25 43 25t29 -38t-96 -243q-23 -49 -76 -49l-621 6l-288 -6q-27 0 -27 34t31 34q18 0 39 -3q80 0 110 40t64 188
l178 772q25 109 24 164q0 66 -118 65l-35 -2q-27 0 -27 27q0 41 37 41q6 0 72 -6t141 -6q76 0 131 3t90 6t39 3q27 0 27 -34t-31 -34l-49 2q-80 0 -118 -38t-73 -193l-188 -819q-12 -54 -12 -96z" />
    <glyph glyph-name="ldot" unicode="&#x140;" horiz-adv-x="761" 
d="M742 559q-87 1 -87 89q0 42 30 71t67 29q38 0 62 -24t24 -65q0 -42 -27 -71t-69 -29zM274 111q0 -45 43 -45t93 34t83 81q33 48 37 72q4 23 32 23t28 -32t-68 -113q-68 -82 -142 -120q-73 -38 -124 -38q-100 0 -100 90q2 73 137 523t211 719q20 76 20 137t-96 76
q-20 2 -20 26t18 27q132 27 194 50t66 24q18 0 19 -23q1 -8 -39 -124t-111 -358t-125 -424q-54 -180 -106 -358q-50 -178 -50 -247z" />
    <glyph glyph-name="Lslash" unicode="&#x141;" horiz-adv-x="1173" 
d="M469 782q0 -14 11 -14t20 6l260 150q14 10 28 10t24 -15q11 -15 11 -31t-20 -30l-350 -201q-18 -12 -21 -28l-88 -387q-12 -54 -12 -96t61 -54t241 -12t244 34q65 34 114 113q15 25 44 76q14 25 43 25t29 -38t-96 -243q-23 -49 -76 -49l-621 6l-288 -6q-27 0 -27 34
t31 34q18 0 39 -3q80 0 110 40t64 188l53 229q6 25 6 29q0 14 -12 14t-21 -6l-145 -84q-15 -8 -25 -8t-23 17q-29 38 5 57l235 135q20 12 23 31l82 358q25 109 24 164q0 66 -118 65l-35 -2q-27 0 -27 27q0 41 37 41q6 0 72 -6t141 -6q76 0 131 3t90 6t39 3q27 0 27 -34
t-31 -34l-49 2q-80 0 -118 -38t-73 -193l-59 -258q-4 -16 -4 -21z" />
    <glyph glyph-name="lslash" unicode="&#x142;" horiz-adv-x="632" 
d="M313 66q43 0 94 33q50 34 80 83q33 47 38 71q5 23 33 23t28 -31t-74 -122q-63 -74 -136 -112t-124 -38q-100 0 -100 90q0 52 30 150q30 99 65 229q35 132 35 142t-10 10t-22 -8l-55 -31q-29 -16 -41 -16t-23 14q-10 13 -10 29t20 30l168 95q18 12 23 34q72 231 168 564
q20 76 20 137t-96 76q-20 2 -20 26t18 27q132 27 194 50t66 24q18 0 18 -23q0 -8 -39 -123t-123 -403t-85 -295q0 -8 10 -8t20 6l86 47q18 12 33 12q31 0 31 -43q0 -18 -23 -31l-182 -102q-14 -10 -21 -26t-71 -243q-64 -226 -66 -302q0 -45 43 -45z" />
    <glyph glyph-name="Nacute" unicode="&#x143;" horiz-adv-x="1587" 
d="M858 1442q-22 0 -22 24t24 41q133 102 219 172t117 70q62 0 64 -70q-1 -30 -60 -69q-148 -92 -234 -130t-108 -38zM453 -2q-6 0 -74 6q-69 6 -143 6t-121 -3t-73 -6t-32 -3q-25 0 -24 31q0 37 37 37q16 0 34 -3q76 0 111 41q31 49 61 175q209 840 209 893t-8 69
q-31 51 -125 51l-35 -2q-27 0 -26 29q0 39 39 39l143 -8l119 8q39 0 51 -29q39 -76 131 -274t216 -436q123 -239 157 -305t44 -66t15 16q35 136 95 414t81 382q20 104 21 171q0 61 -101 61l-53 -2q-25 0 -24 29q0 39 39 39q4 0 69 -6t141 -6t120 3t68 6t30 3q33 0 32 -29
q0 -39 -37 -39l-53 2q-67 0 -93 -36t-77 -242t-221 -1004q-4 -24 -12 -30t-30 -6t-30 16q-209 441 -569 1138q-8 16 -19 16t-16 -14q-216 -869 -218 -975q0 -40 18 -66q20 -26 100 -26l45 3q25 0 24 -27q0 -41 -36 -41z" />
    <glyph glyph-name="nacute" unicode="&#x144;" horiz-adv-x="1210" 
d="M655 1073q-14 0 -23 8q-9 9 -9 19t16 30t91 111q75 90 110 143t82 54q63 0 63 -58q-1 -32 -59 -90t-230 -194q-27 -23 -41 -23zM287 54q0 -64 -43 -64q-76 0 -76 50t78 286q78 235 103 323q26 87 26 143t-43 56q-31 0 -72 -27t-63 -63q-23 -36 -27 -58t-32 -22t-27 27
q0 20 18 47q55 88 138 140t155 52t71 -68t-87 -301q-4 -12 -4 -18t8 -6q10 0 16 10q74 115 137 187q168 190 357 190q51 0 84 -26q32 -26 32 -70t-24 -118q-24 -75 -103 -299q-80 -224 -84 -314q0 -45 43 -45q44 0 94 34t80 77q30 44 37 73q6 26 34 26t28 -34t-84 -131
q-127 -137 -250 -138q-98 0 -98 90q1 45 103 341t101 368q-1 57 -69 57t-152 -57q-162 -115 -295 -342q-61 -106 -102 -276q-8 -36 -8 -100z" />
    <glyph glyph-name="Ncommaaccent" unicode="&#x145;" horiz-adv-x="1587" 
d="M793 -262q0 -98 -71 -183t-177 -143q-27 -14 -43 -14q-27 0 -27 33q0 16 21 24q178 92 178 217q0 47 -60 90q-28 14 -28 50t28 60t73 24q46 0 76 -48t30 -110zM453 -2q-6 0 -74 6q-69 6 -143 6t-121 -3t-73 -6t-32 -3q-25 0 -24 31q0 37 37 37q16 0 34 -3q76 0 111 41
q31 49 61 175q209 840 209 893t-8 69q-31 51 -125 51l-35 -2q-27 0 -26 29q0 39 39 39l143 -8l119 8q39 0 51 -29q39 -76 131 -274t216 -436q123 -239 157 -305t44 -66t15 16q35 136 95 414t81 382q20 104 21 171q0 61 -101 61l-53 -2q-25 0 -24 29q0 39 39 39q4 0 69 -6
t141 -6t120 3t68 6t30 3q33 0 32 -29q0 -39 -37 -39l-53 2q-67 0 -93 -36t-77 -242t-221 -1004q-4 -24 -12 -30t-30 -6t-30 16q-209 441 -569 1138q-8 16 -19 16t-16 -14q-216 -869 -218 -975q0 -40 18 -66q20 -26 100 -26l45 3q25 0 24 -27q0 -41 -36 -41z" />
    <glyph glyph-name="ncommaaccent" unicode="&#x146;" horiz-adv-x="1210" 
d="M604 -262q0 -98 -70 -183t-178 -143q-27 -14 -43 -14q-27 0 -26 33q0 16 20 24q178 92 178 217q0 47 -59 90q-29 14 -29 50t28 60q27 24 73 24t76 -48t30 -110zM287 54q0 -64 -43 -64q-76 0 -76 50t78 286q78 235 103 323q26 87 26 143t-43 56q-31 0 -72 -27t-63 -63
q-23 -36 -27 -58t-32 -22t-27 27q0 20 18 47q55 88 138 140t155 52t71 -68t-87 -301q-4 -12 -4 -18t8 -6q10 0 16 10q74 115 137 187q168 190 357 190q51 0 84 -26q32 -26 32 -70t-24 -118q-24 -75 -103 -299q-80 -224 -84 -314q0 -45 43 -45q44 0 94 34t80 77q30 44 37 73
q6 26 34 26t28 -34t-84 -131q-127 -137 -250 -138q-98 0 -98 90q1 45 103 341t101 368q-1 57 -69 57t-152 -57q-162 -115 -295 -342q-61 -106 -102 -276q-8 -36 -8 -100z" />
    <glyph glyph-name="Ncaron" unicode="&#x147;" horiz-adv-x="1587" 
d="M731 1761q0 31 31 31q12 0 33 -16q164 -164 192 -164q2 0 23 10q143 106 188 138q44 32 58 32t23 -11t9 -21t-22 -30t-258 -247q-25 -25 -44 -25t-36 23q-115 164 -156 217t-41 63zM453 -2q-6 0 -74 6q-69 6 -143 6t-121 -3t-73 -6t-32 -3q-25 0 -24 31q0 37 37 37
q16 0 34 -3q76 0 111 41q31 49 61 175q209 840 209 893t-8 69q-31 51 -125 51l-35 -2q-27 0 -26 29q0 39 39 39l143 -8l119 8q39 0 51 -29q39 -76 131 -274t216 -436q123 -239 157 -305t44 -66t15 16q35 136 95 414t81 382q20 104 21 171q0 61 -101 61l-53 -2q-25 0 -24 29
q0 39 39 39q4 0 69 -6t141 -6t120 3t68 6t30 3q33 0 32 -29q0 -39 -37 -39l-53 2q-67 0 -93 -36t-77 -242t-221 -1004q-4 -24 -12 -30t-30 -6t-30 16q-209 441 -569 1138q-8 16 -19 16t-16 -14q-216 -869 -218 -975q0 -40 18 -66q20 -26 100 -26l45 3q25 0 24 -27
q0 -41 -36 -41z" />
    <glyph glyph-name="ncaron" unicode="&#x148;" horiz-adv-x="1210" 
d="M964 1462q13 0 23 -9t10 -20t-12 -24q-207 -244 -243 -290t-61 -46q-26 0 -34 25q-83 207 -109 267q-26 59 -26 69t11 19t25 9t27 -16q74 -111 117 -184q10 -14 18 -14t25 16q198 198 229 198zM287 54q0 -64 -43 -64q-76 0 -76 50t78 286q78 235 103 323q26 87 26 143
t-43 56q-31 0 -72 -27t-63 -63q-23 -36 -27 -58t-32 -22t-27 27q0 20 18 47q55 88 138 140t155 52t71 -68t-87 -301q-4 -12 -4 -18t8 -6q10 0 16 10q74 115 137 187q168 190 357 190q51 0 84 -26q32 -26 32 -70t-24 -118q-24 -75 -103 -299q-80 -224 -84 -314q0 -45 43 -45
q44 0 94 34t80 77q30 44 37 73q6 26 34 26t28 -34t-84 -131q-127 -137 -250 -138q-98 0 -98 90q1 45 103 341t101 368q-1 57 -69 57t-152 -57q-162 -115 -295 -342q-61 -106 -102 -276q-8 -36 -8 -100z" />
    <glyph glyph-name="napostrophe" unicode="&#x149;" horiz-adv-x="1210" 
d="M559 1370q0 -100 -69 -185t-175 -143q-27 -14 -41 -14t-23 13t-9 27t20 24q178 92 178 213q0 55 -59 90q-29 18 -29 51q0 34 28 58t74 24t75 -48q30 -48 30 -110zM287 54q0 -64 -43 -64q-76 0 -76 50t78 286q78 235 103 323q26 87 26 143t-43 56q-31 0 -72 -27t-63 -63
q-23 -36 -27 -58t-32 -22t-27 27q0 20 18 47q55 88 138 140t155 52t71 -68t-87 -301q-4 -12 -4 -18t8 -6q10 0 16 10q74 115 137 187q168 190 357 190q51 0 84 -26q32 -26 32 -70t-24 -118q-24 -75 -103 -299q-80 -224 -84 -314q0 -45 43 -45q44 0 94 34t80 77q30 44 37 73
q6 26 34 26t28 -34t-84 -131q-127 -137 -250 -138q-98 0 -98 90q1 45 103 341t101 368q-1 57 -69 57t-152 -57q-162 -115 -295 -342q-61 -106 -102 -276q-8 -36 -8 -100z" />
    <glyph glyph-name="Eng" unicode="&#x14a;" horiz-adv-x="1587" 
d="M810 -518q-132 0 -132 84q0 29 20 48t48 19q28 -1 60 -25q30 -24 81 -24q97 0 168 236q43 140 43 178t-6 55q-89 206 -537 1075q-8 16 -19 16t-16 -14q-216 -869 -218 -975q0 -40 18 -66q20 -26 100 -26l45 3q25 0 24 -27q0 -41 -36 -41q-6 0 -74 6q-69 6 -143 6t-121 -3
t-73 -6t-32 -3q-25 0 -24 31q0 37 37 37q16 0 34 -3q76 0 111 41q31 49 61 175q209 840 209 893t-8 69q-31 51 -125 51l-35 -2q-27 0 -26 29q0 39 39 39l143 -8l119 8q39 0 51 -29q39 -76 131 -274t216 -436q123 -239 157 -305t44 -66t15 16q35 136 95 414t81 382
q20 104 21 171q0 61 -101 61l-53 -2q-25 0 -24 29q0 39 39 39q4 0 69 -6t141 -6t120 3t68 6t30 3q33 0 32 -29q0 -39 -37 -39l-53 2q-67 0 -93 -36t-78 -246t-143 -638q-91 -427 -111 -496q-53 -177 -136 -286q-84 -108 -216 -108z" />
    <glyph glyph-name="eng" unicode="&#x14b;" horiz-adv-x="1210" 
d="M371 -477q-115 0 -115 76q0 29 19 45t47 16t52 -24q23 -24 60 -23q113 0 197 213t172 525t88 405q0 74 -70 73q-59 0 -135 -57q-152 -119 -289 -342q-61 -98 -102 -276q-8 -36 -8 -100t-43 -64q-76 0 -76 50t78 286q78 235 103 323q26 87 26 143t-43 56q-31 0 -72 -27
t-63 -63q-23 -36 -27 -58t-32 -22t-27 27q0 20 18 47q55 88 138 140t155 52t71 -68t-87 -301q-4 -12 -4 -18t8 -6q10 0 16 10q74 115 137 187q168 190 332 190q51 0 84 -29t33 -101t-84 -380q-127 -473 -247 -689t-310 -216z" />
    <glyph glyph-name="Omacron" unicode="&#x14c;" horiz-adv-x="1462" 
d="M1176 1567q0 -72 -60 -72h-411q-45 0 -46 35q0 76 60 76h411q46 0 46 -39zM868 1313q-301 0 -473 -312q-111 -199 -110 -499q0 -190 104 -326t295 -137q137 1 248 65t172 177q133 240 133 596q-4 184 -98 310t-271 126zM1380 836q0 -168 -49 -339t-147 -290
q-197 -236 -504 -236q-246 0 -387 150t-141 420q0 143 42 285t115 247q217 307 565 307q242 0 374 -142t132 -402z" />
    <glyph glyph-name="omacron" unicode="&#x14d;" horiz-adv-x="978" 
d="M907 1198q0 -72 -59 -72h-373q-45 0 -45 35q0 76 59 76h373q45 0 45 -39zM786 665q0 99 -46 158t-138 60q-141 0 -254 -160q-137 -195 -137 -471q0 -90 47 -154t141 -63q152 0 254 162q65 101 99 235t34 233zM897 633q1 -277 -151 -469t-353 -193q-141 0 -218 91t-77 247
q0 272 176 475q143 162 336 162q135 0 211 -85t76 -228z" />
    <glyph glyph-name="Obreve" unicode="&#x14e;" horiz-adv-x="1462" 
d="M670 1677q0 88 45 88q27 0 26 -28q2 -84 43 -122t121 -38q158 0 207 156q14 32 41 32t27 -36q0 -101 -80 -181t-197 -80q-233 0 -233 209zM868 1313q-301 0 -473 -312q-111 -199 -110 -499q0 -190 104 -326t295 -137q137 1 248 65t172 177q133 240 133 596
q-4 184 -98 310t-271 126zM1380 836q0 -168 -49 -339t-147 -290q-197 -236 -504 -236q-246 0 -387 150t-141 420q0 143 42 285t115 247q217 307 565 307q242 0 374 -142t132 -402z" />
    <glyph glyph-name="obreve" unicode="&#x14f;" horiz-adv-x="978" 
d="M492 1366q27 0 26 -29q0 -162 139 -161q72 0 117 36t76 121q14 33 41 33t27 -35q0 -104 -72 -183t-176 -79t-165 49q-61 48 -61 148t48 100zM786 665q0 99 -46 158t-138 60q-141 0 -254 -160q-137 -195 -137 -471q0 -90 47 -154t141 -63q152 0 254 162q65 101 99 235
t34 233zM897 633q1 -277 -151 -469t-353 -193q-141 0 -218 91t-77 247q0 272 176 475q143 162 336 162q135 0 211 -85t76 -228z" />
    <glyph glyph-name="Ohungarumlaut" unicode="&#x150;" horiz-adv-x="1462" 
d="M940 1442q-27 0 -29 31q0 14 25 34q104 82 246 207q53 47 84 47q53 -4 53 -59q0 -35 -59 -76q-150 -100 -229 -142t-91 -42zM629 1442q-12 0 -21 9q-19 21 17 56q152 123 225 189t104 65q53 -4 54 -59q-1 -35 -60 -76q-150 -100 -228 -142t-91 -42zM868 1313
q-301 0 -473 -312q-111 -199 -110 -499q0 -190 104 -326t295 -137q137 1 248 65t172 177q133 240 133 596q-4 184 -98 310t-271 126zM1380 836q0 -168 -49 -339t-147 -290q-197 -236 -504 -236q-246 0 -387 150t-141 420q0 143 42 285t115 247q217 307 565 307
q242 0 374 -142t132 -402z" />
    <glyph glyph-name="ohungarumlaut" unicode="&#x151;" horiz-adv-x="978" 
d="M688 1100q0 10 16 30t93 112q76 91 109 143q34 52 77 53q19 0 37 -12t18 -42q0 -28 -45 -73q-235 -235 -274 -238q-12 0 -22 8q-9 9 -9 19zM437 1081q-9 8 -9 20t91 120q91 107 126 161q35 55 78 56q19 0 37 -12t18 -42q0 -28 -45 -73q-235 -235 -274 -238q-12 0 -22 8z
M786 665q0 99 -46 158t-138 60q-141 0 -254 -160q-137 -195 -137 -471q0 -90 47 -154t141 -63q152 0 254 162q65 101 99 235t34 233zM897 633q1 -277 -151 -469t-353 -193q-141 0 -218 91t-77 247q0 272 176 475q143 162 336 162q135 0 211 -85t76 -228z" />
    <glyph glyph-name="OE" unicode="&#x152;" horiz-adv-x="1998" 
d="M1962 1354q33 0 33 -26t-25 -243q-4 -31 -38 -31t-34 27q0 111 -28 152q-33 41 -204 41t-216 -4t-55 -53l-95 -408q-6 -31 -6 -39q0 -27 72 -27q162 1 205 15t63 44t45 103q10 31 40 31t30 -23q0 -12 -31 -137t-49 -268q-4 -27 -36 -27t-31 23l2 49q0 82 -38 99t-229 18
q-41 0 -58 -10t-24 -39l-86 -379q-12 -54 -12 -96q-1 -42 61 -54t240 -12t244 35t112 105q15 26 41 73q14 25 43 25t29 -26t-34 -110q-33 -84 -61 -134t-77 -50l-614 6l-162 -4l-285 -14q-264 0 -403 156t-139 407q0 184 69 349q70 165 207 284q217 186 586 186
q86 0 188 -10t236 -10zM979 1286q-315 0 -505 -204t-189 -515q1 -221 113 -360t311 -139q259 0 319 88q6 8 35 110l184 811q13 53 13 105t-43 73q-74 31 -238 31z" />
    <glyph glyph-name="oe" unicode="&#x153;" horiz-adv-x="1472" 
d="M881 525q0 -15 18 -15q8 0 25 4q416 94 415 266q0 94 -104 94q-103 0 -201 -97t-147 -224q-6 -13 -6 -28zM786 679q0 89 -45 145t-147 56t-195 -96q-92 -96 -140 -242t-48 -302q0 -205 184 -205q104 0 185 70q80 71 122 177q84 205 84 397zM834 270q0 -98 49 -156
t145 -59q166 0 264 142q16 23 33 63q10 33 35 33q35 0 35 -33q0 -27 -23 -61q-145 -227 -395 -228q-184 0 -232 166q-2 13 -10 13t-16 -11q-125 -168 -326 -168q-141 0 -218 91t-77 247q0 251 151 443t371 192t250 -219q2 -16 10 -16t19 14q169 221 387 221q172 0 172 -141
q0 -133 -141 -209q-166 -90 -420 -143q-39 -8 -45 -41q-18 -89 -18 -140z" />
    <glyph glyph-name="Racute" unicode="&#x154;" horiz-adv-x="1335" 
d="M676 1442q-22 0 -23 24q0 24 25 41q135 102 220 172t116 70q63 0 63 -70q0 -30 -59 -69q-148 -92 -234 -130t-108 -38zM467 746q1 -42 109 -43q348 -2 436 160q37 69 37 175t-74 172t-225 66q-96 0 -129 -4q-39 -4 -50 -51l-100 -433q-4 -25 -4 -42zM481 -2q-6 0 -40 3
t-88 6t-109 3q-56 0 -106 -3t-79 -6t-32 -3q-27 0 -27 34t31 34q18 0 39 -3q80 0 110 40t64 188l178 772q23 98 22 151q0 72 -108 72l-43 -2q-27 0 -27 31q0 43 39 43q6 0 68 -5t180 -5l221 6q207 0 308 -87t102 -220q0 -181 -120 -283t-298 -115q-10 0 -10 -7t10 -11
q57 -25 121 -175t162 -311q59 -98 159 -98l45 4q23 -1 23 -27t-24 -36t-72 -11q-156 -1 -228 89t-148 286t-104 230q-37 47 -122 49q-37 2 -105 2q-37 0 -47 -45l-68 -295q-25 -109 -24 -168q0 -61 123 -62l35 3q27 0 26 -31q0 -37 -37 -37z" />
    <glyph glyph-name="racute" unicode="&#x155;" horiz-adv-x="870" 
d="M534 1073q-14 0 -23 8t-9 20t87 115t126 162t86 60q63 0 63 -58q0 -32 -58 -90t-231 -194q-27 -23 -41 -23zM392 549q7 0 14 12q76 151 176 265t213 114q43 0 73 -20t29 -56q0 -36 -18 -64q-17 -26 -51 -26t-50 20t-61 21q-45 0 -94 -47q-184 -172 -298 -518
q-34 -101 -35 -154t-8 -80t-40 -26q-76 0 -76 46t60 234t94 305q32 117 32 213q0 59 -49 60q-78 0 -139 -94q-20 -33 -24 -55t-31 -21q-29 0 -29 29q0 18 18 45q60 94 142 143t151 49t71 -73q1 -73 -71 -291q0 -5 -6 -23q0 -8 7 -8z" />
    <glyph glyph-name="Rcommaaccent" unicode="&#x156;" horiz-adv-x="1335" 
d="M762 -262q0 -98 -71 -183t-177 -143q-27 -14 -43 -14q-27 0 -27 33q0 16 21 24q178 92 178 217q0 47 -59 90q-29 14 -29 50t28 60q27 24 73 24t76 -48t30 -110zM467 746q1 -42 109 -43q348 -2 436 160q37 69 37 175t-74 172t-225 66q-96 0 -129 -4q-39 -4 -50 -51
l-100 -433q-4 -25 -4 -42zM481 -2q-6 0 -40 3t-88 6t-109 3q-56 0 -106 -3t-79 -6t-32 -3q-27 0 -27 34t31 34q18 0 39 -3q80 0 110 40t64 188l178 772q23 98 22 151q0 72 -108 72l-43 -2q-27 0 -27 31q0 43 39 43q6 0 68 -5t180 -5l221 6q207 0 308 -87t102 -220
q0 -181 -120 -283t-298 -115q-10 0 -10 -7t10 -11q57 -25 121 -175t162 -311q59 -98 159 -98l45 4q23 -1 23 -27t-24 -36t-72 -11q-156 -1 -228 89t-148 286t-104 230q-37 47 -122 49q-37 2 -105 2q-37 0 -47 -45l-68 -295q-25 -109 -24 -168q0 -61 123 -62l35 3
q27 0 26 -31q0 -37 -37 -37z" />
    <glyph glyph-name="rcommaaccent" unicode="&#x157;" horiz-adv-x="870" 
d="M322 -262q0 -98 -71 -183t-177 -143q-27 -14 -43 -14q-27 0 -27 33q0 16 21 24q178 92 178 217q0 47 -60 90q-29 14 -29 50t28 60t74 24t76 -48t30 -110zM392 549q7 0 14 12q76 151 176 265t213 114q43 0 73 -20t29 -56q0 -36 -18 -64q-17 -26 -51 -26t-50 20t-61 21
q-45 0 -94 -47q-184 -172 -298 -518q-34 -101 -35 -154t-8 -80t-40 -26q-76 0 -76 46t60 234t94 305q32 117 32 213q0 59 -49 60q-78 0 -139 -94q-20 -33 -24 -55t-31 -21q-29 0 -29 29q0 18 18 45q60 94 142 143t151 49t71 -73q1 -73 -71 -291q0 -5 -6 -23q0 -8 7 -8z" />
    <glyph glyph-name="Rcaron" unicode="&#x158;" horiz-adv-x="1335" 
d="M494 1761q0 31 30 31q12 0 33 -16q68 -68 124 -116q55 -48 63 -48t28 10q143 106 188 138q44 32 58 32t23 -11q20 -24 -7 -48q-27 -23 -264 -250q-25 -25 -44 -25t-36 23q-116 164 -156 217t-40 63zM467 746q1 -42 109 -43q348 -2 436 160q37 69 37 175t-74 172t-225 66
q-96 0 -129 -4q-39 -4 -50 -51l-100 -433q-4 -25 -4 -42zM481 -2q-6 0 -40 3t-88 6t-109 3q-56 0 -106 -3t-79 -6t-32 -3q-27 0 -27 34t31 34q18 0 39 -3q80 0 110 40t64 188l178 772q23 98 22 151q0 72 -108 72l-43 -2q-27 0 -27 31q0 43 39 43q6 0 68 -5t180 -5l221 6
q207 0 308 -87t102 -220q0 -181 -120 -283t-298 -115q-10 0 -10 -7t10 -11q57 -25 121 -175t162 -311q59 -98 159 -98l45 4q23 -1 23 -27t-24 -36t-72 -11q-156 -1 -228 89t-148 286t-104 230q-37 47 -122 49q-37 2 -105 2q-37 0 -47 -45l-68 -295q-25 -109 -24 -168
q0 -61 123 -62l35 3q27 0 26 -31q0 -37 -37 -37z" />
    <glyph glyph-name="rcaron" unicode="&#x159;" horiz-adv-x="870" 
d="M830 1462q14 0 24 -9t10 -20t-12 -24q-206 -244 -242 -290t-62 -46t-34 25q-82 207 -108 267q-26 59 -27 69q0 10 11 19q10 9 24 9t28 -16q74 -111 117 -184q11 -14 19 -14t24 16q198 198 228 198zM392 549q7 0 14 12q76 151 176 265t213 114q43 0 73 -20t29 -56
q0 -36 -18 -64q-17 -26 -51 -26t-50 20t-61 21q-45 0 -94 -47q-184 -172 -298 -518q-34 -101 -35 -154t-8 -80t-40 -26q-76 0 -76 46t60 234t94 305q32 117 32 213q0 59 -49 60q-78 0 -139 -94q-20 -33 -24 -55t-31 -21q-29 0 -29 29q0 18 18 45q60 94 142 143t151 49
t71 -73q1 -73 -71 -291q0 -5 -6 -23q0 -8 7 -8z" />
    <glyph glyph-name="Sacute" unicode="&#x15a;" horiz-adv-x="1036" 
d="M632 1442q-22 0 -22 24t25 41q135 102 220 172t116 70q63 0 63 -70q0 -30 -59 -69q-147 -92 -233 -130q-88 -38 -110 -38zM918 362q0 -102 -41 -180q-74 -140 -266 -189q-83 -22 -182 -22t-193 30t-136 65q-18 14 -22 51q-12 188 -12 221q0 41 42 41t42 -37
q6 -115 43 -184q23 -41 93 -74t154 -33q158 0 257 72t99 210t-169 263l-166 125q-180 139 -180 295q0 186 132 274t324 88q125 0 264 -43q49 -14 50 -53q-1 -4 -7 -78t-6 -147q0 -33 -43 -33q-37 0 -37 43q0 111 -24 156q-43 76 -225 75q-133 0 -223 -59t-91 -186
q0 -127 162 -250l166 -125q195 -147 195 -316z" />
    <glyph glyph-name="sacute" unicode="&#x15b;" horiz-adv-x="731" 
d="M481 1073q-14 0 -23 8q-9 9 -9 19t16 30t91 111q75 90 110 143t82 54q63 0 63 -58q-1 -32 -59 -90t-230 -194q-27 -23 -41 -23zM341 37q91 0 147 45t57 106q0 117 -193 263q-86 65 -116 119t-29 116q0 114 89 186t215 72t177 -53q29 -33 29 -71q-1 -38 -21 -56t-55 -18
t-45 26q0 2 -6 39q-10 66 -104 66q-94 -1 -138 -47q-45 -46 -45 -91t5 -67t40 -66q36 -44 126 -114t130 -130t39 -122q0 -100 -88 -186q-89 -86 -237 -85q-148 0 -224 72q-51 51 -51 113q0 78 74 77q25 0 39 -13t14 -32l-2 -43q2 -43 42 -75t131 -31z" />
    <glyph glyph-name="Scircumflex" unicode="&#x15c;" horiz-adv-x="1036" 
d="M1042 1448q0 -31 -30 -31q-12 0 -33 17q-68 68 -124 116q-55 48 -63 47q-8 0 -28 -10q-143 -106 -217 -155q-32 -28 -52 -4t7 48t264 250q25 25 44 25t36 -22q116 -163 156 -217t40 -64zM918 362q0 -102 -41 -180q-74 -140 -266 -189q-83 -22 -182 -22t-193 30t-136 65
q-18 14 -22 51q-12 188 -12 221q0 41 42 41t42 -37q6 -115 43 -184q23 -41 93 -74t154 -33q158 0 257 72t99 210t-169 263l-166 125q-180 139 -180 295q0 186 132 274t324 88q125 0 264 -43q49 -14 50 -53q-1 -4 -7 -78t-6 -147q0 -33 -43 -33q-37 0 -37 43q0 111 -24 156
q-43 76 -225 75q-133 0 -223 -59t-91 -186q0 -127 162 -250l166 -125q195 -147 195 -316z" />
    <glyph glyph-name="scircumflex" unicode="&#x15d;" horiz-adv-x="731" 
d="M337 1073q-13 0 -24 9q-10 8 -10 20t12 24q207 244 258 310q20 26 46 26t34 -24q83 -208 109 -268t26 -69t-11 -19t-24 -9q-13 0 -28 17q-74 111 -117 184q-10 14 -18 14t-25 -16q-199 -199 -228 -199zM341 37q91 0 147 45t57 106q0 117 -193 263q-86 65 -116 119
t-29 116q0 114 89 186t215 72t177 -53q29 -33 29 -71q-1 -38 -21 -56t-55 -18t-45 26q0 2 -6 39q-10 66 -104 66q-94 -1 -138 -47q-45 -46 -45 -91t5 -67t40 -66q36 -44 126 -114t130 -130t39 -122q0 -100 -88 -186q-89 -86 -237 -85q-148 0 -224 72q-51 51 -51 113
q0 78 74 77q25 0 39 -13t14 -32l-2 -43q2 -43 42 -75t131 -31z" />
    <glyph glyph-name="Scedilla" unicode="&#x15e;" horiz-adv-x="1036" 
d="M590 -291q0 -113 -108 -181t-228 -69q-43 0 -43 38t57 38q90 0 150 37q59 37 59 92t-24 78q-25 23 -88 39q-29 6 -29 32t30 83t29 59q0 18 -26 18q-88 10 -162 38q-73 29 -99 49t-30 57q-12 188 -12 221q0 41 42 41t42 -37q6 -115 43 -184q23 -41 93 -74t154 -33
q158 0 257 72t99 210t-169 263l-166 125q-180 139 -180 295q0 186 132 274t324 88q125 0 264 -43q49 -14 50 -53q-1 -4 -7 -78t-6 -147q0 -33 -43 -33q-37 0 -37 43q0 111 -24 156q-43 76 -225 75q-133 0 -223 -59t-91 -186q0 -127 162 -250l166 -125q195 -148 195 -324
t-121 -271t-303 -108q-22 -3 -40 -39t-18 -46t8 -19l29 -14q59 -21 88 -55t29 -93z" />
    <glyph glyph-name="scedilla" unicode="&#x15f;" horiz-adv-x="731" 
d="M341 37q91 0 147 45t57 106q0 117 -193 263q-86 65 -116 119t-29 116q0 114 89 186t215 72t177 -53q29 -33 29 -71q-1 -38 -21 -56t-55 -18t-45 26q0 2 -6 39q-10 66 -104 66q-94 -1 -138 -47q-45 -46 -45 -91t5 -67t40 -66q36 -44 126 -114t130 -130t39 -122
q0 -94 -79 -176t-216 -93q-27 -4 -37 -24q-44 -72 -2 -80q119 -37 119 -145t-98 -177q-98 -68 -224 -67q-43 0 -43 35t66 35q65 0 131 36q66 37 66 111q0 37 -25 57t-82 35q-51 11 3 111q28 53 28 57q0 18 -27 22q-82 15 -131 65t-49 112q0 78 74 77q25 0 39 -13t14 -32
l-2 -43q2 -43 42 -75t131 -31z" />
    <glyph glyph-name="Scaron" unicode="&#x160;" horiz-adv-x="1036" 
d="M489 1761q0 31 31 31q12 0 33 -16q164 -164 192 -164q2 0 23 10q143 106 188 138q44 32 58 32t23 -11q20 -24 -7 -48q-27 -23 -264 -250q-25 -25 -44 -25t-36 23q-115 164 -156 217t-41 63zM918 362q0 -102 -41 -180q-74 -140 -266 -189q-83 -22 -182 -22t-193 30
t-136 65q-18 14 -22 51q-12 188 -12 221q0 41 42 41t42 -37q6 -115 43 -184q23 -41 93 -74t154 -33q158 0 257 72t99 210t-169 263l-166 125q-180 139 -180 295q0 186 132 274t324 88q125 0 264 -43q49 -14 50 -53q-1 -4 -7 -78t-6 -147q0 -33 -43 -33q-37 0 -37 43
q0 111 -24 156q-43 76 -225 75q-133 0 -223 -59t-91 -186q0 -127 162 -250l166 -125q195 -147 195 -316z" />
    <glyph glyph-name="scaron" unicode="&#x161;" horiz-adv-x="731" 
d="M775 1462q13 0 23 -9t11 -20q0 -11 -12 -24q-207 -244 -243 -290t-61 -46q-26 0 -34 25q-83 207 -109 267q-26 59 -26 69t11 19t24 9t28 -16q74 -111 117 -184q10 -14 18 -14t25 16q198 198 228 198zM341 37q91 0 147 45t57 106q0 117 -193 263q-86 65 -116 119t-29 116
q0 114 89 186t215 72t177 -53q29 -33 29 -71q-1 -38 -21 -56t-55 -18t-45 26q0 2 -6 39q-10 66 -104 66q-94 -1 -138 -47q-45 -46 -45 -91t5 -67t40 -66q36 -44 126 -114t130 -130t39 -122q0 -100 -88 -186q-89 -86 -237 -85q-148 0 -224 72q-51 51 -51 113q0 78 74 77
q25 0 39 -13t14 -32l-2 -43q2 -43 42 -75t131 -31z" />
    <glyph glyph-name="uni0162" unicode="&#x162;" horiz-adv-x="1318" 
d="M512 -108q0 -12 8 -21l29 -14q59 -21 88 -55t29 -93q0 -113 -108 -181t-228 -69q-43 0 -43 38t57 38q90 0 150 37q59 37 59 92t-25 78t-88 39q-53 11 -6 100q18 39 38 73t22 40q0 16 -33 16l-168 -12q-29 0 -29 34t33 34q28 0 43 -3q92 0 122 40t60 176l201 880
q14 53 14 75q-1 22 -23 32t-172 10t-205 -42q-56 -42 -93 -159q-12 -31 -43 -31t-31 29q0 8 22 73t52 175q8 37 39 37q2 0 80 -6t417 -6t417 3q79 3 112 4t49 2t24 1q31 0 31 -37q1 -10 -21 -110q-22 -99 -26 -134q-2 -31 -38 -31t-36 29l8 84q0 51 -18 77t-61 34t-179 8
t-160 -11t-40 -83l-207 -901q-32 -148 -12 -183t110 -35l47 3q23 0 23 -29q0 -39 -37 -39l-174 10q-27 0 -37 -24q-43 -80 -43 -92z" />
    <glyph glyph-name="uni0163" unicode="&#x163;" horiz-adv-x="651" 
d="M268 125q0 -59 66 -59q49 0 115 53t88 117q2 8 4 14t2 8q7 25 33 25t26 -25q0 -18 -16 -49q-47 -85 -123 -149t-150 -80q-21 -6 -39 -41t-18 -49t20 -23q119 -37 119 -145t-98 -177q-98 -68 -223 -67q-43 0 -43 35q-1 35 65 35t132 36q66 37 65 111q0 37 -25 57t-82 35
q-54 12 11 125q10 18 17 30t7 17q0 18 -20 25q-47 22 -48 94t95 379t96 350q0 12 -16 12l-133 -2q-23 1 -23 17t8 27t89 18q94 8 126 71q9 16 15 28t18 39q12 28 23 46q23 49 50 49t27 -18l-51 -189q0 -12 25 -12l176 4q27 0 27 -23q0 -57 -62 -57l-168 2q-20 0 -26 -20
q-65 -207 -123 -403t-58 -271z" />
    <glyph glyph-name="Tcaron" unicode="&#x164;" horiz-adv-x="1318" 
d="M582 1761q0 31 30 31q12 0 33 -16q68 -68 124 -116q55 -48 63 -48t28 10q143 106 188 138q46 32 60 32t27 -18t-13 -41q-27 -23 -264 -250q-25 -25 -44 -25t-36 23q-116 164 -156 217t-40 63zM1042 1276q-136 0 -160 -11t-40 -83l-207 -901q-34 -159 -12 -183
q12 -35 110 -35l47 3q23 0 23 -29q0 -39 -37 -39q-8 0 -82 6t-148 6t-126 -3q-51 -3 -82 -6t-35 -3q-29 0 -29 34t33 34q28 0 43 -3q92 0 122 40t60 176l201 880q14 53 14 75q-1 22 -23 32t-172 10t-205 -42q-56 -42 -93 -159q-12 -31 -43 -31t-31 29q0 8 22 73t52 175
q8 37 39 37q2 0 80 -6t417 -6t417 3q79 3 112 4t49 2t24 1q31 0 31 -37q1 -10 -21 -110q-22 -99 -26 -134q-2 -31 -38 -31t-36 29l8 84q0 51 -18 77t-61 34t-179 8z" />
    <glyph glyph-name="tcaron" unicode="&#x165;" horiz-adv-x="651" 
d="M885 1311q0 -99 -69 -185t-175 -143q-27 -14 -41 -14t-23 13q-25 36 11 50q178 92 178 213q0 55 -59 90q-29 18 -29 51t28 58q28 24 74 24t75 -48q30 -48 30 -109zM268 125q0 -59 66 -59q49 0 115 53t88 117q2 8 4 14t2 8q7 25 33 25t26 -25q0 -18 -16 -49
q-56 -100 -146 -168t-172 -68q-111 0 -116 99q0 78 96 385t96 350q0 12 -16 12l-133 -2q-23 1 -23 17t8 27t89 18q94 8 126 71q9 16 15 28t18 39q12 28 23 46q23 49 50 49t27 -18l-51 -189q0 -12 25 -12l176 4q27 0 27 -23q0 -57 -62 -57l-168 2q-20 0 -26 -20
q-65 -207 -123 -403t-58 -271z" />
    <glyph glyph-name="Tbar" unicode="&#x166;" horiz-adv-x="1318" 
d="M1042 1276q-136 0 -160 -11t-40 -83l-86 -371q-4 -20 -4 -23q0 -20 26 -20h301q33 0 33 -27q0 -53 -43 -53h-315q-25 0 -33 -31l-86 -376q-36 -170 -5 -194q32 -24 103 -24l47 3q23 0 23 -29q0 -39 -37 -39q-8 0 -82 6t-148 6t-126 -3q-51 -3 -82 -6t-35 -3q-29 0 -29 34
t33 34q28 0 43 -3q92 0 122 40t60 176l84 366q2 6 2 14q0 29 -26 29h-275q-33 0 -33 31q0 49 48 49h284q27 0 33 25l84 366q14 53 14 75q-1 22 -23 32t-172 10t-205 -42q-56 -42 -93 -159q-12 -31 -43 -31t-31 29q0 8 22 73t52 175q8 37 39 37q2 0 80 -6t417 -6t417 3
q79 3 112 4t49 2t24 1q31 0 31 -37q1 -10 -21 -110q-22 -99 -26 -134q-2 -31 -38 -31t-36 29l8 84q0 51 -18 77t-61 34t-179 8z" />
    <glyph glyph-name="tbar" unicode="&#x167;" horiz-adv-x="651" 
d="M391 612q0 -18 23 -18h170q33 0 32 -25q0 -49 -43 -49h-190q-23 1 -29 -22l-20 -70q-66 -227 -66 -303q0 -59 66 -59q49 0 115 53t88 117q2 8 4 14t2 8q7 25 33 25t26 -25q0 -18 -16 -49q-56 -100 -146 -168t-172 -68q-117 0 -116 99q0 78 102 405l6 25q0 18 -24 18h-86
q-33 0 -33 29q0 45 47 45h102q25 0 29 22q49 162 49 192q0 11 -16 11l-133 -2q-23 1 -23 17t8 27t89 18q94 8 126 71q9 16 15 28t18 39q12 28 23 46q23 49 50 49t27 -18l-51 -189q0 -12 25 -12l176 4q27 0 27 -23q0 -57 -62 -57l-168 2q-20 0 -26 -20l-54 -168q-4 -8 -4 -19
z" />
    <glyph glyph-name="Utilde" unicode="&#x168;" horiz-adv-x="1564" 
d="M1161 1575q63 0 90 90q8 25 33 25t25 -25q-1 -9 -19 -63t-55 -93t-97 -39t-144 48q-85 48 -126 49q-59 0 -100 -92q-10 -18 -31 -19q-27 0 -26 25q0 8 10 39q68 158 176 157q31 0 120 -51t144 -51zM674 -29q-227 1 -336 101t-109 274q1 114 29 234q28 119 63 254
q34 135 62 255t12 164q-18 39 -98 39l-43 -2q-23 0 -23 29q0 39 39 39q6 0 74 -6t142 -6q75 0 124 3t78 6t35 3q31 0 31 -34t-31 -34l-47 2q-78 0 -114 -38t-73 -183q-7 -37 -33 -133t-39 -154t-40 -179q-27 -120 -27 -222q0 -152 85 -237t257 -85q121 0 213 32t147 76
q54 44 97 127t84 221t121 558q14 72 14 150q0 68 -106 67l-45 -2q-25 0 -25 31q0 37 37 37l244 -12q49 0 113 6t69 6q37 0 37 -25q0 -43 -39 -43l-43 2q-51 -2 -91 -39t-73 -180q-12 -49 -68 -295t-61 -278q-61 -264 -209 -396t-434 -133z" />
    <glyph glyph-name="utilde" unicode="&#x169;" horiz-adv-x="1210" 
d="M936 1239q47 0 76 84q8 25 32 25t25 -27q-1 -11 -21 -63t-57 -90t-86 -38t-125 44t-104 45t-48 -19q-22 -20 -44 -70q-10 -18 -31 -18q-27 0 -27 25q0 7 26 69q52 122 155 123q28 0 105 -45t124 -45zM866 123q0 -31 10 -44t37 -13q96 0 183 141q14 23 20 41q6 28 34 28
t28 -24t-17 -49q-57 -98 -146 -164t-159 -66q-88 0 -94 93q0 88 106 393q4 12 4 17t-9 5t-15 -12q-31 -66 -93 -158q-225 -333 -460 -336q-55 0 -90 30t-35 85q0 94 116 370t117 349q0 43 -38 43q-31 0 -71 -27t-66 -65t-29 -68q-4 -22 -33 -22t-29 26t29 66q68 94 144 138
t134 44q68 0 74 -70q0 -90 -119 -368t-119 -353t72 -75q100 0 246 139q76 74 182 245t160 343q16 49 16 78q0 49 54 49t55 -39q0 -29 -131 -455q-68 -223 -68 -315z" />
    <glyph glyph-name="Umacron" unicode="&#x16a;" horiz-adv-x="1564" 
d="M1223 1567q0 -72 -60 -72h-411q-45 0 -45 35q0 76 59 76h412q45 0 45 -39zM674 -29q-227 1 -336 101t-109 274q1 114 29 234q28 119 63 254q34 135 62 255t12 164q-18 39 -98 39l-43 -2q-23 0 -23 29q0 39 39 39q6 0 74 -6t142 -6q75 0 124 3t78 6t35 3q31 0 31 -34
t-31 -34l-47 2q-78 0 -114 -38t-73 -183q-7 -37 -33 -133t-39 -154t-40 -179q-27 -120 -27 -222q0 -152 85 -237t257 -85q121 0 213 32t147 76q54 44 97 127t84 221t121 558q14 72 14 150q0 68 -106 67l-45 -2q-25 0 -25 31q0 37 37 37l244 -12q49 0 113 6t69 6q37 0 37 -25
q0 -43 -39 -43l-43 2q-51 -2 -91 -39t-73 -180q-12 -49 -68 -295t-61 -278q-61 -264 -209 -396t-434 -133z" />
    <glyph glyph-name="umacron" unicode="&#x16b;" horiz-adv-x="1210" 
d="M1030 1198q0 -72 -59 -72h-373q-45 0 -45 35q0 76 59 76h373q45 0 45 -39zM866 123q0 -31 10 -44t37 -13q96 0 183 141q14 23 20 41q6 28 34 28t28 -24t-17 -49q-57 -98 -146 -164t-159 -66q-88 0 -94 93q0 88 106 393q4 12 4 17t-9 5t-15 -12q-31 -66 -93 -158
q-225 -333 -460 -336q-55 0 -90 30t-35 85q0 94 116 370t117 349q0 43 -38 43q-31 0 -71 -27t-66 -65t-29 -68q-4 -22 -33 -22t-29 26t29 66q68 94 144 138t134 44q68 0 74 -70q0 -90 -119 -368t-119 -353t72 -75q100 0 246 139q76 74 182 245t160 343q16 49 16 78
q0 49 54 49t55 -39q0 -29 -131 -455q-68 -223 -68 -315z" />
    <glyph glyph-name="Ubreve" unicode="&#x16c;" horiz-adv-x="1564" 
d="M1227 1765q27 0 26 -36q0 -100 -79 -181q-80 -80 -197 -80q-233 0 -234 209q-1 12 7 50t36 38t29 -28q2 -84 43 -122t121 -38q158 0 207 156q14 32 41 32zM674 -29q-227 1 -336 101t-109 274q1 114 29 234q28 119 63 254q34 135 62 255t12 164q-18 39 -98 39l-43 -2
q-23 0 -23 29q0 39 39 39q6 0 74 -6t142 -6q75 0 124 3t78 6t35 3q31 0 31 -34t-31 -34l-47 2q-78 0 -114 -38t-73 -183q-7 -37 -33 -133t-39 -154t-40 -179q-27 -120 -27 -222q0 -152 85 -237t257 -85q121 0 213 32t147 76q54 44 97 127t84 221t121 558q14 72 14 150
q0 68 -106 67l-45 -2q-25 0 -25 31q0 37 37 37l244 -12q49 0 113 6t69 6q37 0 37 -25q0 -43 -39 -43l-43 2q-51 -2 -91 -39t-73 -180q-12 -49 -68 -295t-61 -278q-61 -264 -209 -396t-434 -133z" />
    <glyph glyph-name="ubreve" unicode="&#x16d;" horiz-adv-x="1210" 
d="M547 1266q0 100 47 100q27 0 27 -29q0 -162 139 -161q72 0 117 36t75 121q14 33 41 33t27 -35q0 -104 -72 -183t-176 -79t-165 49q-60 48 -60 148zM866 123q0 -31 10 -44t37 -13q96 0 183 141q14 23 20 41q6 28 34 28t28 -24t-17 -49q-57 -98 -146 -164t-159 -66
q-88 0 -94 93q0 88 106 393q4 12 4 17t-9 5t-15 -12q-31 -66 -93 -158q-225 -333 -460 -336q-55 0 -90 30t-35 85q0 94 116 370t117 349q0 43 -38 43q-31 0 -71 -27t-66 -65t-29 -68q-4 -22 -33 -22t-29 26t29 66q68 94 144 138t134 44q68 0 74 -70q0 -90 -119 -368
t-119 -353t72 -75q100 0 246 139q76 74 182 245t160 343q16 49 16 78q0 49 54 49t55 -39q0 -29 -131 -455q-68 -223 -68 -315z" />
    <glyph glyph-name="Uring" unicode="&#x16e;" horiz-adv-x="1564" 
d="M1096 1622q0 106 -101 107q-49 0 -83 -38q-34 -37 -34 -95q1 -119 99 -117q55 1 87 37t32 106zM1165 1617q0 -79 -50 -137t-133 -58t-129 45q-46 46 -46 126q0 79 54 135t133 56t125 -44t46 -123zM674 -29q-227 1 -336 101t-109 274q1 114 29 234q28 119 63 254
q34 135 62 255t12 164q-18 39 -98 39l-43 -2q-23 0 -23 29q0 39 39 39q6 0 74 -6t142 -6q75 0 124 3t78 6t35 3q31 0 31 -34t-31 -34l-47 2q-78 0 -114 -38t-73 -183q-7 -37 -33 -133t-39 -154t-40 -179q-27 -120 -27 -222q0 -152 85 -237t257 -85q121 0 213 32t147 76
q54 44 97 127t84 221t121 558q14 72 14 150q0 68 -106 67l-45 -2q-25 0 -25 31q0 37 37 37l244 -12q49 0 113 6t69 6q37 0 37 -25q0 -43 -39 -43l-43 2q-51 -2 -91 -39t-73 -180q-12 -49 -68 -295t-61 -278q-61 -264 -209 -396t-434 -133z" />
    <glyph glyph-name="uring" unicode="&#x16f;" horiz-adv-x="1210" 
d="M672 1233q0 -121 101 -121q50 0 83 39t33 109q0 111 -101 110q-48 0 -82 -39t-34 -98zM788 1427q78 -1 124 -45q44 -44 44 -125t-51 -143t-133 -61q-82 0 -126 48t-44 130t54 139t132 57zM866 123q0 -31 10 -44t37 -13q96 0 183 141q14 23 20 41q6 28 34 28t28 -24
t-17 -49q-57 -98 -146 -164t-159 -66q-88 0 -94 93q0 88 106 393q4 12 4 17t-9 5t-15 -12q-31 -66 -93 -158q-225 -333 -460 -336q-55 0 -90 30t-35 85q0 94 116 370t117 349q0 43 -38 43q-31 0 -71 -27t-66 -65t-29 -68q-4 -22 -33 -22t-29 26t29 66q68 94 144 138t134 44
q68 0 74 -70q0 -90 -119 -368t-119 -353t72 -75q100 0 246 139q76 74 182 245t160 343q16 49 16 78q0 49 54 49t55 -39q0 -29 -131 -455q-68 -223 -68 -315z" />
    <glyph glyph-name="Uhungarumlaut" unicode="&#x170;" horiz-adv-x="1564" 
d="M1053 1442q-12 0 -21 9q-8 9 -8 23t25 33q104 82 245 207q53 47 84 47q53 -4 54 -59q-1 -35 -60 -76q-150 -100 -228 -142t-91 -42zM741 1442q-12 0 -20 9q-19 21 16 56q151 123 225 189t105 65q53 -4 53 -59q0 -35 -59 -76q-150 -100 -229 -142t-91 -42zM674 -29
q-227 1 -336 101t-109 274q1 114 29 234q28 119 63 254q34 135 62 255t12 164q-18 39 -98 39l-43 -2q-23 0 -23 29q0 39 39 39q6 0 74 -6t142 -6q75 0 124 3t78 6t35 3q31 0 31 -34t-31 -34l-47 2q-78 0 -114 -38t-73 -183q-7 -37 -33 -133t-39 -154t-40 -179
q-27 -120 -27 -222q0 -152 85 -237t257 -85q121 0 213 32t147 76q54 44 97 127t84 221t121 558q14 72 14 150q0 68 -106 67l-45 -2q-25 0 -25 31q0 37 37 37l244 -12q49 0 113 6t69 6q37 0 37 -25q0 -43 -39 -43l-43 2q-51 -2 -91 -39t-73 -180q-12 -49 -68 -295t-61 -278
q-61 -264 -209 -396t-434 -133z" />
    <glyph glyph-name="uhungarumlaut" unicode="&#x171;" horiz-adv-x="1210" 
d="M817 1100q1 10 17 30t92 112q76 91 109 143q34 52 77 53q20 0 38 -12t17 -42q0 -28 -45 -73q-235 -235 -274 -238q-12 0 -22 8q-9 9 -9 19zM566 1081q-9 8 -9 20t91 120q91 107 126 161q35 55 78 56q20 0 38 -12t17 -42q0 -28 -45 -73q-235 -235 -274 -238q-12 0 -22 8z
M866 123q0 -31 10 -44t37 -13q96 0 183 141q14 23 20 41q6 28 34 28t28 -24t-17 -49q-57 -98 -146 -164t-159 -66q-88 0 -94 93q0 88 106 393q4 12 4 17t-9 5t-15 -12q-31 -66 -93 -158q-225 -333 -460 -336q-55 0 -90 30t-35 85q0 94 116 370t117 349q0 43 -38 43
q-31 0 -71 -27t-66 -65t-29 -68q-4 -22 -33 -22t-29 26t29 66q68 94 144 138t134 44q68 0 74 -70q0 -90 -119 -368t-119 -353t72 -75q100 0 246 139q76 74 182 245t160 343q16 49 16 78q0 49 54 49t55 -39q0 -29 -131 -455q-68 -223 -68 -315z" />
    <glyph glyph-name="Uogonek" unicode="&#x172;" horiz-adv-x="1564" 
d="M584 -286q0 -120 116 -120q59 0 111 48q9 10 21 10t20 -9t8 -21t-22 -36q-88 -76 -203 -75q-76 0 -123 45t-47 114q0 133 149 269q12 8 13 18q0 14 -31 18q-367 33 -367 371q1 114 29 234q28 119 63 254q34 135 62 255t12 164q-18 39 -98 39l-43 -2q-23 0 -23 29
q0 39 39 39q6 0 74 -6t142 -6q75 0 124 3t78 6t35 3q31 0 31 -34t-31 -34l-47 2q-78 0 -114 -38t-73 -183q-7 -37 -33 -133t-39 -154t-40 -179q-27 -120 -27 -222q0 -152 85 -237t257 -85q121 0 213 32t147 76q54 44 97 127t84 221t121 558q14 72 14 150q0 68 -106 67
l-45 -2q-25 0 -25 31q0 37 37 37l244 -12q49 0 113 6t69 6q37 0 37 -25q0 -43 -39 -43l-43 2q-51 -2 -91 -39t-73 -180q-12 -49 -68 -295t-61 -278q-57 -244 -184 -374t-367 -151q-25 -4 -35 -14q-147 -127 -147 -247z" />
    <glyph glyph-name="uogonek" unicode="&#x173;" horiz-adv-x="1210" 
d="M866 123q0 -31 10 -44t37 -13q96 0 183 141q14 23 20 41q6 28 34 28t28 -24t-17 -49q-94 -162 -239 -217q-8 -2 -29 -15q-156 -131 -156 -250q0 -113 119 -112q59 0 105 45q10 10 22 10q25 0 25 -29q0 -12 -21 -32q-84 -74 -196 -74q-74 0 -119 44t-45 112q0 133 161 268
q27 19 0 43q-27 23 -26 70q0 88 106 393q4 12 4 17t-9 5t-15 -12q-31 -66 -93 -158q-225 -333 -460 -336q-55 0 -90 30t-35 85q0 94 116 370t117 349q0 43 -38 43q-31 0 -71 -27t-66 -65t-29 -68q-4 -22 -33 -22t-29 26t29 66q68 94 144 138t122 44q86 0 86 -70
q0 -90 -119 -368t-119 -353t72 -75q100 0 246 139q76 74 182 245t160 343q16 49 16 78q0 49 54 49t55 -39q0 -29 -131 -455q-68 -223 -68 -315z" />
    <glyph glyph-name="Wcircumflex" unicode="&#x174;" horiz-adv-x="1976" 
d="M1460 1448q0 -31 -30 -31q-12 0 -33 17q-68 68 -124 116q-55 48 -63 47q-8 0 -28 -10q-143 -106 -217 -155q-32 -28 -53 -4q-9 12 -9 22t22 30t259 246q25 25 44 25t36 -22q116 -163 156 -217t40 -64zM1104 1077q-6 1 -43 -63t-257 -450t-255 -450t-60 -98
q-25 -39 -53 -39t-33 31q-5 32 -25 436t-30 596t-26 223q-16 30 -72 29l-39 -2q-23 0 -23 29q0 39 37 39q4 0 73 -6t122 -6t104 3t83 6t40 3q35 0 35 -31q0 -37 -39 -37l-47 2q-72 0 -102 -28t-31 -107q0 -78 2 -113l31 -774q2 -53 12 -53t35 45l485 862q12 20 100 187
q23 41 48 41q31 0 34 -31q2 -14 5 -48t6 -61l92 -946q4 -43 14 -43t35 49l377 760q78 156 78 195q-1 39 -19 52t-74 13l-47 -2q-31 0 -30 27q0 41 39 41l231 -10l180 10q35 0 35 -31q0 -37 -37 -37l-37 2q-49 0 -77 -25t-101 -168q-74 -143 -284 -543q-217 -412 -238 -459
q-55 -120 -96 -120q-31 0 -37 31q0 37 -12 121t-45 431q-32 347 -42 432t-22 85z" />
    <glyph glyph-name="wcircumflex" unicode="&#x175;" horiz-adv-x="1589" 
d="M755 1073q-13 0 -24 9q-10 8 -10 20t12 24q207 244 258 310q20 26 46 26t34 -24q83 -208 109 -268t26 -69t-11 -19t-25 -9q-14 0 -27 17q-74 111 -117 184q-10 14 -18 14t-25 -16q-199 -199 -228 -199zM156 678q-34 0 -35 30q0 16 26 56q59 88 137 134t146 46t68 -73
t-104 -361t-103 -342q0 -54 20 -74t47 -20q104 0 225 131q242 264 287 665q4 54 58 54t55 -37q0 -18 -51 -222t-51 -466q0 -59 28 -93q29 -33 68 -32q102 0 210 96q109 96 175 236q128 269 12 438q-41 58 -41 78t28 44t62 23q47 0 71 -74q24 -73 24 -193t-58 -263
q-112 -273 -339 -419q-103 -67 -186 -67t-118 42q-35 43 -35 137t14 166t13 84q0 13 -10 14q-10 0 -15 -13q-86 -193 -218 -313t-251 -119q-131 0 -131 129q0 48 8 72t13 48q6 24 15 56t22 65q12 33 26 77t66 196t51 181q0 53 -45 53q-29 0 -68 -24t-57 -54t-39 -80
q-4 -12 -20 -12z" />
    <glyph glyph-name="Ycircumflex" unicode="&#x176;" horiz-adv-x="1341" 
d="M1157 1448q0 -31 -31 -31q-12 0 -32 17q-68 68 -124 116t-64 47q-8 0 -27 -10q-143 -106 -217 -155q-32 -28 -53 -4q-9 12 -9 22t22 30t259 246q25 25 44 25t36 -22q115 -163 155 -217t41 -64zM651 158q0 -40 11 -60q18 -35 106 -35l35 3q27 0 26 -25q0 -43 -36 -43
q-6 0 -70 6q-63 6 -139 6t-128 -3t-84 -6t-36 -3q-25 0 -25 29q0 39 35 39q14 0 35 -3q90 0 118 42t60 186l53 231q8 29 8 48t-12 51l-147 385q-68 178 -113 249q-23 37 -76 37l-36 -2q-29 0 -29 29q0 15 10 27q9 12 21 12t65 -6t152 -6l221 12q29 0 29 -34t-37 -34l-80 2
q-80 0 -80 -46t70 -232l90 -242q27 -72 41 -72q20 0 77 70l209 246q162 193 162 237q0 27 -18 33t-66 6l-59 -2q-29 0 -29 27q0 41 39 41l74 -6q76 -6 156 -6t136 6q58 6 60 6q35 0 35 -33q0 -19 -11 -27t-24 -8l-33 2q-43 0 -95 -38t-218 -236l-334 -393q-10 -10 -22 -37
t-15 -45l-59 -254q-23 -91 -23 -131z" />
    <glyph glyph-name="ycircumflex" unicode="&#x177;" horiz-adv-x="1150" 
d="M443 1135q-13 0 -23 9t-10 20t12 24q206 244 242 290t62 46t34 -25q82 -207 108 -267t27 -70q0 -10 -11 -18q-10 -9 -24 -9t-29 16q-74 111 -116 184q-11 15 -19 15t-24 -17q-198 -198 -229 -198zM1024 727q0 -187 -60 -413t-124 -376q-66 -150 -155 -279
q-89 -128 -209 -201q-120 -72 -247 -72t-182 30t-55 65q0 36 18 55q18 20 48 20t53 -31q45 -66 127 -66t147 31q262 123 471 789q4 12 4 19t-7 7t-13 -8q-227 -324 -498 -324q-70 0 -112 35t-42 94q0 106 96 362t97 333q0 51 -47 51q-25 0 -64 -25q-67 -43 -96 -131
q-6 -16 -32 -16t-26 26t25 58q129 184 275 184q78 0 78 -76q0 -94 -100 -358t-99 -356q0 -80 90 -80q143 0 290 130q253 225 253 478q0 107 -39 162q-39 56 -39 78t26 45t58 22q54 0 72 -88t18 -174z" />
    <glyph glyph-name="Ydieresis" unicode="&#x178;" horiz-adv-x="1341" 
d="M1118 1552q0 -36 -26 -64t-61 -28t-57 20t-22 58q0 37 27 64t61 26q78 0 78 -76zM805 1552q0 -36 -27 -64q-26 -28 -60 -28t-56 20t-23 58q0 37 27 64q28 26 62 26t56 -20t21 -56zM651 158q0 -40 11 -60q18 -35 106 -35l35 3q27 0 26 -25q0 -43 -36 -43q-6 0 -70 6
q-63 6 -139 6t-128 -3t-84 -6t-36 -3q-25 0 -25 29q0 39 35 39q14 0 35 -3q90 0 118 42t60 186l53 231q8 29 8 48t-12 51l-147 385q-68 178 -113 249q-23 37 -76 37l-36 -2q-29 0 -29 29q0 15 10 27q9 12 21 12t65 -6t152 -6l221 12q29 0 29 -34t-37 -34l-80 2
q-80 0 -80 -46t70 -232l90 -242q27 -72 41 -72q20 0 77 70l209 246q162 193 162 237q0 27 -18 33t-66 6l-59 -2q-29 0 -29 27q0 41 39 41l74 -6q76 -6 156 -6t136 6q58 6 60 6q35 0 35 -33q0 -19 -11 -27t-24 -8l-33 2q-43 0 -95 -38t-218 -236l-334 -393q-10 -10 -22 -37
t-15 -45l-59 -254q-23 -91 -23 -131z" />
    <glyph glyph-name="Zacute" unicode="&#x179;" horiz-adv-x="1267" 
d="M762 1442q-22 0 -23 24q0 24 25 41q135 102 220 172t116 70q63 0 63 -70q0 -30 -59 -69q-148 -92 -234 -130t-108 -38zM1325 1327q0 -4 -20 -35q-209 -240 -1045 -1147q-29 -29 -29 -45q-1 -16 65 -17t346 -1t354 44t143 196q14 23 32 22q35 0 35 -29q0 -39 -106 -290
q-10 -27 -45 -27l-64 2l-426 2l-520 -2q-33 0 -33 29q0 14 21 34q475 506 1059 1156q23 27 22 36q0 18 -33 19q-95 2 -327 2t-273 -22t-63 -59q-22 -36 -58 -120q-12 -25 -44 -25t-31 27q-1 10 29 100q30 91 42 131t26 46t44 6l440 -8h198l228 2q33 0 33 -27z" />
    <glyph glyph-name="zacute" unicode="&#x17a;" horiz-adv-x="915" 
d="M575 1073q-14 0 -23 8t-9 20t87 115t126 162t86 60q63 0 63 -58q-1 -32 -59 -90t-230 -194q-27 -23 -41 -23zM296 928q58 0 222 -14t245 -15q81 0 100 8q19 7 35 29t32 22q33 0 33 -32q0 -10 -17 -33q-176 -213 -490 -494q-97 -86 -259 -223q-14 -12 -15 -22
q0 -14 27 -15q81 1 261 -35t238 -36t82 30t35 111q6 29 34 29t28 -27q0 -59 -56 -178q-37 -80 -161 -80q-48 0 -258 50t-272 50t-95 -35q-19 -18 -31 -18t-23 10t-11 26t32 48q200 192 724 674q26 24 26 38t-23 13l-325 10q-90 1 -132 -23t-63 -106q-6 -22 -32 -22t-25 22
q0 6 11 35t27 86q15 57 21 74q17 43 75 43z" />
    <glyph glyph-name="Zdotaccent" unicode="&#x17b;" horiz-adv-x="1267" 
d="M942 1524q0 -37 -24 -61q-24 -23 -59 -23t-59 24t-24 60t25 60t59 24t58 -24t24 -60zM1325 1327q0 -4 -20 -35q-209 -240 -1045 -1147q-29 -29 -29 -45q-1 -16 65 -17t346 -1t354 44t143 196q14 23 32 22q35 0 35 -29q0 -39 -106 -290q-10 -27 -45 -27l-64 2l-426 2
l-520 -2q-33 0 -33 29q0 14 21 34q475 506 1059 1156q23 27 22 36q0 18 -33 19q-95 2 -327 2t-273 -22t-63 -59q-22 -36 -58 -120q-12 -25 -44 -25t-31 27q-1 10 29 100q30 91 42 131t26 46t44 6l440 -8h198l228 2q33 0 33 -27z" />
    </font>
</defs>
</svg>
